<?xml version="1.0" encoding="UTF-8" standalone="no"?>
<!-- Created with Inkscape (http://www.inkscape.org/) -->

<svg
   xmlns:dc="http://purl.org/dc/elements/1.1/"
   xmlns:cc="http://creativecommons.org/ns#"
   xmlns:rdf="http://www.w3.org/1999/02/22-rdf-syntax-ns#"
   xmlns:svg="http://www.w3.org/2000/svg"
   xmlns="http://www.w3.org/2000/svg"
   xmlns:sodipodi="http://sodipodi.sourceforge.net/DTD/sodipodi-0.dtd"
   xmlns:inkscape="http://www.inkscape.org/namespaces/inkscape"
   width="256"
   height="256"
   viewBox="0 0 67.733332 67.733335"
   version="1.1"
   id="svg8"
   sodipodi:docname="calamares_install_image.svg"
   inkscape:version="0.92.3 (unknown)"
   inkscape:export-filename="/home/uri/bitmap.png"
   inkscape:export-xdpi="96"
   inkscape:export-ydpi="96">
  <defs
     id="defs2" />
  <sodipodi:namedview
     id="base"
     pagecolor="#ffffff"
     bordercolor="#666666"
     borderopacity="1.0"
     inkscape:pageopacity="0.0"
     inkscape:pageshadow="2"
     inkscape:zoom="2.8284271"
     inkscape:cx="69.990179"
     inkscape:cy="197.8522"
     inkscape:document-units="px"
     inkscape:current-layer="layer1"
     showgrid="true"
     units="px"
     inkscape:showpageshadow="false"
     borderlayer="true"
     showguides="true"
     inkscape:guide-bbox="true"
     inkscape:window-width="2560"
     inkscape:window-height="1384"
     inkscape:window-x="0"
     inkscape:window-y="32"
     inkscape:window-maximized="1"
     inkscape:pagecheckerboard="true">
    <inkscape:grid
       type="xygrid"
       id="grid4485"
       empspacing="5" />
    <sodipodi:guide
       position="67.733334,67.733334"
       orientation="1,0"
       id="guide4487"
       inkscape:locked="false"
       inkscape:label="2560"
       inkscape:color="rgb(0,0,255)" />
    <sodipodi:guide
       position="0,0"
       orientation="1,0"
       id="guide4489"
       inkscape:locked="false"
       inkscape:label="1000"
       inkscape:color="rgb(0,0,255)" />
    <sodipodi:guide
       position="67.733333,33.866667"
       orientation="0,1"
       id="guide851"
       inkscape:locked="false" />
    <sodipodi:guide
       position="33.866666,67.733335"
       orientation="1,0"
       id="guide853"
       inkscape:locked="false" />
  </sodipodi:namedview>
  <metadata
     id="metadata5">
    <rdf:RDF>
      <cc:Work
         rdf:about="">
        <dc:format>image/svg+xml</dc:format>
        <dc:type
           rdf:resource="http://purl.org/dc/dcmitype/StillImage" />
        <dc:title />
      </cc:Work>
    </rdf:RDF>
  </metadata>
  <g
     inkscape:label="Capa 1"
     inkscape:groupmode="layer"
     id="layer1"
     transform="translate(0,-229.26664)">
    <rect
       style="opacity:1;fill:#505659;fill-opacity:1;stroke:none;stroke-width:0.0611029;stroke-linecap:round;stroke-linejoin:round;stroke-miterlimit:4;stroke-dasharray:none;stroke-opacity:1"
       id="rect912"
       width="67.73333"
       height="67.73333"
       x="0"
       y="229.26665" />
    <g
       style="display:inline"
       id="g1165"
       transform="matrix(0.26458333,0,0,0.26458333,141.81667,78.454149)">
      <rect
         style="display:inline;opacity:1;fill:none;fill-opacity:1;stroke:none;stroke-width:1.46059346;stroke-linecap:round;stroke-linejoin:round;stroke-miterlimit:4;stroke-dasharray:none;stroke-dashoffset:0;stroke-opacity:1"
         id="rect2129"
         width="80"
         height="46.000004"
         x="-448"
         y="645"
         inkscape:export-filename="/home/uri/nitrux_logo@2x.png"
         inkscape:export-xdpi="192"
         inkscape:export-ydpi="192" />
      <path
         id="path2131"
         d="m -397,651 v 2 26.93555 0.0644 4 l 2,1 26,-16 v -1 l -4.2832,-2.59961 L -389,655.85742 v 1.94336 l 14.20898,8.52344 L -396,679.32227 V 653.59961 653 651.60742 Z m -29,11 -5,6 6,7 v -12 z"
         style="display:inline;opacity:1;fill:#fafafa;fill-opacity:1;fill-rule:evenodd;stroke:none;stroke-width:1px;stroke-linecap:butt;stroke-linejoin:miter;stroke-opacity:1"
         inkscape:connector-curvature="0" />
      <path
         inkscape:export-ydpi="192"
         inkscape:export-xdpi="192"
         inkscape:export-filename="/home/uri/nitrux_logo@2x.png"
         inkscape:connector-curvature="0"
         style="display:inline;opacity:1;fill:#fafafa;fill-opacity:1;stroke:none"
         d="m -447.00002,658.00001 v 1 2 18 h 1 v -13 c 0,-0.71378 0.66889,-0.96495 1.17188,-0.40234 l 9.82812,13.40234 h 1 v -4 -2.5625 l 5,6.5625 h 4 l -8.20117,-10.76562 c -0.16533,-0.20907 -0.16538,-0.54257 0.0801,-0.88672 L -426,658.00001 h -1 l -7,9.1875 -2,2.625 -0.98242,1.28906 z m 2,0 8,10.5 2,-2.625 -6,-7.875 z m 23,0 a 10.5,10.5 0 0 0 -0.69727,0.0352 l -0.96289,1.1582 a 8.499979,9.5 0 0 1 1.66016,-0.19336 8.499979,9.5 0 0 1 2.7168,0.50781 c -1.05624,1.00103 -1.7168,2.41535 -1.7168,3.99219 0,3.047 2.453,5.5 5.5,5.5 h 0.39844 1.57812 a 8.499979,9.5 0 0 1 -4.78125,8.04688 c -0.91918,-0.72808 -1.55229,-1.8059 -1.69531,-3.04688 h -1 c 0.12964,1.37699 0.74891,2.60511 1.68164,3.50195 a 8.499979,9.5 0 0 1 -2.68164,0.49805 8.499979,9.5 0 0 1 -0.45117,-0.0254 l 0.86133,1.00391 a 10.5,10.5 0 0 0 3.33593,-0.69336 c 0.78076,0.44552 1.6773,0.71484 2.65235,0.71484 h 5 c 3.047,0 5.5,-2.453 5.5,-5.5 0,-3.047 -2.453,-5.5 -5.5,-5.5 h -0.39844 -0.52539 a 10.5,10.5 0 0 0 -5.47852,-8.72461 c 0.47225,-0.16744 0.97286,-0.27539 1.50391,-0.27539 h 5 c 2.31527,0 4.13986,1.75626 4.39844,4 h 1 c -0.26343,-2.79815 -2.52911,-5 -5.39844,-5 h -5 c -0.98577,0 -1.9066,0.2604 -2.70508,0.71094 a 10.5,10.5 0 0 0 -3.79492,-0.71094 z m 3.72656,1.97461 a 8.499979,9.5 0 0 1 4.75782,8.02539 h -1.58594 -0.39844 c -2.493,0 -4.5,-2.007 -4.5,-4.5 0,-1.43938 0.68122,-2.70278 1.72656,-3.52539 z m -12.15039,7.33398 -0.57617,0.69141 0.50195,0.58594 a 8.499979,9.5 0 0 1 -0.002,-0.0859 8.499979,9.5 0 0 1 0.0762,-1.19141 z m 18.90235,1.69141 h 0.52148 0.39844 c 2.493,0 4.5,2.007 4.5,4.5 0,2.493 -2.007,4.5 -4.5,4.5 h -5 c -0.5181,0 -1.00599,-0.0981 -1.46289,-0.25977 a 10.5,10.5 0 0 0 5.54297,-8.74023 z m -24.10547,1.78516 c 0.33968,-0.025 0.62695,0.24749 0.62695,0.71484 v 2.19141 l -1.48047,-1.93555 0.71289,-0.9375 c 0.047,-0.0144 0.095,-0.0299 0.14063,-0.0332 z"
         id="path2133" />
    </g>
    <path
       id="path1159"
       d="m 38.364584,271.86464 v 8.99584 h 8.995833 v -8.99584 z m -17.991667,1.85209 v 0.26458 0.52917 4.7625 H 20.6375 v -3.96875 l 2.910417,3.96875 h 0.264584 v -1.05833 -4.23334 l 0.529166,0.52917 v 4.7625 h 0.79375 v -4.7625 h 0.529167 c 0.146576,0 0.264583,0.118 0.264583,0.26458 v 4.49792 h 0.79375 v -4.49792 c 0,-0.14658 0.118004,-0.26458 0.264584,-0.26458 h 0.529166 v 1.5875 0.52916 2.64584 h 0.264584 v -2.64584 c 0,-0.14658 0.118004,-0.26458 0.264583,-0.26458 h 0.692981 l 0.100769,0.13229 v 0.92605 c 0,1.02605 0.826026,1.85208 1.852083,1.85208 0.08519,0 0.168556,-0.008 0.250632,-0.0185 l 0.01402,0.0185 h 1.058333 l -0.256831,-0.33695 c 0.475639,-0.33456 0.785998,-0.88693 0.785998,-1.51513 v -2.31511 l 1.058333,1.38906 0.529167,-0.69453 -1.5875,-2.08359 h -1.058333 l 0.79375,1.04179 v 0.0164 2.64584 c 0,0.54194 -0.269426,1.01811 -0.681593,1.30431 l -1.800419,-2.36265 h 0.629936 c 0.732885,0 1.322909,-0.59002 1.322909,-1.32292 0,-0.7329 -0.590024,-1.32292 -1.322909,-1.32292 h -0.79375 -1.852083 -0.264583 -0.79375 -0.79375 -0.79375 -0.79375 -0.79375 v 4.1517 z m 11.641656,5.55625 h 0.264584 l 1.719791,-2.25725 1.719803,2.25725 h 1.058333 l -2.248958,-2.95178 1.984375,-2.60448 h -0.264584 l -1.852083,2.43086 -0.529177,0.69453 z m 7.93751,-5.55625 2.65049,3.46643 0.259927,-0.34104 0.529167,-0.69454 1.852083,-2.43085 h 0.264583 l -1.884124,2.47321 c -0.06493,0.0911 -0.0649,0.17931 -0.02117,0.23464 l 2.169901,2.8484 h -1.058333 l -1.322917,-1.73633 v 0.678 1.05833 h -0.264583 l -2.600352,-3.54606 c -0.133085,-0.14885 -0.310065,-0.0824 -0.310065,0.10647 v 3.43959 h -0.264583 v -4.7625 -0.52917 z m 0.529167,0 h 1.058333 l 1.5875,2.08359 -0.529166,0.69453 z m 2.479966,3.38272 c -0.01217,0 -0.02487,0.005 -0.0372,0.009 l -0.188622,0.24806 0.391689,0.51212 v -0.57981 c 0,-0.12367 -0.07599,-0.19574 -0.165867,-0.18915 z m -13.327885,0.4372 1.118796,1.46865 c -0.02024,0 -0.04005,0.003 -0.06046,0.003 -0.408022,0 -0.777698,-0.15393 -1.058334,-0.40515 z"
       style="display:inline;opacity:1;fill:#ffffff;fill-opacity:1;stroke:none;stroke-width:0.26458332"
       inkscape:connector-curvature="0"
       inkscape:export-filename="/home/uri/patreon_banner.png"
       inkscape:export-xdpi="96"
       inkscape:export-ydpi="96" />
    <g
       aria-label="brought to you by"
       style="font-style:normal;font-variant:normal;font-weight:normal;font-stretch:normal;font-size:3.17499995px;line-height:0%;font-family:'Roboto Condensed';-inkscape-font-specification:'Roboto Condensed, ';text-align:start;letter-spacing:0px;word-spacing:0px;text-anchor:start;display:inline;opacity:1;fill:#ffffff;fill-opacity:1;stroke:none;stroke-width:0.26458332"
       id="text1449"
       transform="translate(0,5.8208336)">
      <path
         d="m 24.431585,261.12751 q 0,0.33331 -0.144177,0.5333 -0.144177,0.19844 -0.406177,0.19844 -0.131775,0 -0.230994,-0.0574 -0.09767,-0.0589 -0.164331,-0.17209 l -0.02325,0.19689 H 23.1898 v -2.41846 h 0.31471 v 0.91778 q 0.06511,-0.10077 0.15813,-0.15348 0.09302,-0.0543 0.21549,-0.0543 0.265101,0 0.409278,0.21394 0.144177,0.21239 0.144177,0.56741 z m -0.313159,-0.22789 q 0,-0.24185 -0.07751,-0.38913 -0.07596,-0.14728 -0.241845,-0.14728 -0.10542,0 -0.179834,0.0636 -0.07286,0.062 -0.114722,0.16743 v 0.80615 q 0.04186,0.10232 0.116272,0.15968 0.07441,0.0558 0.181384,0.0558 0.165881,0 0.240296,-0.13177 0.07596,-0.13178 0.07596,-0.35657 z"
         style="font-style:normal;font-variant:normal;font-weight:normal;font-stretch:normal;font-size:3.17499995px;line-height:0.69999999;font-family:'Roboto Condensed';-inkscape-font-specification:'Roboto Condensed, ';text-align:center;letter-spacing:0px;word-spacing:0px;text-anchor:middle;fill:#ffffff;fill-opacity:1;stroke-width:0.26458332"
         id="path830"
         inkscape:connector-curvature="0" />
      <path
         d="m 25.456329,260.41437 -0.147278,-0.008 q -0.09767,0 -0.162781,0.0589 -0.06356,0.0589 -0.09767,0.16588 v 1.19528 h -0.31471 v -1.67742 h 0.286804 l 0.02325,0.2527 q 0.05271,-0.13332 0.137976,-0.20774 0.08527,-0.076 0.196887,-0.076 0.03101,0 0.06356,0.006 0.03256,0.005 0.05116,0.0124 z"
         style="font-style:normal;font-variant:normal;font-weight:normal;font-stretch:normal;font-size:3.17499995px;line-height:0.69999999;font-family:'Roboto Condensed';-inkscape-font-specification:'Roboto Condensed, ';text-align:center;letter-spacing:0px;word-spacing:0px;text-anchor:middle;fill:#ffffff;fill-opacity:1;stroke-width:0.26458332"
         id="path832"
         inkscape:connector-curvature="0" />
      <path
         d="m 25.62066,260.88256 q 0,-0.33331 0.173633,-0.5488 0.175183,-0.21549 0.47904,-0.21549 0.302307,0 0.47749,0.21549 0.175183,0.21394 0.175183,0.5488 v 0.21394 q 0,0.33642 -0.175183,0.55036 -0.173633,0.21239 -0.47594,0.21239 -0.305407,0 -0.48059,-0.21239 -0.173633,-0.21394 -0.173633,-0.55036 z m 0.314709,0.21394 q 0,0.22945 0.08372,0.37672 0.08372,0.14728 0.255798,0.14728 0.167432,0 0.251148,-0.14728 0.08527,-0.14727 0.08527,-0.37672 v -0.21394 q 0,-0.22634 -0.08527,-0.37362 -0.08372,-0.14883 -0.252698,-0.14883 -0.170532,0 -0.254248,0.14728 -0.08372,0.14728 -0.08372,0.37517 z"
         style="font-style:normal;font-variant:normal;font-weight:normal;font-stretch:normal;font-size:3.17499995px;line-height:0.69999999;font-family:'Roboto Condensed';-inkscape-font-specification:'Roboto Condensed, ';text-align:center;letter-spacing:0px;word-spacing:0px;text-anchor:middle;fill:#ffffff;fill-opacity:1;stroke-width:0.26458332"
         id="path834"
         inkscape:connector-curvature="0" />
      <path
         d="m 28.111981,261.6019 q -0.06666,0.12402 -0.170533,0.19068 -0.103869,0.0667 -0.238745,0.0667 -0.227893,0 -0.355017,-0.17519 -0.127124,-0.17518 -0.127124,-0.54415 v -0.99064 h 0.313159 v 0.99374 q 0,0.25735 0.06046,0.36587 0.06201,0.10697 0.184485,0.10697 0.116272,0 0.193786,-0.0543 0.07906,-0.0543 0.125574,-0.15503 v -1.25729 h 0.31471 v 1.67742 h -0.280604 z"
         style="font-style:normal;font-variant:normal;font-weight:normal;font-stretch:normal;font-size:3.17499995px;line-height:0.69999999;font-family:'Roboto Condensed';-inkscape-font-specification:'Roboto Condensed, ';text-align:center;letter-spacing:0px;word-spacing:0px;text-anchor:middle;fill:#ffffff;fill-opacity:1;stroke-width:0.26458332"
         id="path836"
         inkscape:connector-curvature="0" />
      <path
         d="m 28.711944,260.92132 q 0,-0.36122 0.147278,-0.58136 0.148828,-0.22169 0.412378,-0.22169 0.127124,0 0.223242,0.0605 0.09612,0.0589 0.164331,0.17208 l 0.02325,-0.20154 h 0.271302 v 1.66967 q 0,0.32246 -0.172083,0.50384 -0.170532,0.18139 -0.47749,0.18139 -0.10542,0 -0.226343,-0.0326 -0.119372,-0.0326 -0.21394,-0.0884 l 0.06666,-0.23565 q 0.07906,0.0481 0.173633,0.0744 0.09457,0.0279 0.196887,0.0279 0.172083,0 0.254248,-0.11007 0.08372,-0.11007 0.08372,-0.32246 v -0.15193 q -0.06666,0.0961 -0.15968,0.14573 -0.09147,0.0481 -0.21084,0.0481 -0.261999,0 -0.409277,-0.19999 -0.147278,-0.20154 -0.147278,-0.53175 z m 0.314709,0.20619 q 0,0.22324 0.07752,0.35657 0.07751,0.13177 0.243396,0.13177 0.102319,0 0.173633,-0.0527 0.07286,-0.0527 0.117822,-0.14883 v -0.83561 q -0.04651,-0.0992 -0.117822,-0.15657 -0.07131,-0.0589 -0.170532,-0.0589 -0.164331,0 -0.244947,0.15503 -0.07906,0.15503 -0.07906,0.40308 z"
         style="font-style:normal;font-variant:normal;font-weight:normal;font-stretch:normal;font-size:3.17499995px;line-height:0.69999999;font-family:'Roboto Condensed';-inkscape-font-specification:'Roboto Condensed, ';text-align:center;letter-spacing:0px;word-spacing:0px;text-anchor:middle;fill:#ffffff;fill-opacity:1;stroke-width:0.26458332"
         id="path838"
         inkscape:connector-curvature="0" />
      <path
         d="m 30.625005,260.37407 q 0.06976,-0.12093 0.172083,-0.18759 0.102319,-0.0682 0.227893,-0.0682 0.226343,0 0.351916,0.16743 0.125574,0.16743 0.125574,0.5147 v 1.02629 h -0.314709 v -1.02939 q 0,-0.231 -0.06821,-0.33177 -0.06666,-0.10232 -0.199988,-0.10232 -0.09612,0 -0.172082,0.0558 -0.07441,0.0543 -0.122474,0.15038 v 1.25729 h -0.314709 v -2.41846 h 0.314709 z"
         style="font-style:normal;font-variant:normal;font-weight:normal;font-stretch:normal;font-size:3.17499995px;line-height:0.69999999;font-family:'Roboto Condensed';-inkscape-font-specification:'Roboto Condensed, ';text-align:center;letter-spacing:0px;word-spacing:0px;text-anchor:middle;fill:#ffffff;fill-opacity:1;stroke-width:0.26458332"
         id="path840"
         inkscape:connector-curvature="0" />
      <path
         d="m 32.260564,259.73224 v 0.41703 h 0.262 v 0.2248 h -0.262 v 0.99838 q 0,0.13023 0.03876,0.18604 0.03876,0.0543 0.100769,0.0543 0.03721,0 0.06821,-0.005 0.03256,-0.005 0.07596,-0.0139 l 0.03256,0.21704 q -0.05271,0.0217 -0.119372,0.0341 -0.06511,0.014 -0.134876,0.014 -0.178284,0 -0.277502,-0.11628 -0.09767,-0.11782 -0.09767,-0.37052 v -0.99838 h -0.218591 v -0.2248 h 0.218591 v -0.41703 z"
         style="font-style:normal;font-variant:normal;font-weight:normal;font-stretch:normal;font-size:3.17499995px;line-height:0.69999999;font-family:'Roboto Condensed';-inkscape-font-specification:'Roboto Condensed, ';text-align:center;letter-spacing:0px;word-spacing:0px;text-anchor:middle;fill:#ffffff;fill-opacity:1;stroke-width:0.26458332"
         id="path842"
         inkscape:connector-curvature="0" />
      <path
         d="m 33.92868,259.73224 v 0.41703 h 0.262 v 0.2248 h -0.262 v 0.99838 q 0,0.13023 0.03876,0.18604 0.03876,0.0543 0.100769,0.0543 0.03721,0 0.06821,-0.005 0.03256,-0.005 0.07597,-0.0139 l 0.03256,0.21704 q -0.05271,0.0217 -0.119373,0.0341 -0.06511,0.014 -0.134875,0.014 -0.178284,0 -0.277503,-0.11628 -0.09767,-0.11782 -0.09767,-0.37052 v -0.99838 H 33.39693 v -0.2248 h 0.218591 v -0.41703 z"
         style="font-style:normal;font-variant:normal;font-weight:normal;font-stretch:normal;font-size:3.17499995px;line-height:0.69999999;font-family:'Roboto Condensed';-inkscape-font-specification:'Roboto Condensed, ';text-align:center;letter-spacing:0px;word-spacing:0px;text-anchor:middle;fill:#ffffff;fill-opacity:1;stroke-width:0.26458332"
         id="path844"
         inkscape:connector-curvature="0" />
      <path
         d="m 34.407721,260.88256 q 0,-0.33331 0.173633,-0.5488 0.175183,-0.21549 0.47904,-0.21549 0.302307,0 0.47749,0.21549 0.175183,0.21394 0.175183,0.5488 v 0.21394 q 0,0.33642 -0.175183,0.55036 -0.173633,0.21239 -0.47594,0.21239 -0.305407,0 -0.48059,-0.21239 -0.173633,-0.21394 -0.173633,-0.55036 z m 0.314709,0.21394 q 0,0.22945 0.08372,0.37672 0.08372,0.14728 0.255798,0.14728 0.167432,0 0.251148,-0.14728 0.08527,-0.14727 0.08527,-0.37672 v -0.21394 q 0,-0.22634 -0.08527,-0.37362 -0.08372,-0.14883 -0.252698,-0.14883 -0.170532,0 -0.254248,0.14728 -0.08372,0.14728 -0.08372,0.37517 z"
         style="font-style:normal;font-variant:normal;font-weight:normal;font-stretch:normal;font-size:3.17499995px;line-height:0.69999999;font-family:'Roboto Condensed';-inkscape-font-specification:'Roboto Condensed, ';text-align:center;letter-spacing:0px;word-spacing:0px;text-anchor:middle;fill:#ffffff;fill-opacity:1;stroke-width:0.26458332"
         id="path846"
         inkscape:connector-curvature="0" />
      <path
         d="m 37.179644,261.24843 0.02325,0.11007 h 0.0093 l 0.322461,-1.20923 h 0.342615 l -0.587561,1.93787 q -0.05891,0.17363 -0.15968,0.29456 -0.100769,0.12247 -0.289905,0.12247 -0.03876,0 -0.08372,-0.009 -0.04341,-0.008 -0.08682,-0.0186 l 0.03411,-0.23254 q 0.01705,0.003 0.04651,0.006 0.02946,0.003 0.04651,0.003 0.09147,0 0.144177,-0.0791 0.05426,-0.0775 0.08372,-0.18449 l 0.05581,-0.17053 -0.517797,-1.66967 h 0.341064 z"
         style="font-style:normal;font-variant:normal;font-weight:normal;font-stretch:normal;font-size:3.17499995px;line-height:0.69999999;font-family:'Roboto Condensed';-inkscape-font-specification:'Roboto Condensed, ';text-align:center;letter-spacing:0px;word-spacing:0px;text-anchor:middle;fill:#ffffff;fill-opacity:1;stroke-width:0.26458332"
         id="path848"
         inkscape:connector-curvature="0" />
      <path
         d="m 38.0044,260.88256 q 0,-0.33331 0.173633,-0.5488 0.175183,-0.21549 0.479041,-0.21549 0.302307,0 0.47749,0.21549 0.175183,0.21394 0.175183,0.5488 v 0.21394 q 0,0.33642 -0.175183,0.55036 -0.173633,0.21239 -0.47594,0.21239 -0.305408,0 -0.480591,-0.21239 Q 38.0044,261.43292 38.0044,261.0965 Z m 0.31471,0.21394 q 0,0.22945 0.08372,0.37672 0.08372,0.14728 0.255798,0.14728 0.167432,0 0.251147,-0.14728 0.08527,-0.14727 0.08527,-0.37672 v -0.21394 q 0,-0.22634 -0.08527,-0.37362 -0.08371,-0.14883 -0.252697,-0.14883 -0.170532,0 -0.254248,0.14728 -0.08372,0.14728 -0.08372,0.37517 z"
         style="font-style:normal;font-variant:normal;font-weight:normal;font-stretch:normal;font-size:3.17499995px;line-height:0.69999999;font-family:'Roboto Condensed';-inkscape-font-specification:'Roboto Condensed, ';text-align:center;letter-spacing:0px;word-spacing:0px;text-anchor:middle;fill:#ffffff;fill-opacity:1;stroke-width:0.26458332"
         id="path850"
         inkscape:connector-curvature="0" />
      <path
         d="m 40.495722,261.6019 q -0.06666,0.12402 -0.170533,0.19068 -0.103869,0.0667 -0.238745,0.0667 -0.227893,0 -0.355017,-0.17519 -0.127124,-0.17518 -0.127124,-0.54415 v -0.99064 h 0.313159 v 0.99374 q 0,0.25735 0.06046,0.36587 0.06201,0.10697 0.184485,0.10697 0.116272,0 0.193786,-0.0543 0.07906,-0.0543 0.125574,-0.15503 v -1.25729 h 0.314709 v 1.67742 h -0.280603 z"
         style="font-style:normal;font-variant:normal;font-weight:normal;font-stretch:normal;font-size:3.17499995px;line-height:0.69999999;font-family:'Roboto Condensed';-inkscape-font-specification:'Roboto Condensed, ';text-align:center;letter-spacing:0px;word-spacing:0px;text-anchor:middle;fill:#ffffff;fill-opacity:1;stroke-width:0.26458332"
         id="path852"
         inkscape:connector-curvature="0" />
      <path
         d="m 43.090912,261.12751 q 0,0.33331 -0.144178,0.5333 -0.144177,0.19844 -0.406176,0.19844 -0.131775,0 -0.230994,-0.0574 -0.09767,-0.0589 -0.164331,-0.17209 l -0.02325,0.19689 h -0.272852 v -2.41846 h 0.314709 v 0.91778 q 0.06511,-0.10077 0.15813,-0.15348 0.09302,-0.0543 0.215491,-0.0543 0.2651,0 0.409277,0.21394 0.144178,0.21239 0.144178,0.56741 z m -0.31316,-0.22789 q 0,-0.24185 -0.07751,-0.38913 -0.07596,-0.14728 -0.241846,-0.14728 -0.10542,0 -0.179834,0.0636 -0.07286,0.062 -0.114722,0.16743 v 0.80615 q 0.04186,0.10232 0.116272,0.15968 0.07441,0.0558 0.181385,0.0558 0.165881,0 0.240295,-0.13177 0.07596,-0.13178 0.07596,-0.35657 z"
         style="font-style:normal;font-variant:normal;font-weight:normal;font-stretch:normal;font-size:3.17499995px;line-height:0.69999999;font-family:'Roboto Condensed';-inkscape-font-specification:'Roboto Condensed, ';text-align:center;letter-spacing:0px;word-spacing:0px;text-anchor:middle;fill:#ffffff;fill-opacity:1;stroke-width:0.26458332"
         id="path854"
         inkscape:connector-curvature="0" />
      <path
         d="m 43.845904,261.24843 0.02325,0.11007 h 0.0093 l 0.322461,-1.20923 h 0.342615 l -0.587561,1.93787 q -0.05891,0.17363 -0.15968,0.29456 -0.100769,0.12247 -0.289905,0.12247 -0.03876,0 -0.08372,-0.009 -0.04341,-0.008 -0.08682,-0.0186 l 0.03411,-0.23254 q 0.01705,0.003 0.04651,0.006 0.02945,0.003 0.04651,0.003 0.09147,0 0.144177,-0.0791 0.05426,-0.0775 0.08372,-0.18449 l 0.05581,-0.17053 -0.517798,-1.66967 h 0.341065 z"
         style="font-style:normal;font-variant:normal;font-weight:normal;font-stretch:normal;font-size:3.17499995px;line-height:0.69999999;font-family:'Roboto Condensed';-inkscape-font-specification:'Roboto Condensed, ';text-align:center;letter-spacing:0px;word-spacing:0px;text-anchor:middle;fill:#ffffff;fill-opacity:1;stroke-width:0.26458332"
         id="path856"
         inkscape:connector-curvature="0" />
    </g>
    <g
       aria-label="


© Copyright 2019 Nitrux Latinoamericana S.C."
       style="font-style:normal;font-variant:normal;font-weight:normal;font-stretch:normal;font-size:3.17499995px;line-height:0%;font-family:'Roboto Condensed';-inkscape-font-specification:'Roboto Condensed, ';text-align:start;letter-spacing:0px;word-spacing:0px;text-anchor:start;display:inline;opacity:1;fill:#ffffff;fill-opacity:1;stroke:none;stroke-width:0.26458332"
       id="text1627"
       transform="translate(0,5.8208336)">
      <path
         d="m 6.997765,281.07158 0.00465,0.009 q 0.00465,0.23254 -0.1147217,0.35501 -0.1193726,0.12248 -0.3317627,0.12248 -0.2185913,0 -0.3472656,-0.16434 -0.1286743,-0.16588 -0.1286743,-0.43563 v -0.18448 q 0,-0.2682 0.1286743,-0.43408 0.1286743,-0.16589 0.3472656,-0.16589 0.2123901,0 0.3317627,0.12403 0.1209228,0.12247 0.116272,0.35346 l -0.00465,0.009 H 6.8117298 q 0,-0.15813 -0.065112,-0.23255 -0.065112,-0.0744 -0.190686,-0.0744 -0.1333252,0 -0.206189,0.11627 -0.071313,0.11627 -0.071313,0.30231 v 0.18603 q 0,0.19069 0.071313,0.30696 0.072864,0.11472 0.206189,0.11472 0.127124,0 0.190686,-0.0729 0.063562,-0.0729 0.063562,-0.23565 z m -1.2386841,-0.20619 q 0,0.42013 0.2371948,0.70849 0.2387452,0.28835 0.576709,0.28835 0.3379639,0 0.5751587,-0.28835 0.2387451,-0.28836 0.2387451,-0.70849 0,-0.41547 -0.2387451,-0.70228 -0.2371948,-0.2868 -0.5751587,-0.2868 -0.3395141,0 -0.576709,0.2868 -0.2371948,0.28681 -0.2371948,0.70228 z m -0.1581299,0 q 0,-0.48834 0.2821534,-0.8232 0.2837036,-0.33486 0.6898803,-0.33486 0.4046265,0 0.6883301,0.33486 0.2852539,0.33486 0.2852539,0.8232 0,0.4899 -0.2852539,0.82631 -0.2852539,0.33641 -0.6883301,0.33641 -0.4046264,0 -0.68833,-0.33641 -0.2837037,-0.33641 -0.2837037,-0.82631 z"
         style="font-style:normal;font-variant:normal;font-weight:normal;font-stretch:normal;font-size:3.17499995px;line-height:1.25;font-family:'Roboto Condensed';-inkscape-font-specification:'Roboto Condensed, ';text-align:center;letter-spacing:0px;text-anchor:middle;fill:#ffffff;fill-opacity:1;stroke-width:0.26458332"
         id="path859"
         inkscape:connector-curvature="0" />
      <path
         d="m 9.9448719,281.31033 0.00465,0.009 q -0.00155,0.33796 -0.179834,0.524 -0.1782837,0.18448 -0.5038452,0.18448 -0.3317627,0 -0.5302002,-0.22324 -0.1984375,-0.22324 -0.1984375,-0.62322 v -0.62631 q 0,-0.39998 0.1953369,-0.62477 0.1968872,-0.22479 0.523999,-0.22479 0.3317627,0 0.5100464,0.18138 0.1782837,0.18138 0.1829346,0.5302 l -0.00465,0.009 H 9.6472156 q -0.00465,-0.2465 -0.097668,-0.36277 -0.093018,-0.11627 -0.2930054,-0.11627 -0.1937866,0 -0.3007568,0.15658 -0.1069702,0.15658 -0.1069702,0.44648 v 0.63097 q 0,0.29456 0.1085205,0.45114 0.1100708,0.15658 0.3085083,0.15658 0.1953369,0 0.2852539,-0.11317 0.091467,-0.11472 0.094568,-0.36587 z"
         style="font-style:normal;font-variant:normal;font-weight:normal;font-stretch:normal;font-size:3.17499995px;line-height:1.25;font-family:'Roboto Condensed';-inkscape-font-specification:'Roboto Condensed, ';text-align:center;letter-spacing:0px;text-anchor:middle;fill:#ffffff;fill-opacity:1;stroke-width:0.26458332"
         id="path861"
         inkscape:connector-curvature="0" />
      <path
         d="m 10.189818,281.05143 q 0,-0.33331 0.173633,-0.5488 0.175183,-0.21549 0.47904,-0.21549 0.302307,0 0.477491,0.21549 0.175183,0.21394 0.175183,0.5488 v 0.21394 q 0,0.33641 -0.175183,0.55035 -0.173633,0.21239 -0.47594,0.21239 -0.305408,0 -0.480591,-0.21239 -0.173633,-0.21394 -0.173633,-0.55035 z m 0.31471,0.21394 q 0,0.22944 0.08371,0.37672 0.08372,0.14728 0.255799,0.14728 0.167431,0 0.251147,-0.14728 0.08527,-0.14728 0.08527,-0.37672 v -0.21394 q 0,-0.22634 -0.08527,-0.37362 -0.08372,-0.14883 -0.252698,-0.14883 -0.170532,0 -0.254248,0.14728 -0.08371,0.14728 -0.08371,0.37517 z"
         style="font-style:normal;font-variant:normal;font-weight:normal;font-stretch:normal;font-size:3.17499995px;line-height:1.25;font-family:'Roboto Condensed';-inkscape-font-specification:'Roboto Condensed, ';text-align:center;letter-spacing:0px;text-anchor:middle;fill:#ffffff;fill-opacity:1;stroke-width:0.26458332"
         id="path863"
         inkscape:connector-curvature="0" />
      <path
         d="m 13.036156,281.29638 q 0,0.33176 -0.145727,0.53175 -0.145728,0.19998 -0.404627,0.19998 -0.122473,0 -0.21549,-0.0481 -0.09302,-0.0481 -0.159681,-0.14108 v 0.8015 h -0.314709 v -2.32234 h 0.280603 l 0.02015,0.19224 q 0.06666,-0.10697 0.162781,-0.16433 0.09612,-0.0589 0.223242,-0.0589 0.261999,0 0.407727,0.22014 0.145727,0.22014 0.145727,0.58291 z m -0.314709,-0.20619 q 0,-0.2465 -0.08217,-0.40153 -0.08061,-0.15658 -0.241845,-0.15658 -0.100769,0 -0.172083,0.0574 -0.07131,0.0574 -0.114722,0.15658 v 0.84801 q 0.04186,0.0946 0.113172,0.14573 0.07131,0.0496 0.175183,0.0496 0.162781,0 0.241846,-0.13488 0.08061,-0.13642 0.08061,-0.35811 z"
         style="font-style:normal;font-variant:normal;font-weight:normal;font-stretch:normal;font-size:3.17499995px;line-height:1.25;font-family:'Roboto Condensed';-inkscape-font-specification:'Roboto Condensed, ';text-align:center;letter-spacing:0px;text-anchor:middle;fill:#ffffff;fill-opacity:1;stroke-width:0.26458332"
         id="path865"
         inkscape:connector-curvature="0" />
      <path
         d="m 13.792699,281.4173 0.02325,0.11007 h 0.0093 l 0.322461,-1.20923 h 0.342615 l -0.587561,1.93787 q -0.05891,0.17363 -0.15968,0.29455 -0.10077,0.12248 -0.289905,0.12248 -0.03876,0 -0.08372,-0.009 -0.04341,-0.008 -0.08682,-0.0186 l 0.03411,-0.23254 q 0.01705,0.003 0.04651,0.006 0.02946,0.003 0.04651,0.003 0.09147,0 0.144177,-0.0791 0.05426,-0.0775 0.08372,-0.18448 l 0.05581,-0.17053 -0.517798,-1.66967 h 0.341065 z"
         style="font-style:normal;font-variant:normal;font-weight:normal;font-stretch:normal;font-size:3.17499995px;line-height:1.25;font-family:'Roboto Condensed';-inkscape-font-specification:'Roboto Condensed, ';text-align:center;letter-spacing:0px;text-anchor:middle;fill:#ffffff;fill-opacity:1;stroke-width:0.26458332"
         id="path867"
         inkscape:connector-curvature="0" />
      <path
         d="m 15.426707,280.58324 -0.147277,-0.008 q -0.09767,0 -0.162781,0.0589 -0.06356,0.0589 -0.09767,0.16588 v 1.19528 H 14.70427 v -1.67742 h 0.286804 l 0.02325,0.2527 q 0.05271,-0.13333 0.137976,-0.20774 0.08527,-0.076 0.196887,-0.076 0.03101,0 0.06356,0.006 0.03256,0.005 0.05116,0.0124 z"
         style="font-style:normal;font-variant:normal;font-weight:normal;font-stretch:normal;font-size:3.17499995px;line-height:1.25;font-family:'Roboto Condensed';-inkscape-font-specification:'Roboto Condensed, ';text-align:center;letter-spacing:0px;text-anchor:middle;fill:#ffffff;fill-opacity:1;stroke-width:0.26458332"
         id="path869"
         inkscape:connector-curvature="0" />
      <path
         d="m 16.01892,281.99556 h -0.314709 v -1.67742 h 0.314709 z m 0,-2.1177 h -0.314709 v -0.30076 h 0.314709 z"
         style="font-style:normal;font-variant:normal;font-weight:normal;font-stretch:normal;font-size:3.17499995px;line-height:1.25;font-family:'Roboto Condensed';-inkscape-font-specification:'Roboto Condensed, ';text-align:center;letter-spacing:0px;text-anchor:middle;fill:#ffffff;fill-opacity:1;stroke-width:0.26458332"
         id="path871"
         inkscape:connector-curvature="0" />
      <path
         d="m 16.344481,281.09019 q 0,-0.36122 0.147278,-0.58136 0.148828,-0.22169 0.412378,-0.22169 0.127124,0 0.223242,0.0605 0.09612,0.0589 0.164331,0.17208 l 0.02326,-0.20154 h 0.271301 v 1.66967 q 0,0.32246 -0.172083,0.50384 -0.170532,0.18139 -0.47749,0.18139 -0.10542,0 -0.226343,-0.0326 -0.119372,-0.0326 -0.21394,-0.0884 l 0.06666,-0.23564 q 0.07906,0.0481 0.173632,0.0744 0.09457,0.0279 0.196888,0.0279 0.172082,0 0.254248,-0.11007 0.08372,-0.11007 0.08372,-0.32246 v -0.15193 q -0.06666,0.0961 -0.159681,0.14573 -0.09147,0.0481 -0.21084,0.0481 -0.261999,0 -0.409277,-0.19998 -0.147278,-0.20154 -0.147278,-0.53175 z m 0.31471,0.20619 q 0,0.22324 0.07751,0.35656 0.07751,0.13178 0.243396,0.13178 0.10232,0 0.173633,-0.0527 0.07286,-0.0527 0.117823,-0.14883 v -0.83561 q -0.04651,-0.0992 -0.117823,-0.15658 -0.07131,-0.0589 -0.170532,-0.0589 -0.164331,0 -0.244946,0.15503 -0.07906,0.15503 -0.07906,0.40308 z"
         style="font-style:normal;font-variant:normal;font-weight:normal;font-stretch:normal;font-size:3.17499995px;line-height:1.25;font-family:'Roboto Condensed';-inkscape-font-specification:'Roboto Condensed, ';text-align:center;letter-spacing:0px;text-anchor:middle;fill:#ffffff;fill-opacity:1;stroke-width:0.26458332"
         id="path873"
         inkscape:connector-curvature="0" />
      <path
         d="m 18.257543,280.54293 q 0.06976,-0.12092 0.172083,-0.18758 0.102319,-0.0682 0.227893,-0.0682 0.226343,0 0.351916,0.16743 0.125574,0.16743 0.125574,0.51469 v 1.0263 H 18.8203 v -1.0294 q 0,-0.23099 -0.06821,-0.33176 -0.06666,-0.10232 -0.199988,-0.10232 -0.09612,0 -0.172083,0.0558 -0.07441,0.0543 -0.122473,0.15038 v 1.25729 h -0.314709 v -2.41846 h 0.314709 z"
         style="font-style:normal;font-variant:normal;font-weight:normal;font-stretch:normal;font-size:3.17499995px;line-height:1.25;font-family:'Roboto Condensed';-inkscape-font-specification:'Roboto Condensed, ';text-align:center;letter-spacing:0px;text-anchor:middle;fill:#ffffff;fill-opacity:1;stroke-width:0.26458332"
         id="path875"
         inkscape:connector-curvature="0" />
      <path
         d="m 19.893102,279.90111 v 0.41703 h 0.261999 v 0.22479 h -0.261999 v 0.99839 q 0,0.13023 0.03876,0.18604 0.03876,0.0543 0.100769,0.0543 0.03721,0 0.06821,-0.005 0.03256,-0.005 0.07596,-0.014 l 0.03256,0.21705 q -0.05271,0.0217 -0.119372,0.0341 -0.06511,0.014 -0.134876,0.014 -0.178283,0 -0.277502,-0.11627 -0.09767,-0.11782 -0.09767,-0.37052 v -0.99839 h -0.218592 v -0.22479 h 0.218592 v -0.41703 z"
         style="font-style:normal;font-variant:normal;font-weight:normal;font-stretch:normal;font-size:3.17499995px;line-height:1.25;font-family:'Roboto Condensed';-inkscape-font-specification:'Roboto Condensed, ';text-align:center;letter-spacing:0px;text-anchor:middle;fill:#ffffff;fill-opacity:1;stroke-width:0.26458332"
         id="path877"
         inkscape:connector-curvature="0" />
      <path
         d="m 22.403026,281.99556 h -1.266589 v -0.20929 l 0.620117,-0.81546 q 0.150379,-0.21239 0.20929,-0.35036 0.06046,-0.13953 0.06046,-0.26975 0,-0.17829 -0.07596,-0.28991 -0.07441,-0.11317 -0.206189,-0.11317 -0.165881,0 -0.249597,0.12402 -0.08217,0.12403 -0.08217,0.33797 h -0.302307 l -0.0031,-0.008 q -0.0062,-0.29301 0.165881,-0.49455 0.172082,-0.20153 0.471289,-0.20153 0.275952,0 0.435632,0.17518 0.161231,0.17363 0.161231,0.46044 0,0.19378 -0.09922,0.38292 -0.09767,0.18758 -0.285254,0.42013 l -0.426331,0.61236 h 0.872815 z"
         style="font-style:normal;font-variant:normal;font-weight:normal;font-stretch:normal;font-size:3.17499995px;line-height:1.25;font-family:'Roboto Condensed';-inkscape-font-specification:'Roboto Condensed, ';text-align:center;letter-spacing:0px;text-anchor:middle;fill:#ffffff;fill-opacity:1;stroke-width:0.26458332"
         id="path879"
         inkscape:connector-curvature="0" />
      <path
         d="m 23.933165,281.12274 q 0,0.43874 -0.168982,0.67283 -0.167432,0.23254 -0.455786,0.23254 -0.289905,0 -0.460437,-0.23409 -0.168982,-0.23409 -0.168982,-0.67128 v -0.51004 q 0,-0.43564 0.168982,-0.67128 0.168981,-0.23564 0.457336,-0.23564 0.288354,0 0.457336,0.23564 0.170533,0.23564 0.170533,0.67128 z m -0.31316,-0.555 q 0,-0.30696 -0.08216,-0.46354 -0.08061,-0.15658 -0.232544,-0.15658 -0.151929,0 -0.232544,0.15813 -0.07906,0.15658 -0.07906,0.46199 v 0.59841 q 0,0.30696 0.08061,0.46509 0.08217,0.15813 0.234095,0.15813 0.150378,0 0.230993,-0.15658 0.08061,-0.15813 0.08061,-0.46664 z"
         style="font-style:normal;font-variant:normal;font-weight:normal;font-stretch:normal;font-size:3.17499995px;line-height:1.25;font-family:'Roboto Condensed';-inkscape-font-specification:'Roboto Condensed, ';text-align:center;letter-spacing:0px;text-anchor:middle;fill:#ffffff;fill-opacity:1;stroke-width:0.26458332"
         id="path881"
         inkscape:connector-curvature="0" />
      <path
         d="m 25.06333,281.99866 h -0.313159 v -1.94562 l -0.441834,0.0295 v -0.20309 l 0.754993,-0.14263 z"
         style="font-style:normal;font-variant:normal;font-weight:normal;font-stretch:normal;font-size:3.17499995px;line-height:1.25;font-family:'Roboto Condensed';-inkscape-font-specification:'Roboto Condensed, ';text-align:center;letter-spacing:0px;text-anchor:middle;fill:#ffffff;fill-opacity:1;stroke-width:0.26458332"
         id="path883"
         inkscape:connector-curvature="0" />
      <path
         d="m 26.323718,281.78937 q 0.172082,0 0.277502,-0.15813 0.106971,-0.15968 0.106971,-0.45889 v -0.11007 q -0.06511,0.11007 -0.159681,0.16743 -0.09457,0.0558 -0.206189,0.0558 -0.269751,0 -0.42788,-0.20774 -0.15658,-0.20928 -0.15658,-0.56585 0,-0.34572 0.176733,-0.57516 0.178284,-0.23099 0.440284,-0.23099 0.293005,0 0.469738,0.22324 0.178284,0.22324 0.178284,0.64337 v 0.58911 q 0,0.41238 -0.195337,0.64027 -0.195337,0.22634 -0.503845,0.22634 -0.09612,0 -0.201538,-0.0248 -0.10542,-0.0233 -0.195337,-0.0682 l 0.04186,-0.22945 q 0.08216,0.045 0.165881,0.0651 0.08527,0.0186 0.189136,0.0186 z m 0.05116,-0.73949 q 0.120922,0 0.204638,-0.0682 0.08527,-0.0698 0.128675,-0.17829 v -0.262 q 0,-0.29145 -0.08682,-0.44183 -0.08682,-0.15193 -0.241846,-0.15193 -0.131774,0 -0.220141,0.16278 -0.08682,0.16278 -0.08682,0.40153 0,0.23874 0.07906,0.38912 0.08062,0.14883 0.223243,0.14883 z"
         style="font-style:normal;font-variant:normal;font-weight:normal;font-stretch:normal;font-size:3.17499995px;line-height:1.25;font-family:'Roboto Condensed';-inkscape-font-specification:'Roboto Condensed, ';text-align:center;letter-spacing:0px;text-anchor:middle;fill:#ffffff;fill-opacity:1;stroke-width:0.26458332"
         id="path885"
         inkscape:connector-curvature="0" />
      <path
         d="m 29.593285,281.99556 h -0.313159 l -0.855762,-1.67897 -0.0093,0.003 v 1.67587 h -0.314709 v -2.25723 h 0.314709 l 0.855762,1.67432 0.0093,-0.003 v -1.67122 h 0.313159 z"
         style="font-style:normal;font-variant:normal;font-weight:normal;font-stretch:normal;font-size:3.17499995px;line-height:1.25;font-family:'Roboto Condensed';-inkscape-font-specification:'Roboto Condensed, ';text-align:center;letter-spacing:0px;text-anchor:middle;fill:#ffffff;fill-opacity:1;stroke-width:0.26458332"
         id="path887"
         inkscape:connector-curvature="0" />
      <path
         d="m 30.331224,281.99556 h -0.31471 v -1.67742 h 0.31471 z m 0,-2.1177 h -0.31471 v -0.30076 h 0.31471 z"
         style="font-style:normal;font-variant:normal;font-weight:normal;font-stretch:normal;font-size:3.17499995px;line-height:1.25;font-family:'Roboto Condensed';-inkscape-font-specification:'Roboto Condensed, ';text-align:center;letter-spacing:0px;text-anchor:middle;fill:#ffffff;fill-opacity:1;stroke-width:0.26458332"
         id="path889"
         inkscape:connector-curvature="0" />
      <path
         d="m 31.117224,279.90111 v 0.41703 h 0.261999 v 0.22479 h -0.261999 v 0.99839 q 0,0.13023 0.03876,0.18604 0.03876,0.0543 0.100769,0.0543 0.03721,0 0.06821,-0.005 0.03256,-0.005 0.07596,-0.014 l 0.03256,0.21705 q -0.05271,0.0217 -0.119373,0.0341 -0.06511,0.014 -0.134876,0.014 -0.178283,0 -0.277502,-0.11627 -0.09767,-0.11782 -0.09767,-0.37052 v -0.99839 H 30.58547 v -0.22479 h 0.218592 v -0.41703 z"
         style="font-style:normal;font-variant:normal;font-weight:normal;font-stretch:normal;font-size:3.17499995px;line-height:1.25;font-family:'Roboto Condensed';-inkscape-font-specification:'Roboto Condensed, ';text-align:center;letter-spacing:0px;text-anchor:middle;fill:#ffffff;fill-opacity:1;stroke-width:0.26458332"
         id="path891"
         inkscape:connector-curvature="0" />
      <path
         d="m 32.411718,280.58324 -0.147278,-0.008 q -0.09767,0 -0.162781,0.0589 -0.06356,0.0589 -0.09767,0.16588 v 1.19528 h -0.31471 v -1.67742 h 0.286804 l 0.02325,0.2527 q 0.05271,-0.13333 0.137976,-0.20774 0.08527,-0.076 0.196887,-0.076 0.03101,0 0.06356,0.006 0.03256,0.005 0.05116,0.0124 z"
         style="font-style:normal;font-variant:normal;font-weight:normal;font-stretch:normal;font-size:3.17499995px;line-height:1.25;font-family:'Roboto Condensed';-inkscape-font-specification:'Roboto Condensed, ';text-align:center;letter-spacing:0px;text-anchor:middle;fill:#ffffff;fill-opacity:1;stroke-width:0.26458332"
         id="path893"
         inkscape:connector-curvature="0" />
      <path
         d="m 33.554284,281.77077 q -0.06666,0.12402 -0.170532,0.19068 -0.10387,0.0667 -0.238745,0.0667 -0.227893,0 -0.355017,-0.17518 -0.127124,-0.17518 -0.127124,-0.54415 v -0.99064 h 0.313159 v 0.99374 q 0,0.25735 0.06046,0.36587 0.06201,0.10697 0.184485,0.10697 0.116272,0 0.193787,-0.0543 0.07906,-0.0543 0.125574,-0.15503 v -1.25729 h 0.314709 v 1.67742 h -0.280603 z"
         style="font-style:normal;font-variant:normal;font-weight:normal;font-stretch:normal;font-size:3.17499995px;line-height:1.25;font-family:'Roboto Condensed';-inkscape-font-specification:'Roboto Condensed, ';text-align:center;letter-spacing:0px;text-anchor:middle;fill:#ffffff;fill-opacity:1;stroke-width:0.26458332"
         id="path895"
         inkscape:connector-curvature="0" />
      <path
         d="m 34.715452,280.93051 h 0.0093 l 0.26355,-0.61237 h 0.359668 l -0.444934,0.82786 0.460437,0.84956 h -0.358118 l -0.274402,-0.63252 h -0.0093 l -0.275952,0.63252 h -0.358117 l 0.458886,-0.84956 -0.444934,-0.82786 h 0.356568 z"
         style="font-style:normal;font-variant:normal;font-weight:normal;font-stretch:normal;font-size:3.17499995px;line-height:1.25;font-family:'Roboto Condensed';-inkscape-font-specification:'Roboto Condensed, ';text-align:center;letter-spacing:0px;text-anchor:middle;fill:#ffffff;fill-opacity:1;stroke-width:0.26458332"
         id="path897"
         inkscape:connector-curvature="0" />
      <path
         d="m 36.644017,281.75681 h 0.880566 v 0.23875 h -1.195276 v -2.25723 h 0.31471 z"
         style="font-style:normal;font-variant:normal;font-weight:normal;font-stretch:normal;font-size:3.17499995px;line-height:1.25;font-family:'Roboto Condensed';-inkscape-font-specification:'Roboto Condensed, ';text-align:center;letter-spacing:0px;text-anchor:middle;fill:#ffffff;fill-opacity:1;stroke-width:0.26458332"
         id="path899"
         inkscape:connector-curvature="0" />
      <path
         d="m 38.620641,281.99556 q -0.01705,-0.0574 -0.0279,-0.11162 -0.01085,-0.0558 -0.01395,-0.11162 -0.06976,0.11317 -0.175183,0.18448 -0.10542,0.0713 -0.234094,0.0713 -0.21239,0 -0.333313,-0.13332 -0.119373,-0.13488 -0.119373,-0.35967 0,-0.24029 0.162781,-0.37672 0.164331,-0.13798 0.460437,-0.13798 h 0.234094 v -0.17208 q 0,-0.15348 -0.06821,-0.23874 -0.06821,-0.0868 -0.193786,-0.0868 -0.113172,0 -0.182935,0.0775 -0.06821,0.0775 -0.06821,0.19379 l -0.299206,-0.002 -0.0047,-0.009 q -0.0078,-0.19379 0.155029,-0.34417 0.162781,-0.15192 0.420129,-0.15192 0.248047,0 0.401526,0.14727 0.15503,0.14573 0.15503,0.41703 v 0.77825 q 0,0.0977 0.01085,0.18913 0.0124,0.0899 0.03876,0.17674 z m -0.379822,-0.20929 q 0.110071,0 0.199988,-0.0651 0.09147,-0.0651 0.133325,-0.16278 v -0.34262 h -0.238745 q -0.144177,0 -0.224792,0.093 -0.07907,0.0915 -0.07907,0.22479 0,0.11317 0.05426,0.18294 0.05426,0.0698 0.155029,0.0698 z"
         style="font-style:normal;font-variant:normal;font-weight:normal;font-stretch:normal;font-size:3.17499995px;line-height:1.25;font-family:'Roboto Condensed';-inkscape-font-specification:'Roboto Condensed, ';text-align:center;letter-spacing:0px;text-anchor:middle;fill:#ffffff;fill-opacity:1;stroke-width:0.26458332"
         id="path901"
         inkscape:connector-curvature="0" />
      <path
         d="m 39.650034,279.90111 v 0.41703 h 0.261999 v 0.22479 h -0.261999 v 0.99839 q 0,0.13023 0.03876,0.18604 0.03876,0.0543 0.100769,0.0543 0.03721,0 0.06821,-0.005 0.03256,-0.005 0.07596,-0.014 l 0.03256,0.21705 q -0.05271,0.0217 -0.119373,0.0341 -0.06511,0.014 -0.134875,0.014 -0.178284,0 -0.277503,-0.11627 -0.09767,-0.11782 -0.09767,-0.37052 v -0.99839 h -0.218591 v -0.22479 h 0.218591 v -0.41703 z"
         style="font-style:normal;font-variant:normal;font-weight:normal;font-stretch:normal;font-size:3.17499995px;line-height:1.25;font-family:'Roboto Condensed';-inkscape-font-specification:'Roboto Condensed, ';text-align:center;letter-spacing:0px;text-anchor:middle;fill:#ffffff;fill-opacity:1;stroke-width:0.26458332"
         id="path903"
         inkscape:connector-curvature="0" />
      <path
         d="m 40.556958,281.99556 h -0.314709 v -1.67742 h 0.314709 z m 0,-2.1177 h -0.314709 v -0.30076 h 0.314709 z"
         style="font-style:normal;font-variant:normal;font-weight:normal;font-stretch:normal;font-size:3.17499995px;line-height:1.25;font-family:'Roboto Condensed';-inkscape-font-specification:'Roboto Condensed, ';text-align:center;letter-spacing:0px;text-anchor:middle;fill:#ffffff;fill-opacity:1;stroke-width:0.26458332"
         id="path905"
         inkscape:connector-curvature="0" />
      <path
         d="m 41.226683,280.31814 0.01705,0.24805 q 0.06976,-0.13178 0.176733,-0.20464 0.106971,-0.0744 0.241846,-0.0744 0.220142,0 0.342615,0.16278 0.122473,0.16278 0.122473,0.50539 v 1.04025 h -0.31471 v -1.03715 q 0,-0.23409 -0.06666,-0.33021 -0.06666,-0.0961 -0.201538,-0.0961 -0.09612,0 -0.170532,0.0605 -0.07442,0.0589 -0.120923,0.16123 v 1.24179 h -0.31471 v -1.67742 z"
         style="font-style:normal;font-variant:normal;font-weight:normal;font-stretch:normal;font-size:3.17499995px;line-height:1.25;font-family:'Roboto Condensed';-inkscape-font-specification:'Roboto Condensed, ';text-align:center;letter-spacing:0px;text-anchor:middle;fill:#ffffff;fill-opacity:1;stroke-width:0.26458332"
         id="path907"
         inkscape:connector-curvature="0" />
      <path
         d="m 42.423511,281.05143 q 0,-0.33331 0.173633,-0.5488 0.175183,-0.21549 0.47904,-0.21549 0.302308,0 0.477491,0.21549 0.175183,0.21394 0.175183,0.5488 v 0.21394 q 0,0.33641 -0.175183,0.55035 -0.173633,0.21239 -0.47594,0.21239 -0.305408,0 -0.480591,-0.21239 -0.173633,-0.21394 -0.173633,-0.55035 z m 0.31471,0.21394 q 0,0.22944 0.08371,0.37672 0.08372,0.14728 0.255799,0.14728 0.167431,0 0.251147,-0.14728 0.08527,-0.14728 0.08527,-0.37672 v -0.21394 q 0,-0.22634 -0.08527,-0.37362 -0.08372,-0.14883 -0.252698,-0.14883 -0.170532,0 -0.254248,0.14728 -0.08371,0.14728 -0.08371,0.37517 z"
         style="font-style:normal;font-variant:normal;font-weight:normal;font-stretch:normal;font-size:3.17499995px;line-height:1.25;font-family:'Roboto Condensed';-inkscape-font-specification:'Roboto Condensed, ';text-align:center;letter-spacing:0px;text-anchor:middle;fill:#ffffff;fill-opacity:1;stroke-width:0.26458332"
         id="path909"
         inkscape:connector-curvature="0" />
      <path
         d="m 44.883825,281.99556 q -0.01705,-0.0574 -0.02791,-0.11162 -0.01085,-0.0558 -0.01395,-0.11162 -0.06976,0.11317 -0.175183,0.18448 -0.10542,0.0713 -0.234095,0.0713 -0.21239,0 -0.333313,-0.13332 -0.119372,-0.13488 -0.119372,-0.35967 0,-0.24029 0.162781,-0.37672 0.164331,-0.13798 0.460437,-0.13798 h 0.234094 v -0.17208 q 0,-0.15348 -0.06821,-0.23874 -0.06821,-0.0868 -0.193787,-0.0868 -0.113171,0 -0.182934,0.0775 -0.06821,0.0775 -0.06821,0.19379 l -0.299207,-0.002 -0.0047,-0.009 q -0.0078,-0.19379 0.15503,-0.34417 0.16278,-0.15192 0.420129,-0.15192 0.248047,0 0.401526,0.14727 0.155029,0.14573 0.155029,0.41703 v 0.77825 q 0,0.0977 0.01085,0.18913 0.0124,0.0899 0.03876,0.17674 z m -0.379822,-0.20929 q 0.110071,0 0.199988,-0.0651 0.09147,-0.0651 0.133325,-0.16278 v -0.34262 h -0.238745 q -0.144178,0 -0.224793,0.093 -0.07906,0.0915 -0.07906,0.22479 0,0.11317 0.05426,0.18294 0.05426,0.0698 0.155029,0.0698 z"
         style="font-style:normal;font-variant:normal;font-weight:normal;font-stretch:normal;font-size:3.17499995px;line-height:1.25;font-family:'Roboto Condensed';-inkscape-font-specification:'Roboto Condensed, ';text-align:center;letter-spacing:0px;text-anchor:middle;fill:#ffffff;fill-opacity:1;stroke-width:0.26458332"
         id="path911"
         inkscape:connector-curvature="0" />
      <path
         d="m 45.798496,280.31814 0.01705,0.22789 q 0.06821,-0.12402 0.173633,-0.19068 0.10542,-0.0682 0.246497,-0.0682 0.137976,0 0.237194,0.0775 0.09922,0.076 0.150379,0.23254 0.06511,-0.14572 0.173633,-0.22789 0.10852,-0.0822 0.257348,-0.0822 0.213941,0 0.336414,0.17673 0.124023,0.17518 0.124023,0.53485 v 0.99684 h -0.314709 v -0.99839 q 0,-0.25735 -0.06356,-0.36122 -0.06356,-0.10387 -0.187586,-0.10387 -0.10697,0 -0.179834,0.0822 -0.07131,0.0806 -0.103869,0.21549 -0.0016,-0.0124 0.0016,0.0403 0.0031,0.0512 0.0031,0.0744 v 1.0511 h -0.31316 v -0.99839 q 0,-0.2496 -0.06511,-0.35657 -0.06511,-0.10852 -0.189136,-0.10852 -0.09922,0 -0.168982,0.0558 -0.06976,0.0543 -0.10852,0.15193 v 1.25574 h -0.313159 v -1.67742 z"
         style="font-style:normal;font-variant:normal;font-weight:normal;font-stretch:normal;font-size:3.17499995px;line-height:1.25;font-family:'Roboto Condensed';-inkscape-font-specification:'Roboto Condensed, ';text-align:center;letter-spacing:0px;text-anchor:middle;fill:#ffffff;fill-opacity:1;stroke-width:0.26458332"
         id="path913"
         inkscape:connector-curvature="0" />
      <path
         d="m 48.480504,282.02811 q -0.299206,0 -0.47904,-0.20774 -0.179834,-0.20773 -0.179834,-0.53175 v -0.24494 q 0,-0.32866 0.175183,-0.5426 0.176733,-0.21394 0.448035,-0.21394 0.285253,0 0.438732,0.19533 0.153479,0.19379 0.153479,0.52245 v 0.21704 h -0.90227 v 0.0667 q 0,0.21705 0.09457,0.35967 0.09612,0.14108 0.271301,0.14108 0.130225,0 0.223242,-0.0403 0.09302,-0.0419 0.176734,-0.12092 l 0.09922,0.19534 q -0.07906,0.0899 -0.21239,0.14727 -0.133325,0.0574 -0.306958,0.0574 z m -0.03566,-1.49913 q -0.136426,0 -0.218592,0.13333 -0.08216,0.13177 -0.09147,0.33486 h 0.590662 v -0.0636 q 0,-0.17829 -0.07131,-0.29146 -0.07131,-0.11317 -0.209289,-0.11317 z"
         style="font-style:normal;font-variant:normal;font-weight:normal;font-stretch:normal;font-size:3.17499995px;line-height:1.25;font-family:'Roboto Condensed';-inkscape-font-specification:'Roboto Condensed, ';text-align:center;letter-spacing:0px;text-anchor:middle;fill:#ffffff;fill-opacity:1;stroke-width:0.26458332"
         id="path915"
         inkscape:connector-curvature="0" />
      <path
         d="m 50.04165,280.58324 -0.147278,-0.008 q -0.09767,0 -0.162781,0.0589 -0.06356,0.0589 -0.09767,0.16588 v 1.19528 h -0.314709 v -1.67742 h 0.286804 l 0.02325,0.2527 q 0.05271,-0.13333 0.137976,-0.20774 0.08527,-0.076 0.196887,-0.076 0.03101,0 0.06356,0.006 0.03256,0.005 0.05116,0.0124 z"
         style="font-style:normal;font-variant:normal;font-weight:normal;font-stretch:normal;font-size:3.17499995px;line-height:1.25;font-family:'Roboto Condensed';-inkscape-font-specification:'Roboto Condensed, ';text-align:center;letter-spacing:0px;text-anchor:middle;fill:#ffffff;fill-opacity:1;stroke-width:0.26458332"
         id="path917"
         inkscape:connector-curvature="0" />
      <path
         d="m 50.633863,281.99556 h -0.31471 v -1.67742 h 0.31471 z m 0,-2.1177 h -0.31471 v -0.30076 h 0.31471 z"
         style="font-style:normal;font-variant:normal;font-weight:normal;font-stretch:normal;font-size:3.17499995px;line-height:1.25;font-family:'Roboto Condensed';-inkscape-font-specification:'Roboto Condensed, ';text-align:center;letter-spacing:0px;text-anchor:middle;fill:#ffffff;fill-opacity:1;stroke-width:0.26458332"
         id="path919"
         inkscape:connector-curvature="0" />
      <path
         d="m 51.601243,281.78937 q 0.117823,0 0.198438,-0.0899 0.08062,-0.0915 0.08062,-0.24339 h 0.282153 l 0.0031,0.009 q 0.0062,0.23719 -0.161231,0.39997 -0.165881,0.16278 -0.403076,0.16278 -0.313159,0 -0.480591,-0.21239 -0.165881,-0.21239 -0.165881,-0.54105 v -0.23099 q 0,-0.32866 0.165881,-0.5426 0.167432,-0.21394 0.479041,-0.21394 0.254248,0 0.412378,0.17053 0.15968,0.16898 0.155029,0.43873 l -0.0047,0.009 h -0.282153 q 0,-0.16743 -0.07751,-0.2713 -0.07596,-0.10542 -0.203088,-0.10542 -0.179834,0 -0.255798,0.14573 -0.07441,0.14573 -0.07441,0.36897 v 0.23099 q 0,0.22634 0.07441,0.37052 0.07596,0.14418 0.257348,0.14418 z"
         style="font-style:normal;font-variant:normal;font-weight:normal;font-stretch:normal;font-size:3.17499995px;line-height:1.25;font-family:'Roboto Condensed';-inkscape-font-specification:'Roboto Condensed, ';text-align:center;letter-spacing:0px;text-anchor:middle;fill:#ffffff;fill-opacity:1;stroke-width:0.26458332"
         id="path921"
         inkscape:connector-curvature="0" />
      <path
         d="m 53.298814,281.99556 q -0.01705,-0.0574 -0.0279,-0.11162 -0.01085,-0.0558 -0.01395,-0.11162 -0.06976,0.11317 -0.175183,0.18448 -0.10542,0.0713 -0.234094,0.0713 -0.21239,0 -0.333313,-0.13332 -0.119373,-0.13488 -0.119373,-0.35967 0,-0.24029 0.162781,-0.37672 0.164331,-0.13798 0.460437,-0.13798 h 0.234094 v -0.17208 q 0,-0.15348 -0.06821,-0.23874 -0.06821,-0.0868 -0.193786,-0.0868 -0.113172,0 -0.182935,0.0775 -0.06821,0.0775 -0.06821,0.19379 l -0.299206,-0.002 -0.0047,-0.009 q -0.0078,-0.19379 0.155029,-0.34417 0.162781,-0.15192 0.42013,-0.15192 0.248046,0 0.401525,0.14727 0.15503,0.14573 0.15503,0.41703 v 0.77825 q 0,0.0977 0.01085,0.18913 0.0124,0.0899 0.03876,0.17674 z m -0.379822,-0.20929 q 0.110071,0 0.199988,-0.0651 0.09147,-0.0651 0.133325,-0.16278 v -0.34262 H 53.01356 q -0.144177,0 -0.224792,0.093 -0.07906,0.0915 -0.07906,0.22479 0,0.11317 0.05426,0.18294 0.05426,0.0698 0.155029,0.0698 z"
         style="font-style:normal;font-variant:normal;font-weight:normal;font-stretch:normal;font-size:3.17499995px;line-height:1.25;font-family:'Roboto Condensed';-inkscape-font-specification:'Roboto Condensed, ';text-align:center;letter-spacing:0px;text-anchor:middle;fill:#ffffff;fill-opacity:1;stroke-width:0.26458332"
         id="path923"
         inkscape:connector-curvature="0" />
      <path
         d="m 54.211939,280.31814 0.01705,0.24805 q 0.06976,-0.13178 0.176734,-0.20464 0.10697,-0.0744 0.241845,-0.0744 0.220142,0 0.342615,0.16278 0.122473,0.16278 0.122473,0.50539 v 1.04025 H 54.79795 v -1.03715 q 0,-0.23409 -0.06666,-0.33021 -0.06666,-0.0961 -0.201538,-0.0961 -0.09612,0 -0.170532,0.0605 -0.07441,0.0589 -0.120923,0.16123 v 1.24179 h -0.31471 v -1.67742 z"
         style="font-style:normal;font-variant:normal;font-weight:normal;font-stretch:normal;font-size:3.17499995px;line-height:1.25;font-family:'Roboto Condensed';-inkscape-font-specification:'Roboto Condensed, ';text-align:center;letter-spacing:0px;text-anchor:middle;fill:#ffffff;fill-opacity:1;stroke-width:0.26458332"
         id="path925"
         inkscape:connector-curvature="0" />
      <path
         d="m 56.324987,281.99556 q -0.01705,-0.0574 -0.02791,-0.11162 -0.01085,-0.0558 -0.01395,-0.11162 -0.06976,0.11317 -0.175183,0.18448 -0.10542,0.0713 -0.234095,0.0713 -0.21239,0 -0.333313,-0.13332 -0.119372,-0.13488 -0.119372,-0.35967 0,-0.24029 0.162781,-0.37672 0.164331,-0.13798 0.460437,-0.13798 h 0.234094 v -0.17208 q 0,-0.15348 -0.06821,-0.23874 -0.06821,-0.0868 -0.193787,-0.0868 -0.113171,0 -0.182934,0.0775 -0.06821,0.0775 -0.06821,0.19379 l -0.299207,-0.002 -0.0046,-0.009 q -0.0078,-0.19379 0.155029,-0.34417 0.162781,-0.15192 0.420129,-0.15192 0.248047,0 0.401526,0.14727 0.155029,0.14573 0.155029,0.41703 v 0.77825 q 0,0.0977 0.01085,0.18913 0.0124,0.0899 0.03876,0.17674 z m -0.379822,-0.20929 q 0.110071,0 0.199988,-0.0651 0.09147,-0.0651 0.133325,-0.16278 v -0.34262 h -0.238745 q -0.144177,0 -0.224793,0.093 -0.07906,0.0915 -0.07906,0.22479 0,0.11317 0.05426,0.18294 0.05426,0.0698 0.155029,0.0698 z"
         style="font-style:normal;font-variant:normal;font-weight:normal;font-stretch:normal;font-size:3.17499995px;line-height:1.25;font-family:'Roboto Condensed';-inkscape-font-specification:'Roboto Condensed, ';text-align:center;letter-spacing:0px;text-anchor:middle;fill:#ffffff;fill-opacity:1;stroke-width:0.26458332"
         id="path927"
         inkscape:connector-curvature="0" />
      <path
         d="m 58.718641,281.42815 q 0,-0.15968 -0.08992,-0.262 -0.08992,-0.10232 -0.31471,-0.17983 -0.322461,-0.0977 -0.494543,-0.25425 -0.172083,-0.15813 -0.172083,-0.41703 0,-0.26665 0.190686,-0.43718 0.192236,-0.17208 0.492993,-0.17208 0.313159,0 0.503846,0.19843 0.192236,0.19689 0.186035,0.47594 l -0.0031,0.009 H 58.71554 q 0,-0.19688 -0.102319,-0.31936 -0.100769,-0.12402 -0.285254,-0.12402 -0.175183,0 -0.271302,0.10387 -0.09457,0.10232 -0.09457,0.262 0,0.14418 0.102319,0.2434 0.102319,0.0977 0.337964,0.17828 0.308508,0.0961 0.469739,0.262 0.16123,0.16588 0.16123,0.42943 0,0.2775 -0.190686,0.44028 -0.190686,0.16278 -0.500745,0.16278 -0.302307,0 -0.52865,-0.17828 -0.224792,-0.17983 -0.217041,-0.5054 l 0.0031,-0.009 h 0.302307 q 0,0.23255 0.120923,0.34417 0.122473,0.11162 0.31936,0.11162 0.176734,0 0.275953,-0.0977 0.100769,-0.0992 0.100769,-0.2651 z"
         style="font-style:normal;font-variant:normal;font-weight:normal;font-stretch:normal;font-size:3.17499995px;line-height:1.25;font-family:'Roboto Condensed';-inkscape-font-specification:'Roboto Condensed, ';text-align:center;letter-spacing:0px;text-anchor:middle;fill:#ffffff;fill-opacity:1;stroke-width:0.26458332"
         id="path929"
         inkscape:connector-curvature="0" />
      <path
         d="m 59.682922,281.99556 h -0.31626 v -0.31471 h 0.31626 z"
         style="font-style:normal;font-variant:normal;font-weight:normal;font-stretch:normal;font-size:3.17499995px;line-height:1.25;font-family:'Roboto Condensed';-inkscape-font-specification:'Roboto Condensed, ';text-align:center;letter-spacing:0px;text-anchor:middle;fill:#ffffff;fill-opacity:1;stroke-width:0.26458332"
         id="path931"
         inkscape:connector-curvature="0" />
      <path
         d="m 61.476609,281.31033 0.0047,0.009 q -0.0016,0.33796 -0.179834,0.524 -0.178283,0.18448 -0.503845,0.18448 -0.331763,0 -0.5302,-0.22324 -0.198438,-0.22324 -0.198438,-0.62322 v -0.62631 q 0,-0.39998 0.195337,-0.62477 0.196888,-0.22479 0.523999,-0.22479 0.331763,0 0.510047,0.18138 0.178283,0.18138 0.182934,0.5302 l -0.0047,0.009 h -0.297656 q -0.0047,-0.2465 -0.09767,-0.36277 -0.09302,-0.11627 -0.293006,-0.11627 -0.193786,0 -0.300756,0.15658 -0.106971,0.15658 -0.106971,0.44648 v 0.63097 q 0,0.29456 0.108521,0.45114 0.110071,0.15658 0.308508,0.15658 0.195337,0 0.285254,-0.11317 0.09147,-0.11472 0.09457,-0.36587 z"
         style="font-style:normal;font-variant:normal;font-weight:normal;font-stretch:normal;font-size:3.17499995px;line-height:1.25;font-family:'Roboto Condensed';-inkscape-font-specification:'Roboto Condensed, ';text-align:center;letter-spacing:0px;text-anchor:middle;fill:#ffffff;fill-opacity:1;stroke-width:0.26458332"
         id="path933"
         inkscape:connector-curvature="0" />
      <path
         d="m 62.132385,281.99556 h -0.31626 v -0.31471 h 0.31626 z"
         style="font-style:normal;font-variant:normal;font-weight:normal;font-stretch:normal;font-size:3.17499995px;line-height:1.25;font-family:'Roboto Condensed';-inkscape-font-specification:'Roboto Condensed, ';text-align:center;letter-spacing:0px;text-anchor:middle;fill:#ffffff;fill-opacity:1;stroke-width:0.26458332"
         id="path935"
         inkscape:connector-curvature="0" />
    </g>
    <g
       transform="matrix(0,0.26458333,-0.26458333,0,308.33541,236.93959)"
       id="layer1-6"
       inkscape:label="Capa 1">
      <path
         id="rect1507"
         transform="translate(-25,997.36218)"
         d="M 40,1 A 7,17 0 0 0 33.042969,16.296875 7.0000076,7 0 0 0 28,23 v 2 h 5.628906 a 7,17 0 0 0 1.419922,5 H 33.914062 A 12,12 0 0 1 29,32.609375 v 2.054687 0.701172 A 13,13 0 0 1 38.632812,45 h 2.0625 0.667969 a 13,13 0 0 1 9.632813,-9.634766 V 34.664062 32.609375 A 12,12 0 0 1 46.082031,30 h -1.128906 a 7,17 0 0 0 1.416016,-5 H 52 V 23 A 7.0000076,7 0 0 0 46.964844,16.298828 7,17 0 0 0 40,1 Z m 0,2 a 5,15 0 0 1 4.818359,11 H 42 a 1.0002038,1.0002038 0 0 0 0,-0.002 1.0002038,1.0002038 0 0 0 -0.201172,-0.597656 l -3,-4.0000004 A 1.0001,1.0001 0 0 0 37.931641,8.9902344 1.0001,1.0001 0 0 0 37.199219,10.601562 L 39.748047,14 h -4.5625 A 5,15 0 0 1 40,3 Z m -0.966797,1.9882812 a 1.0001,1.0001 0 0 0 -0.09961,0.00195 1.0001,1.0001 0 0 0 -0.734375,1.6113281 l 3,3.9999997 A 1.0009848,1.0009848 0 1 0 42.80078,9.4003874 l -3,-4 A 1.0001,1.0001 0 0 0 39.033203,4.9882812 Z M 35.050781,16 h 9.898438 A 5,15 0 0 1 45,18 5,15 0 0 1 41,32.679688 V 30 h -2 v 2.697266 A 5,15 0 0 1 35,18 5,15 0 0 1 35.050781,16 Z M 40,17 a 3,3 0 0 0 -3,3 3,3 0 0 0 3,3 3,3 0 0 0 3,-3 3,3 0 0 0 -3,-3 z m -6.992188,1.423828 A 7,17 0 0 0 33.310547,23 H 30 a 5.0000076,5.0000019 0 0 1 3.007812,-4.576172 z m 13.986329,0.002 A 5.0000076,5.0000019 0 0 1 50,23 h -3.318359 a 7,17 0 0 0 0.3125,-4.574219 z M 40,19 a 1,1 0 0 1 1,1 1,1 0 0 1 -1,1 1,1 0 0 1 -1,-1 1,1 0 0 1 1,-1 z M 35.578125,31.167969 A 7,17 0 0 0 39,34.808594 V 36 h 2 v -1.195312 a 7,17 0 0 0 3.417969,-3.632813 14,14 0 0 0 4.361328,2.791016 15,15 0 0 0 -8.78125,8.708984 15,15 0 0 0 -8.78125,-8.708984 14,14 0 0 0 4.361328,-2.794922 z M 47,44 c -0.554,0 -1,0.446 -1,1 v 10 c 0,0.554 0.446,1 1,1 0.554,0 1,-0.446 1,-1 V 45 c 0,-0.554 -0.446,-1 -1,-1 z m -16,7 c -0.554,0 -1,0.446 -1,1 v 6 c 0,0.554 0.446,1 1,1 0.554,0 1,-0.446 1,-1 v -6 c 0,-0.554 -0.446,-1 -1,-1 z m 8,5 c -0.554,0 -1,0.446 -1,1 v 21 c 0,0.554 0.446,1 1,1 0.554,0 1,-0.446 1,-1 V 57 c 0,-0.554 -0.446,-1 -1,-1 z"
         style="opacity:1;vector-effect:none;fill:#fafafa;fill-opacity:1;stroke:none;stroke-width:1;stroke-linecap:butt;stroke-linejoin:miter;stroke-miterlimit:4;stroke-dasharray:none;stroke-dashoffset:0;stroke-opacity:1"
         inkscape:connector-curvature="0" />
    </g>
  </g>
</svg>
