<?xml version="1.0" encoding="UTF-8" standalone="no"?>
<svg
   width="256"
   height="256"
   viewBox="0 0 67.733332 67.733335"
   version="1.1"
   id="svg8"
   sodipodi:docname="calamares_install_image.svg"
   inkscape:version="1.1.1 (3bf5ae0, 2021-09-20)"
   inkscape:export-filename="/home/uri/bitmap.png"
   inkscape:export-xdpi="96"
   inkscape:export-ydpi="96"
   xmlns:inkscape="http://www.inkscape.org/namespaces/inkscape"
   xmlns:sodipodi="http://sodipodi.sourceforge.net/DTD/sodipodi-0.dtd"
   xmlns="http://www.w3.org/2000/svg"
   xmlns:svg="http://www.w3.org/2000/svg"
   xmlns:rdf="http://www.w3.org/1999/02/22-rdf-syntax-ns#"
   xmlns:cc="http://creativecommons.org/ns#"
   xmlns:dc="http://purl.org/dc/elements/1.1/">
  <defs
     id="defs2" />
  <sodipodi:namedview
     id="base"
     pagecolor="#ffffff"
     bordercolor="#666666"
     borderopacity="1.0"
     inkscape:pageopacity="0.0"
     inkscape:pageshadow="2"
     inkscape:zoom="5.6568543"
     inkscape:cx="153.53056"
     inkscape:cy="285.40597"
     inkscape:document-units="px"
     inkscape:current-layer="layer1"
     showgrid="true"
     units="px"
     inkscape:showpageshadow="false"
     borderlayer="true"
     showguides="true"
     inkscape:guide-bbox="true"
     inkscape:window-width="2560"
     inkscape:window-height="1414"
     inkscape:window-x="0"
     inkscape:window-y="26"
     inkscape:window-maximized="1"
     inkscape:pagecheckerboard="true"
     inkscape:document-rotation="0">
    <inkscape:grid
       type="xygrid"
       id="grid4485"
       empspacing="5" />
    <sodipodi:guide
       position="67.733334,67.733334"
       orientation="1,0"
       id="guide4487"
       inkscape:locked="false"
       inkscape:label="2560"
       inkscape:color="rgb(0,0,255)" />
    <sodipodi:guide
       position="0,0"
       orientation="1,0"
       id="guide4489"
       inkscape:locked="false"
       inkscape:label="1000"
       inkscape:color="rgb(0,0,255)" />
    <sodipodi:guide
       position="67.733333,33.866667"
       orientation="0,1"
       id="guide851"
       inkscape:locked="false" />
    <sodipodi:guide
       position="33.866666,67.733335"
       orientation="1,0"
       id="guide853"
       inkscape:locked="false" />
  </sodipodi:namedview>
  <metadata
     id="metadata5">
    <rdf:RDF>
      <cc:Work
         rdf:about="">
        <dc:format>image/svg+xml</dc:format>
        <dc:type
           rdf:resource="http://purl.org/dc/dcmitype/StillImage" />
      </cc:Work>
    </rdf:RDF>
  </metadata>
  <g
     inkscape:label="Capa 1"
     inkscape:groupmode="layer"
     id="layer1"
     transform="translate(0,-229.26664)">
    <rect
       style="opacity:1;fill:#2b2c31;fill-opacity:1;stroke:none;stroke-width:0.0611029;stroke-linecap:round;stroke-linejoin:round;stroke-miterlimit:4;stroke-dasharray:none;stroke-opacity:1"
       id="rect912"
       width="67.73333"
       height="67.73333"
       x="0"
       y="229.26665" />
    <g
       style="display:inline"
       id="g1165"
       transform="matrix(0.26458333,0,0,0.26458333,144.99169,85.33332)">
      <rect
         style="display:inline;opacity:1;fill:none;fill-opacity:1;stroke:none;stroke-width:1.46059346;stroke-linecap:round;stroke-linejoin:round;stroke-miterlimit:4;stroke-dasharray:none;stroke-dashoffset:0;stroke-opacity:1"
         id="rect2129"
         width="80"
         height="46.000004"
         x="-448"
         y="645"
         inkscape:export-filename="/home/uri/nitrux_logo@2x.png"
         inkscape:export-xdpi="192"
         inkscape:export-ydpi="192" />
      <path
         id="path2131"
         d="m -397,651 v 2 26.93555 0.0644 4 l 2,1 26,-16 v -1 l -4.2832,-2.59961 L -389,655.85742 v 1.94336 l 14.20898,8.52344 L -396,679.32227 V 653.59961 653 651.60742 Z m -29,11 -5,6 6,7 v -12 z"
         style="display:inline;opacity:1;fill:#fafafa;fill-opacity:1;fill-rule:evenodd;stroke:none;stroke-width:1px;stroke-linecap:butt;stroke-linejoin:miter;stroke-opacity:1"
         inkscape:connector-curvature="0" />
      <path
         inkscape:export-ydpi="192"
         inkscape:export-xdpi="192"
         inkscape:export-filename="/home/uri/nitrux_logo@2x.png"
         inkscape:connector-curvature="0"
         style="display:inline;opacity:1;fill:#fafafa;fill-opacity:1;stroke:none"
         d="m -447.00002,658.00001 v 1 2 18 h 1 v -13 c 0,-0.71378 0.66889,-0.96495 1.17188,-0.40234 l 9.82812,13.40234 h 1 v -4 -2.5625 l 5,6.5625 h 4 l -8.20117,-10.76562 c -0.16533,-0.20907 -0.16538,-0.54257 0.0801,-0.88672 L -426,658.00001 h -1 l -7,9.1875 -2,2.625 -0.98242,1.28906 z m 2,0 8,10.5 2,-2.625 -6,-7.875 z m 23,0 a 10.5,10.5 0 0 0 -0.69727,0.0352 l -0.96289,1.1582 a 8.499979,9.5 0 0 1 1.66016,-0.19336 8.499979,9.5 0 0 1 2.7168,0.50781 c -1.05624,1.00103 -1.7168,2.41535 -1.7168,3.99219 0,3.047 2.453,5.5 5.5,5.5 h 0.39844 1.57812 a 8.499979,9.5 0 0 1 -4.78125,8.04688 c -0.91918,-0.72808 -1.55229,-1.8059 -1.69531,-3.04688 h -1 c 0.12964,1.37699 0.74891,2.60511 1.68164,3.50195 a 8.499979,9.5 0 0 1 -2.68164,0.49805 8.499979,9.5 0 0 1 -0.45117,-0.0254 l 0.86133,1.00391 a 10.5,10.5 0 0 0 3.33593,-0.69336 c 0.78076,0.44552 1.6773,0.71484 2.65235,0.71484 h 5 c 3.047,0 5.5,-2.453 5.5,-5.5 0,-3.047 -2.453,-5.5 -5.5,-5.5 h -0.39844 -0.52539 a 10.5,10.5 0 0 0 -5.47852,-8.72461 c 0.47225,-0.16744 0.97286,-0.27539 1.50391,-0.27539 h 5 c 2.31527,0 4.13986,1.75626 4.39844,4 h 1 c -0.26343,-2.79815 -2.52911,-5 -5.39844,-5 h -5 c -0.98577,0 -1.9066,0.2604 -2.70508,0.71094 a 10.5,10.5 0 0 0 -3.79492,-0.71094 z m 3.72656,1.97461 a 8.499979,9.5 0 0 1 4.75782,8.02539 h -1.58594 -0.39844 c -2.493,0 -4.5,-2.007 -4.5,-4.5 0,-1.43938 0.68122,-2.70278 1.72656,-3.52539 z m -12.15039,7.33398 -0.57617,0.69141 0.50195,0.58594 a 8.499979,9.5 0 0 1 -0.002,-0.0859 8.499979,9.5 0 0 1 0.0762,-1.19141 z m 18.90235,1.69141 h 0.52148 0.39844 c 2.493,0 4.5,2.007 4.5,4.5 0,2.493 -2.007,4.5 -4.5,4.5 h -5 c -0.5181,0 -1.00599,-0.0981 -1.46289,-0.25977 a 10.5,10.5 0 0 0 5.54297,-8.74023 z m -24.10547,1.78516 c 0.33968,-0.025 0.62695,0.24749 0.62695,0.71484 v 2.19141 l -1.48047,-1.93555 0.71289,-0.9375 c 0.047,-0.0144 0.095,-0.0299 0.14063,-0.0332 z"
         id="path2133" />
    </g>
    <path
       id="path1159"
       d="m 41.539586,278.74385 v 8.99584 h 8.995833 v -8.99584 z m -17.991667,1.85209 v 0.26458 0.52917 4.7625 h 0.264583 v -3.96875 l 2.910417,3.96875 h 0.264584 v -1.05833 -4.23334 l 0.529166,0.52917 v 4.7625 h 0.79375 v -4.7625 h 0.529167 c 0.146576,0 0.264583,0.118 0.264583,0.26458 v 4.49792 h 0.79375 v -4.49792 c 0,-0.14658 0.118004,-0.26458 0.264584,-0.26458 h 0.529166 v 1.5875 0.52916 2.64584 h 0.264584 v -2.64584 c 0,-0.14658 0.118004,-0.26458 0.264583,-0.26458 h 0.692981 l 0.100769,0.13229 v 0.92605 c 0,1.02605 0.826026,1.85208 1.852083,1.85208 0.08519,0 0.168556,-0.008 0.250632,-0.0185 l 0.01402,0.0185 h 1.058333 l -0.256831,-0.33695 c 0.475639,-0.33456 0.785998,-0.88693 0.785998,-1.51513 V 281.985 l 1.058333,1.38906 0.529167,-0.69453 -1.5875,-2.08359 h -1.058333 l 0.79375,1.04179 v 0.0164 2.64584 c 0,0.54194 -0.269426,1.01811 -0.681593,1.30431 l -1.800419,-2.36265 h 0.629936 c 0.732885,0 1.322909,-0.59002 1.322909,-1.32292 0,-0.7329 -0.590024,-1.32292 -1.322909,-1.32292 h -0.79375 -1.852083 -0.264583 -0.79375 -0.79375 -0.79375 -0.79375 -0.79375 v 4.1517 z m 11.641656,5.55625 h 0.264584 l 1.719791,-2.25725 1.719803,2.25725 h 1.058333 l -2.248958,-2.95178 1.984375,-2.60448 h -0.264584 l -1.852083,2.43086 -0.529177,0.69453 z m 7.93751,-5.55625 2.65049,3.46643 0.259927,-0.34104 0.529167,-0.69454 1.852083,-2.43085 h 0.264583 l -1.884124,2.47321 c -0.06493,0.0911 -0.0649,0.17931 -0.02117,0.23464 l 2.169901,2.8484 h -1.058333 l -1.322917,-1.73633 v 0.678 1.05833 h -0.264583 l -2.600352,-3.54606 c -0.133085,-0.14885 -0.310065,-0.0824 -0.310065,0.10647 v 3.43959 h -0.264583 v -4.7625 -0.52917 z m 0.529167,0 h 1.058333 l 1.5875,2.08359 -0.529166,0.69453 z m 2.479966,3.38272 c -0.01217,0 -0.02487,0.005 -0.0372,0.009 l -0.188622,0.24806 0.391689,0.51212 v -0.57981 c 0,-0.12367 -0.07599,-0.19574 -0.165867,-0.18915 z m -13.327885,0.4372 1.118796,1.46865 c -0.02024,0 -0.04005,0.003 -0.06046,0.003 -0.408022,0 -0.777698,-0.15393 -1.058334,-0.40515 z"
       style="display:inline;opacity:1;fill:#ffffff;fill-opacity:1;stroke:none;stroke-width:0.26458332"
       inkscape:connector-curvature="0"
       inkscape:export-filename="/home/uri/patreon_banner.png"
       inkscape:export-xdpi="96"
       inkscape:export-ydpi="96" />
    <g
       aria-label="brought to you by"
       style="font-style:normal;font-variant:normal;font-weight:normal;font-stretch:normal;font-size:3.17499995px;line-height:0%;font-family:'Roboto Condensed';-inkscape-font-specification:'Roboto Condensed, ';text-align:start;letter-spacing:0px;word-spacing:0px;text-anchor:start;display:inline;opacity:1;fill:#ffffff;fill-opacity:1;stroke:none;stroke-width:0.26458332"
       id="text1449"
       transform="translate(3.1750001,12.700002)">
      <path
         d="m 24.431585,261.12751 q 0,0.33331 -0.144177,0.5333 -0.144177,0.19844 -0.406177,0.19844 -0.131775,0 -0.230994,-0.0574 -0.09767,-0.0589 -0.164331,-0.17209 l -0.02325,0.19689 H 23.1898 v -2.41846 h 0.31471 v 0.91778 q 0.06511,-0.10077 0.15813,-0.15348 0.09302,-0.0543 0.21549,-0.0543 0.265101,0 0.409278,0.21394 0.144177,0.21239 0.144177,0.56741 z m -0.313159,-0.22789 q 0,-0.24185 -0.07751,-0.38913 -0.07596,-0.14728 -0.241845,-0.14728 -0.10542,0 -0.179834,0.0636 -0.07286,0.062 -0.114722,0.16743 v 0.80615 q 0.04186,0.10232 0.116272,0.15968 0.07441,0.0558 0.181384,0.0558 0.165881,0 0.240296,-0.13177 0.07596,-0.13178 0.07596,-0.35657 z"
         style="font-style:normal;font-variant:normal;font-weight:normal;font-stretch:normal;font-size:3.17499995px;line-height:0.69999999;font-family:'Roboto Condensed';-inkscape-font-specification:'Roboto Condensed, ';text-align:center;letter-spacing:0px;word-spacing:0px;text-anchor:middle;fill:#ffffff;fill-opacity:1;stroke-width:0.26458332"
         id="path830"
         inkscape:connector-curvature="0" />
      <path
         d="m 25.456329,260.41437 -0.147278,-0.008 q -0.09767,0 -0.162781,0.0589 -0.06356,0.0589 -0.09767,0.16588 v 1.19528 h -0.31471 v -1.67742 h 0.286804 l 0.02325,0.2527 q 0.05271,-0.13332 0.137976,-0.20774 0.08527,-0.076 0.196887,-0.076 0.03101,0 0.06356,0.006 0.03256,0.005 0.05116,0.0124 z"
         style="font-style:normal;font-variant:normal;font-weight:normal;font-stretch:normal;font-size:3.17499995px;line-height:0.69999999;font-family:'Roboto Condensed';-inkscape-font-specification:'Roboto Condensed, ';text-align:center;letter-spacing:0px;word-spacing:0px;text-anchor:middle;fill:#ffffff;fill-opacity:1;stroke-width:0.26458332"
         id="path832"
         inkscape:connector-curvature="0" />
      <path
         d="m 25.62066,260.88256 q 0,-0.33331 0.173633,-0.5488 0.175183,-0.21549 0.47904,-0.21549 0.302307,0 0.47749,0.21549 0.175183,0.21394 0.175183,0.5488 v 0.21394 q 0,0.33642 -0.175183,0.55036 -0.173633,0.21239 -0.47594,0.21239 -0.305407,0 -0.48059,-0.21239 -0.173633,-0.21394 -0.173633,-0.55036 z m 0.314709,0.21394 q 0,0.22945 0.08372,0.37672 0.08372,0.14728 0.255798,0.14728 0.167432,0 0.251148,-0.14728 0.08527,-0.14727 0.08527,-0.37672 v -0.21394 q 0,-0.22634 -0.08527,-0.37362 -0.08372,-0.14883 -0.252698,-0.14883 -0.170532,0 -0.254248,0.14728 -0.08372,0.14728 -0.08372,0.37517 z"
         style="font-style:normal;font-variant:normal;font-weight:normal;font-stretch:normal;font-size:3.17499995px;line-height:0.69999999;font-family:'Roboto Condensed';-inkscape-font-specification:'Roboto Condensed, ';text-align:center;letter-spacing:0px;word-spacing:0px;text-anchor:middle;fill:#ffffff;fill-opacity:1;stroke-width:0.26458332"
         id="path834"
         inkscape:connector-curvature="0" />
      <path
         d="m 28.111981,261.6019 q -0.06666,0.12402 -0.170533,0.19068 -0.103869,0.0667 -0.238745,0.0667 -0.227893,0 -0.355017,-0.17519 -0.127124,-0.17518 -0.127124,-0.54415 v -0.99064 h 0.313159 v 0.99374 q 0,0.25735 0.06046,0.36587 0.06201,0.10697 0.184485,0.10697 0.116272,0 0.193786,-0.0543 0.07906,-0.0543 0.125574,-0.15503 v -1.25729 h 0.31471 v 1.67742 h -0.280604 z"
         style="font-style:normal;font-variant:normal;font-weight:normal;font-stretch:normal;font-size:3.17499995px;line-height:0.69999999;font-family:'Roboto Condensed';-inkscape-font-specification:'Roboto Condensed, ';text-align:center;letter-spacing:0px;word-spacing:0px;text-anchor:middle;fill:#ffffff;fill-opacity:1;stroke-width:0.26458332"
         id="path836"
         inkscape:connector-curvature="0" />
      <path
         d="m 28.711944,260.92132 q 0,-0.36122 0.147278,-0.58136 0.148828,-0.22169 0.412378,-0.22169 0.127124,0 0.223242,0.0605 0.09612,0.0589 0.164331,0.17208 l 0.02325,-0.20154 h 0.271302 v 1.66967 q 0,0.32246 -0.172083,0.50384 -0.170532,0.18139 -0.47749,0.18139 -0.10542,0 -0.226343,-0.0326 -0.119372,-0.0326 -0.21394,-0.0884 l 0.06666,-0.23565 q 0.07906,0.0481 0.173633,0.0744 0.09457,0.0279 0.196887,0.0279 0.172083,0 0.254248,-0.11007 0.08372,-0.11007 0.08372,-0.32246 v -0.15193 q -0.06666,0.0961 -0.15968,0.14573 -0.09147,0.0481 -0.21084,0.0481 -0.261999,0 -0.409277,-0.19999 -0.147278,-0.20154 -0.147278,-0.53175 z m 0.314709,0.20619 q 0,0.22324 0.07752,0.35657 0.07751,0.13177 0.243396,0.13177 0.102319,0 0.173633,-0.0527 0.07286,-0.0527 0.117822,-0.14883 v -0.83561 q -0.04651,-0.0992 -0.117822,-0.15657 -0.07131,-0.0589 -0.170532,-0.0589 -0.164331,0 -0.244947,0.15503 -0.07906,0.15503 -0.07906,0.40308 z"
         style="font-style:normal;font-variant:normal;font-weight:normal;font-stretch:normal;font-size:3.17499995px;line-height:0.69999999;font-family:'Roboto Condensed';-inkscape-font-specification:'Roboto Condensed, ';text-align:center;letter-spacing:0px;word-spacing:0px;text-anchor:middle;fill:#ffffff;fill-opacity:1;stroke-width:0.26458332"
         id="path838"
         inkscape:connector-curvature="0" />
      <path
         d="m 30.625005,260.37407 q 0.06976,-0.12093 0.172083,-0.18759 0.102319,-0.0682 0.227893,-0.0682 0.226343,0 0.351916,0.16743 0.125574,0.16743 0.125574,0.5147 v 1.02629 h -0.314709 v -1.02939 q 0,-0.231 -0.06821,-0.33177 -0.06666,-0.10232 -0.199988,-0.10232 -0.09612,0 -0.172082,0.0558 -0.07441,0.0543 -0.122474,0.15038 v 1.25729 h -0.314709 v -2.41846 h 0.314709 z"
         style="font-style:normal;font-variant:normal;font-weight:normal;font-stretch:normal;font-size:3.17499995px;line-height:0.69999999;font-family:'Roboto Condensed';-inkscape-font-specification:'Roboto Condensed, ';text-align:center;letter-spacing:0px;word-spacing:0px;text-anchor:middle;fill:#ffffff;fill-opacity:1;stroke-width:0.26458332"
         id="path840"
         inkscape:connector-curvature="0" />
      <path
         d="m 32.260564,259.73224 v 0.41703 h 0.262 v 0.2248 h -0.262 v 0.99838 q 0,0.13023 0.03876,0.18604 0.03876,0.0543 0.100769,0.0543 0.03721,0 0.06821,-0.005 0.03256,-0.005 0.07596,-0.0139 l 0.03256,0.21704 q -0.05271,0.0217 -0.119372,0.0341 -0.06511,0.014 -0.134876,0.014 -0.178284,0 -0.277502,-0.11628 -0.09767,-0.11782 -0.09767,-0.37052 v -0.99838 h -0.218591 v -0.2248 h 0.218591 v -0.41703 z"
         style="font-style:normal;font-variant:normal;font-weight:normal;font-stretch:normal;font-size:3.17499995px;line-height:0.69999999;font-family:'Roboto Condensed';-inkscape-font-specification:'Roboto Condensed, ';text-align:center;letter-spacing:0px;word-spacing:0px;text-anchor:middle;fill:#ffffff;fill-opacity:1;stroke-width:0.26458332"
         id="path842"
         inkscape:connector-curvature="0" />
      <path
         d="m 33.92868,259.73224 v 0.41703 h 0.262 v 0.2248 h -0.262 v 0.99838 q 0,0.13023 0.03876,0.18604 0.03876,0.0543 0.100769,0.0543 0.03721,0 0.06821,-0.005 0.03256,-0.005 0.07597,-0.0139 l 0.03256,0.21704 q -0.05271,0.0217 -0.119373,0.0341 -0.06511,0.014 -0.134875,0.014 -0.178284,0 -0.277503,-0.11628 -0.09767,-0.11782 -0.09767,-0.37052 v -0.99838 H 33.39693 v -0.2248 h 0.218591 v -0.41703 z"
         style="font-style:normal;font-variant:normal;font-weight:normal;font-stretch:normal;font-size:3.17499995px;line-height:0.69999999;font-family:'Roboto Condensed';-inkscape-font-specification:'Roboto Condensed, ';text-align:center;letter-spacing:0px;word-spacing:0px;text-anchor:middle;fill:#ffffff;fill-opacity:1;stroke-width:0.26458332"
         id="path844"
         inkscape:connector-curvature="0" />
      <path
         d="m 34.407721,260.88256 q 0,-0.33331 0.173633,-0.5488 0.175183,-0.21549 0.47904,-0.21549 0.302307,0 0.47749,0.21549 0.175183,0.21394 0.175183,0.5488 v 0.21394 q 0,0.33642 -0.175183,0.55036 -0.173633,0.21239 -0.47594,0.21239 -0.305407,0 -0.48059,-0.21239 -0.173633,-0.21394 -0.173633,-0.55036 z m 0.314709,0.21394 q 0,0.22945 0.08372,0.37672 0.08372,0.14728 0.255798,0.14728 0.167432,0 0.251148,-0.14728 0.08527,-0.14727 0.08527,-0.37672 v -0.21394 q 0,-0.22634 -0.08527,-0.37362 -0.08372,-0.14883 -0.252698,-0.14883 -0.170532,0 -0.254248,0.14728 -0.08372,0.14728 -0.08372,0.37517 z"
         style="font-style:normal;font-variant:normal;font-weight:normal;font-stretch:normal;font-size:3.17499995px;line-height:0.69999999;font-family:'Roboto Condensed';-inkscape-font-specification:'Roboto Condensed, ';text-align:center;letter-spacing:0px;word-spacing:0px;text-anchor:middle;fill:#ffffff;fill-opacity:1;stroke-width:0.26458332"
         id="path846"
         inkscape:connector-curvature="0" />
      <path
         d="m 37.179644,261.24843 0.02325,0.11007 h 0.0093 l 0.322461,-1.20923 h 0.342615 l -0.587561,1.93787 q -0.05891,0.17363 -0.15968,0.29456 -0.100769,0.12247 -0.289905,0.12247 -0.03876,0 -0.08372,-0.009 -0.04341,-0.008 -0.08682,-0.0186 l 0.03411,-0.23254 q 0.01705,0.003 0.04651,0.006 0.02946,0.003 0.04651,0.003 0.09147,0 0.144177,-0.0791 0.05426,-0.0775 0.08372,-0.18449 l 0.05581,-0.17053 -0.517797,-1.66967 h 0.341064 z"
         style="font-style:normal;font-variant:normal;font-weight:normal;font-stretch:normal;font-size:3.17499995px;line-height:0.69999999;font-family:'Roboto Condensed';-inkscape-font-specification:'Roboto Condensed, ';text-align:center;letter-spacing:0px;word-spacing:0px;text-anchor:middle;fill:#ffffff;fill-opacity:1;stroke-width:0.26458332"
         id="path848"
         inkscape:connector-curvature="0" />
      <path
         d="m 38.0044,260.88256 q 0,-0.33331 0.173633,-0.5488 0.175183,-0.21549 0.479041,-0.21549 0.302307,0 0.47749,0.21549 0.175183,0.21394 0.175183,0.5488 v 0.21394 q 0,0.33642 -0.175183,0.55036 -0.173633,0.21239 -0.47594,0.21239 -0.305408,0 -0.480591,-0.21239 Q 38.0044,261.43292 38.0044,261.0965 Z m 0.31471,0.21394 q 0,0.22945 0.08372,0.37672 0.08372,0.14728 0.255798,0.14728 0.167432,0 0.251147,-0.14728 0.08527,-0.14727 0.08527,-0.37672 v -0.21394 q 0,-0.22634 -0.08527,-0.37362 -0.08371,-0.14883 -0.252697,-0.14883 -0.170532,0 -0.254248,0.14728 -0.08372,0.14728 -0.08372,0.37517 z"
         style="font-style:normal;font-variant:normal;font-weight:normal;font-stretch:normal;font-size:3.17499995px;line-height:0.69999999;font-family:'Roboto Condensed';-inkscape-font-specification:'Roboto Condensed, ';text-align:center;letter-spacing:0px;word-spacing:0px;text-anchor:middle;fill:#ffffff;fill-opacity:1;stroke-width:0.26458332"
         id="path850"
         inkscape:connector-curvature="0" />
      <path
         d="m 40.495722,261.6019 q -0.06666,0.12402 -0.170533,0.19068 -0.103869,0.0667 -0.238745,0.0667 -0.227893,0 -0.355017,-0.17519 -0.127124,-0.17518 -0.127124,-0.54415 v -0.99064 h 0.313159 v 0.99374 q 0,0.25735 0.06046,0.36587 0.06201,0.10697 0.184485,0.10697 0.116272,0 0.193786,-0.0543 0.07906,-0.0543 0.125574,-0.15503 v -1.25729 h 0.314709 v 1.67742 h -0.280603 z"
         style="font-style:normal;font-variant:normal;font-weight:normal;font-stretch:normal;font-size:3.17499995px;line-height:0.69999999;font-family:'Roboto Condensed';-inkscape-font-specification:'Roboto Condensed, ';text-align:center;letter-spacing:0px;word-spacing:0px;text-anchor:middle;fill:#ffffff;fill-opacity:1;stroke-width:0.26458332"
         id="path852"
         inkscape:connector-curvature="0" />
      <path
         d="m 43.090912,261.12751 q 0,0.33331 -0.144178,0.5333 -0.144177,0.19844 -0.406176,0.19844 -0.131775,0 -0.230994,-0.0574 -0.09767,-0.0589 -0.164331,-0.17209 l -0.02325,0.19689 h -0.272852 v -2.41846 h 0.314709 v 0.91778 q 0.06511,-0.10077 0.15813,-0.15348 0.09302,-0.0543 0.215491,-0.0543 0.2651,0 0.409277,0.21394 0.144178,0.21239 0.144178,0.56741 z m -0.31316,-0.22789 q 0,-0.24185 -0.07751,-0.38913 -0.07596,-0.14728 -0.241846,-0.14728 -0.10542,0 -0.179834,0.0636 -0.07286,0.062 -0.114722,0.16743 v 0.80615 q 0.04186,0.10232 0.116272,0.15968 0.07441,0.0558 0.181385,0.0558 0.165881,0 0.240295,-0.13177 0.07596,-0.13178 0.07596,-0.35657 z"
         style="font-style:normal;font-variant:normal;font-weight:normal;font-stretch:normal;font-size:3.17499995px;line-height:0.69999999;font-family:'Roboto Condensed';-inkscape-font-specification:'Roboto Condensed, ';text-align:center;letter-spacing:0px;word-spacing:0px;text-anchor:middle;fill:#ffffff;fill-opacity:1;stroke-width:0.26458332"
         id="path854"
         inkscape:connector-curvature="0" />
      <path
         d="m 43.845904,261.24843 0.02325,0.11007 h 0.0093 l 0.322461,-1.20923 h 0.342615 l -0.587561,1.93787 q -0.05891,0.17363 -0.15968,0.29456 -0.100769,0.12247 -0.289905,0.12247 -0.03876,0 -0.08372,-0.009 -0.04341,-0.008 -0.08682,-0.0186 l 0.03411,-0.23254 q 0.01705,0.003 0.04651,0.006 0.02945,0.003 0.04651,0.003 0.09147,0 0.144177,-0.0791 0.05426,-0.0775 0.08372,-0.18449 l 0.05581,-0.17053 -0.517798,-1.66967 h 0.341065 z"
         style="font-style:normal;font-variant:normal;font-weight:normal;font-stretch:normal;font-size:3.17499995px;line-height:0.69999999;font-family:'Roboto Condensed';-inkscape-font-specification:'Roboto Condensed, ';text-align:center;letter-spacing:0px;word-spacing:0px;text-anchor:middle;fill:#ffffff;fill-opacity:1;stroke-width:0.26458332"
         id="path856"
         inkscape:connector-curvature="0" />
    </g>
    <g
       transform="matrix(0,0.26458333,-0.26458333,0,311.51043,243.8188)"
       id="layer1-6"
       inkscape:label="Capa 1">
      <path
         id="rect1507"
         transform="translate(-25,997.36218)"
         d="M 40,1 A 7,17 0 0 0 33.042969,16.296875 7.0000076,7 0 0 0 28,23 v 2 h 5.628906 a 7,17 0 0 0 1.419922,5 H 33.914062 A 12,12 0 0 1 29,32.609375 v 2.054687 0.701172 A 13,13 0 0 1 38.632812,45 h 2.0625 0.667969 a 13,13 0 0 1 9.632813,-9.634766 V 34.664062 32.609375 A 12,12 0 0 1 46.082031,30 h -1.128906 a 7,17 0 0 0 1.416016,-5 H 52 V 23 A 7.0000076,7 0 0 0 46.964844,16.298828 7,17 0 0 0 40,1 Z m 0,2 a 5,15 0 0 1 4.818359,11 H 42 a 1.0002038,1.0002038 0 0 0 0,-0.002 1.0002038,1.0002038 0 0 0 -0.201172,-0.597656 l -3,-4.0000004 A 1.0001,1.0001 0 0 0 37.931641,8.9902344 1.0001,1.0001 0 0 0 37.199219,10.601562 L 39.748047,14 h -4.5625 A 5,15 0 0 1 40,3 Z m -0.966797,1.9882812 a 1.0001,1.0001 0 0 0 -0.09961,0.00195 1.0001,1.0001 0 0 0 -0.734375,1.6113281 l 3,3.9999997 A 1.0009848,1.0009848 0 1 0 42.80078,9.4003874 l -3,-4 A 1.0001,1.0001 0 0 0 39.033203,4.9882812 Z M 35.050781,16 h 9.898438 A 5,15 0 0 1 45,18 5,15 0 0 1 41,32.679688 V 30 h -2 v 2.697266 A 5,15 0 0 1 35,18 5,15 0 0 1 35.050781,16 Z M 40,17 a 3,3 0 0 0 -3,3 3,3 0 0 0 3,3 3,3 0 0 0 3,-3 3,3 0 0 0 -3,-3 z m -6.992188,1.423828 A 7,17 0 0 0 33.310547,23 H 30 a 5.0000076,5.0000019 0 0 1 3.007812,-4.576172 z m 13.986329,0.002 A 5.0000076,5.0000019 0 0 1 50,23 h -3.318359 a 7,17 0 0 0 0.3125,-4.574219 z M 40,19 a 1,1 0 0 1 1,1 1,1 0 0 1 -1,1 1,1 0 0 1 -1,-1 1,1 0 0 1 1,-1 z M 35.578125,31.167969 A 7,17 0 0 0 39,34.808594 V 36 h 2 v -1.195312 a 7,17 0 0 0 3.417969,-3.632813 14,14 0 0 0 4.361328,2.791016 15,15 0 0 0 -8.78125,8.708984 15,15 0 0 0 -8.78125,-8.708984 14,14 0 0 0 4.361328,-2.794922 z M 47,44 c -0.554,0 -1,0.446 -1,1 v 10 c 0,0.554 0.446,1 1,1 0.554,0 1,-0.446 1,-1 V 45 c 0,-0.554 -0.446,-1 -1,-1 z m -16,7 c -0.554,0 -1,0.446 -1,1 v 6 c 0,0.554 0.446,1 1,1 0.554,0 1,-0.446 1,-1 v -6 c 0,-0.554 -0.446,-1 -1,-1 z m 8,5 c -0.554,0 -1,0.446 -1,1 v 21 c 0,0.554 0.446,1 1,1 0.554,0 1,-0.446 1,-1 V 57 c 0,-0.554 -0.446,-1 -1,-1 z"
         style="opacity:1;vector-effect:none;fill:#fafafa;fill-opacity:1;stroke:none;stroke-width:1;stroke-linecap:butt;stroke-linejoin:miter;stroke-miterlimit:4;stroke-dasharray:none;stroke-dashoffset:0;stroke-opacity:1"
         inkscape:connector-curvature="0" />
    </g>
    <text
       xml:space="preserve"
       style="font-style:normal;font-weight:normal;font-size:10.5833px;line-height:1.25;font-family:sans-serif;letter-spacing:0px;word-spacing:0px;fill:#000000;fill-opacity:1;stroke:none;stroke-width:0.264583"
       x="6.614583"
       y="294.35413"
       id="text885" />
    <path
       inkscape:connector-curvature="0"
       id="path2818"
       style="font-style:normal;font-variant:normal;font-weight:normal;font-stretch:normal;font-size:3.17499995px;line-height:1.25;font-family:'Roboto Condensed';-inkscape-font-specification:'Roboto Condensed, ';text-align:center;letter-spacing:0px;word-spacing:0px;text-anchor:middle;fill:#ffffff;fill-opacity:1;stroke:none;stroke-width:0.26458332"
       d="m 10.169664,293.77135 0.0046,0.009 q 0.0046,0.23255 -0.114722,0.35502 -0.1193715,0.12247 -0.3317615,0.12247 -0.218592,0 -0.347266,-0.16433 -0.128674,-0.16588 -0.128674,-0.43563 v -0.18449 q 0,-0.2682 0.128674,-0.43408 0.128674,-0.16588 0.347266,-0.16588 0.21239,0 0.3317615,0.12402 0.120923,0.12248 0.116272,0.35347 l -0.0046,0.009 H 9.9836295 q 0,-0.15813 -0.06511,-0.23254 -0.06511,-0.0744 -0.190686,-0.0744 -0.133325,0 -0.206189,0.11628 -0.07131,0.11627 -0.07131,0.3023 v 0.18604 q 0,0.19068 0.07131,0.30696 0.07286,0.11472 0.206189,0.11472 0.127124,0 0.190686,-0.0729 0.06356,-0.0729 0.06356,-0.23564 z m -1.2386835,-0.20619 q 0,0.42013 0.237195,0.70848 0.238745,0.28836 0.576709,0.28836 0.3379635,0 0.5751575,-0.28836 0.238747,-0.28835 0.238747,-0.70848 0,-0.41548 -0.238747,-0.70228 -0.237194,-0.28681 -0.5751575,-0.28681 -0.339514,0 -0.576709,0.28681 -0.237195,0.2868 -0.237195,0.70228 z m -0.15813,0 q 0,-0.48834 0.282153,-0.8232 0.283704,-0.33487 0.689881,-0.33487 0.4046255,0 0.6883295,0.33487 0.285255,0.33486 0.285255,0.8232 0,0.48989 -0.285255,0.82631 -0.285254,0.33641 -0.6883295,0.33641 -0.404627,0 -0.68833,-0.33641 -0.283704,-0.33642 -0.283704,-0.82631 z" />
    <path
       id="path18630"
       style="font-size:3.175px;line-height:1.25;font-family:'Roboto Condensed';-inkscape-font-specification:'Roboto Condensed, ';fill:#ffffff;stroke-width:0.999999"
       d="M 71.535156 238.14844 L 71.535156 239.28516 L 72.724609 239.28516 L 72.724609 238.14844 L 71.535156 238.14844 z M 79.972656 238.14844 L 79.972656 247.28906 L 81.162109 247.28906 L 81.162109 242.53711 C 81.283213 242.29502 81.43751 242.10557 81.625 241.96875 C 81.816403 241.82815 82.033198 241.75781 82.275391 241.75781 C 82.611335 241.75781 82.863288 241.88672 83.03125 242.14453 C 83.203118 242.39841 83.289062 242.81639 83.289062 243.39844 L 83.289062 247.28906 L 84.478516 247.28906 L 84.478516 243.41016 C 84.478516 242.53515 84.320313 241.88671 84.003906 241.46484 C 83.687499 241.04297 83.244139 240.83203 82.673828 240.83203 C 82.357421 240.83203 82.070312 240.918 81.8125 241.08984 C 81.554678 241.25783 81.337883 241.49415 81.162109 241.79883 L 81.162109 238.14844 L 79.972656 238.14844 z M 125.55859 238.14844 L 125.55859 239.28516 L 126.74805 239.28516 L 126.74805 238.14844 L 125.55859 238.14844 z M 164.17188 238.14844 L 164.17188 239.28516 L 165.36133 239.28516 L 165.36133 238.14844 L 164.17188 238.14844 z M 202.22852 238.14844 L 202.22852 239.28516 L 203.41797 239.28516 L 203.41797 238.14844 L 202.22852 238.14844 z M 47.089844 238.63477 C 46.301315 238.65191 45.666137 238.93568 45.185547 239.48438 C 44.693359 240.0508 44.447266 240.8379 44.447266 241.8457 L 44.447266 244.21289 C 44.447266 245.22069 44.697267 246.00584 45.197266 246.56836 C 45.697267 247.13085 46.365236 247.41211 47.201172 247.41211 C 48.021486 247.41211 48.656249 247.1797 49.105469 246.71484 C 49.554562 246.24611 49.781125 245.58593 49.785156 244.73438 L 49.767578 244.69922 L 48.636719 244.69727 C 48.628908 245.33008 48.509772 245.79102 48.279297 246.08008 C 48.052734 246.36523 47.69336 246.50781 47.201172 246.50781 C 46.701173 246.50781 46.312501 246.31055 46.035156 245.91602 C 45.76172 245.52148 45.625 244.95311 45.625 244.21094 L 45.625 241.82617 C 45.625 241.09572 45.759766 240.5332 46.029297 240.13867 C 46.298828 239.74414 46.677733 239.54688 47.166016 239.54688 C 47.669915 239.54688 48.039056 239.69336 48.273438 239.98633 C 48.507693 240.27929 48.630736 240.73632 48.642578 241.35742 L 49.767578 241.35742 L 49.785156 241.32422 C 49.773437 240.44533 49.54297 239.77736 49.09375 239.32031 C 48.64453 238.86329 48.001951 238.63477 47.166016 238.63477 C 47.140259 238.63477 47.11528 238.63421 47.089844 238.63477 z M 94.251953 238.63477 C 93.531302 238.65014 92.961058 238.90454 92.541016 239.39648 C 92.107423 239.9043 91.89844 240.52736 91.914062 241.26562 L 91.925781 241.29492 L 93.068359 241.29492 C 93.068359 240.75586 93.171889 240.33007 93.378906 240.01758 C 93.589844 239.70509 93.904295 239.54883 94.322266 239.54883 C 94.654307 239.54883 94.914073 239.69141 95.101562 239.97656 C 95.292958 240.25781 95.388672 240.62306 95.388672 241.07227 C 95.388672 241.4004 95.312496 241.74025 95.160156 242.0918 C 95.011717 242.43946 94.748046 242.88086 94.369141 243.41602 L 92.025391 246.49805 L 92.025391 247.28906 L 96.8125 247.28906 L 96.8125 246.38672 L 93.513672 246.38672 L 95.125 244.07227 C 95.597653 243.48634 95.957027 242.95704 96.203125 242.48438 C 96.453128 242.00783 96.578125 241.5254 96.578125 241.03711 C 96.578125 240.31446 96.374999 239.73439 95.96875 239.29688 C 95.566407 238.85548 95.017578 238.63477 94.322266 238.63477 C 94.298706 238.63477 94.2752 238.63427 94.251953 238.63477 z M 100.22266 238.63477 C 99.496092 238.63477 98.919922 238.93165 98.494141 239.52539 C 98.068359 240.11915 97.855469 240.96485 97.855469 242.0625 L 97.855469 243.99023 C 97.855469 245.09179 98.068359 245.93751 98.494141 246.52734 C 98.923828 247.1172 99.503906 247.41211 100.23438 247.41211 C 100.96094 247.41211 101.53516 247.11913 101.95703 246.5332 C 102.38281 245.94334 102.5957 245.0957 102.5957 243.99023 L 102.5957 242.0625 C 102.5957 240.96485 102.38086 240.11915 101.95117 239.52539 C 101.52539 238.93165 100.94922 238.63477 100.22266 238.63477 z M 105.98242 238.63477 C 105.26177 238.65014 104.69153 238.90454 104.27148 239.39648 C 103.83789 239.9043 103.62891 240.52736 103.64453 241.26562 L 103.65625 241.29492 L 104.79883 241.29492 C 104.79883 240.75586 104.90233 240.33007 105.10938 240.01758 C 105.32031 239.70509 105.63477 239.54883 106.05273 239.54883 C 106.38478 239.54883 106.64454 239.69141 106.83203 239.97656 C 107.02343 240.25781 107.11914 240.62306 107.11914 241.07227 C 107.11914 241.4004 107.04297 241.74025 106.89062 242.0918 C 106.74219 242.43946 106.47852 242.88086 106.09961 243.41602 L 103.75586 246.49805 L 103.75586 247.28906 L 108.54297 247.28906 L 108.54297 246.38672 L 105.24414 246.38672 L 106.85547 244.07227 C 107.32812 243.48634 107.6875 242.95704 107.93359 242.48438 C 108.1836 242.00783 108.30859 241.5254 108.30859 241.03711 C 108.30859 240.31446 108.10547 239.73439 107.69922 239.29688 C 107.29688 238.85548 106.74805 238.63477 106.05273 238.63477 C 106.02917 238.63477 106.00567 238.63427 105.98242 238.63477 z M 111.8418 238.63477 C 111.12115 238.65014 110.5509 238.90454 110.13086 239.39648 C 109.69727 239.9043 109.48828 240.52736 109.50391 241.26562 L 109.51562 241.29492 L 110.6582 241.29492 C 110.6582 240.75586 110.76171 240.33007 110.96875 240.01758 C 111.17969 239.70509 111.49414 239.54883 111.91211 239.54883 C 112.24415 239.54883 112.50392 239.69141 112.69141 239.97656 C 112.8828 240.25781 112.97852 240.62306 112.97852 241.07227 C 112.97852 241.4004 112.90234 241.74025 112.75 242.0918 C 112.60156 242.43946 112.33789 242.88086 111.95898 243.41602 L 109.61523 246.49805 L 109.61523 247.28906 L 114.40234 247.28906 L 114.40234 246.38672 L 111.10352 246.38672 L 112.71484 244.07227 C 113.1875 243.48634 113.54687 242.95704 113.79297 242.48438 C 114.04297 242.00783 114.16797 241.5254 114.16797 241.03711 C 114.16797 240.31446 113.96485 239.73439 113.55859 239.29688 C 113.15625 238.85548 112.60742 238.63477 111.91211 238.63477 C 111.88855 238.63477 111.86504 238.63427 111.8418 238.63477 z M 232.47461 238.63477 C 231.7168 238.63477 231.0957 238.85157 230.61133 239.28516 C 230.13086 239.71486 229.89062 240.26563 229.89062 240.9375 C 229.89063 241.58982 230.10742 242.11523 230.54102 242.51367 C 230.97461 242.90813 231.59766 243.22844 232.41016 243.47461 C 232.97655 243.66994 233.37304 243.89648 233.59961 244.1543 C 233.82618 244.41211 233.93945 244.74219 233.93945 245.14453 C 233.93945 245.56255 233.8125 245.89653 233.55859 246.14648 C 233.30859 246.39266 232.96094 246.51562 232.51562 246.51562 C 232.01953 246.51562 231.61719 246.375 231.30859 246.09375 C 231.00391 245.8125 230.85156 245.3789 230.85156 244.79297 L 229.70898 244.79297 L 229.69727 244.82812 C 229.67774 245.64843 229.95117 246.28514 230.51758 246.73828 C 231.08789 247.18749 231.75391 247.41211 232.51562 247.41211 C 233.29687 247.41211 233.92773 247.20703 234.4082 246.79688 C 234.88867 246.38672 235.12891 245.83203 235.12891 245.13281 C 235.12891 244.46875 234.92578 243.92776 234.51953 243.50977 C 234.11328 243.09175 233.52149 242.76167 232.74414 242.51953 C 232.15039 242.3165 231.72461 242.09188 231.4668 241.8457 C 231.20899 241.5957 231.08008 241.28907 231.08008 240.92578 C 231.08008 240.52344 231.19921 240.19334 231.4375 239.93555 C 231.67969 239.67383 232.02148 239.54297 232.46289 239.54297 C 232.92773 239.54297 233.28711 239.69923 233.54102 240.01172 C 233.79883 240.3203 233.92773 240.72265 233.92773 241.21875 L 235.07031 241.21875 L 235.08203 241.18359 C 235.09766 240.48048 234.86328 239.88087 234.37891 239.38477 C 233.89844 238.88476 233.26367 238.63477 232.47461 238.63477 z M 241.68555 238.63477 C 240.89702 238.65191 240.26184 238.93568 239.78125 239.48438 C 239.28906 240.0508 239.04297 240.8379 239.04297 241.8457 L 239.04297 244.21289 C 239.04297 245.22069 239.29297 246.00584 239.79297 246.56836 C 240.29297 247.13085 240.96094 247.41211 241.79688 247.41211 C 242.61719 247.41211 243.25195 247.1797 243.70117 246.71484 C 244.15052 246.24611 244.37708 245.58593 244.38086 244.73438 L 244.36328 244.69922 L 243.23242 244.69727 C 243.22461 245.33008 243.10548 245.79102 242.875 246.08008 C 242.64844 246.36523 242.28906 246.50781 241.79688 246.50781 C 241.29687 246.50781 240.9082 246.31055 240.63086 245.91602 C 240.35742 245.52148 240.2207 244.95311 240.2207 244.21094 L 240.2207 241.82617 C 240.2207 241.09572 240.35547 240.5332 240.625 240.13867 C 240.89453 239.74414 241.27344 239.54688 241.76172 239.54688 C 242.26562 239.54688 242.63476 239.69336 242.86914 239.98633 C 243.1034 240.27929 243.22644 240.73632 243.23828 241.35742 L 244.36328 241.35742 L 244.38086 241.32422 C 244.36914 240.44533 244.13867 239.77736 243.68945 239.32031 C 243.24024 238.86329 242.59766 238.63477 241.76172 238.63477 C 241.73596 238.63477 241.71098 238.63421 241.68555 238.63477 z M 118.32227 238.75781 L 118.32227 247.28906 L 119.51172 247.28906 L 119.51172 240.95508 L 119.54688 240.94336 L 122.78125 247.28906 L 123.96484 247.28906 L 123.96484 238.75781 L 122.78125 238.75781 L 122.78125 245.07422 L 122.74609 245.08594 L 119.51172 238.75781 L 118.32227 238.75781 z M 149.39453 238.75781 L 149.39453 247.28906 L 153.91211 247.28906 L 153.91211 246.38672 L 150.58398 246.38672 L 150.58398 238.75781 L 149.39453 238.75781 z M 86.154297 239.37305 L 86.154297 240.94922 L 85.328125 240.94922 L 85.328125 241.79883 L 86.154297 241.79883 L 86.154297 245.57227 C 86.154297 246.20896 86.27734 246.67576 86.523438 246.97266 C 86.773438 247.26562 87.123046 247.41211 87.572266 247.41211 C 87.748051 247.41211 87.917975 247.3944 88.082031 247.35938 C 88.250001 247.32813 88.400391 247.28515 88.533203 247.23047 L 88.410156 246.41016 C 88.300802 246.43258 88.205088 246.45029 88.123047 246.46289 C 88.044937 246.47549 87.958992 246.48047 87.865234 246.48047 C 87.708991 246.48047 87.582038 246.41221 87.484375 246.27539 C 87.386712 246.13477 87.337891 245.90038 87.337891 245.57227 L 87.337891 241.79883 L 88.328125 241.79883 L 88.328125 240.94922 L 87.337891 240.94922 L 87.337891 239.37305 L 86.154297 239.37305 z M 128.52344 239.37305 L 128.52344 240.94922 L 127.69727 240.94922 L 127.69727 241.79883 L 128.52344 241.79883 L 128.52344 245.57227 C 128.52344 246.20896 128.64648 246.67576 128.89258 246.97266 C 129.14258 247.26562 129.49219 247.41211 129.94141 247.41211 C 130.11719 247.41211 130.28712 247.3944 130.45117 247.35938 C 130.61914 247.32813 130.76953 247.28515 130.90234 247.23047 L 130.7793 246.41016 C 130.66994 246.43258 130.57423 246.45029 130.49219 246.46289 C 130.41408 246.47549 130.32813 246.48047 130.23438 246.48047 C 130.07813 246.48047 129.95118 246.41221 129.85352 246.27539 C 129.75585 246.13477 129.70703 245.90038 129.70703 245.57227 L 129.70703 241.79883 L 130.69727 241.79883 L 130.69727 240.94922 L 129.70703 240.94922 L 129.70703 239.37305 L 128.52344 239.37305 z M 160.75 239.37305 L 160.75 240.94922 L 159.92383 240.94922 L 159.92383 241.79883 L 160.75 241.79883 L 160.75 245.57227 C 160.75 246.20896 160.87304 246.67576 161.11914 246.97266 C 161.36914 247.26562 161.71875 247.41211 162.16797 247.41211 C 162.34375 247.41211 162.51368 247.3944 162.67773 247.35938 C 162.8457 247.32813 162.99609 247.28515 163.12891 247.23047 L 163.00586 246.41016 C 162.89648 246.43258 162.80079 246.45029 162.71875 246.46289 C 162.64064 246.47549 162.55469 246.48047 162.46094 246.48047 C 162.30469 246.48047 162.17774 246.41221 162.08008 246.27539 C 161.98242 246.13477 161.93359 245.90038 161.93359 245.57227 L 161.93359 241.79883 L 162.92383 241.79883 L 162.92383 240.94922 L 161.93359 240.94922 L 161.93359 239.37305 L 160.75 239.37305 z M 100.22266 239.54883 C 100.60546 239.54883 100.89843 239.74609 101.10156 240.14062 C 101.30858 240.53516 101.41211 241.11916 101.41211 241.89258 L 101.41211 244.1543 C 101.41211 244.93162 101.31056 245.51953 101.10742 245.91797 C 100.9043 246.3125 100.61328 246.50977 100.23438 246.50977 C 99.851574 246.50977 99.556652 246.31055 99.349609 245.91211 C 99.146472 245.51367 99.044922 244.92771 99.044922 244.1543 L 99.044922 241.89258 C 99.044922 241.12307 99.144544 240.54102 99.34375 240.14648 C 99.546874 239.74805 99.839843 239.54883 100.22266 239.54883 z M 53.160156 240.83203 C 52.394532 240.83203 51.791015 241.10352 51.349609 241.64648 C 50.912109 242.18945 50.693359 242.88087 50.693359 243.7207 L 50.693359 244.5293 C 50.693359 245.37694 50.912109 246.07031 51.349609 246.60938 C 51.791015 247.14453 52.396484 247.41211 53.166016 247.41211 C 53.927734 247.41211 54.527343 247.14453 54.964844 246.60938 C 55.40625 246.07031 55.626953 245.37694 55.626953 244.5293 L 55.626953 243.7207 C 55.626953 242.87696 55.40625 242.18555 54.964844 241.64648 C 54.523435 241.10352 53.921875 240.83203 53.160156 240.83203 z M 59.353516 240.83203 C 59.033208 240.83203 58.751958 240.90628 58.509766 241.05469 C 58.267571 241.19922 58.062493 241.40625 57.894531 241.67578 L 57.818359 240.94922 L 56.757812 240.94922 L 56.757812 249.72656 L 57.947266 249.72656 L 57.947266 246.69727 C 58.115228 246.93155 58.3164 247.10927 58.550781 247.23047 C 58.785157 247.35167 59.056641 247.41211 59.365234 247.41211 C 60.017578 247.41211 60.527345 247.16016 60.894531 246.65625 C 61.26172 246.15234 61.445312 245.48242 61.445312 244.64648 L 61.445312 243.86719 C 61.445312 242.95312 61.26172 242.21875 60.894531 241.66406 C 60.527345 241.10938 60.013673 240.83203 59.353516 240.83203 z M 70.134766 240.83203 C 69.874993 240.84325 69.644785 240.93961 69.443359 241.11914 C 69.228513 241.30666 69.054688 241.56837 68.921875 241.9043 L 68.833984 240.94922 L 67.75 240.94922 L 67.75 247.28906 L 68.939453 247.28906 L 68.939453 242.77148 C 69.0254 242.50193 69.148443 242.29294 69.308594 242.14453 C 69.472653 241.99612 69.67773 241.92188 69.923828 241.92188 L 70.480469 241.95117 L 70.621094 240.90039 C 70.574228 240.88174 70.509775 240.86611 70.427734 240.85352 C 70.345719 240.8384 70.265635 240.83203 70.1875 240.83203 C 70.169923 240.83203 70.152084 240.83128 70.134766 240.83203 z M 76.058594 240.83203 C 75.394531 240.83203 74.875 241.11133 74.5 241.66992 C 74.128908 242.22461 73.943359 242.95703 73.943359 243.86719 L 73.943359 244.64648 C 73.943359 245.47851 74.128908 246.14843 74.5 246.65625 C 74.871094 247.16016 75.386718 247.41211 76.046875 247.41211 C 76.34765 247.41211 76.613274 247.35167 76.84375 247.23047 C 77.078131 247.10542 77.279303 246.92183 77.447266 246.67969 L 77.447266 247.25391 C 77.447266 247.78906 77.341807 248.19531 77.130859 248.47266 C 76.923827 248.75 76.603514 248.88867 76.169922 248.88867 C 75.912115 248.88867 75.664068 248.8535 75.425781 248.7832 C 75.187487 248.71694 74.968738 248.62315 74.769531 248.50195 L 74.517578 249.39258 C 74.75586 249.53318 75.02539 249.64442 75.326172 249.72656 C 75.63086 249.8087 75.916018 249.84961 76.181641 249.84961 C 76.955078 249.84961 77.556639 249.62108 77.986328 249.16406 C 78.419921 248.70702 78.636719 248.07226 78.636719 247.25977 L 78.636719 240.94922 L 77.611328 240.94922 L 77.523438 241.71094 C 77.351565 241.42576 77.144536 241.20896 76.902344 241.06055 C 76.660157 240.90811 76.378906 240.83203 76.058594 240.83203 z M 134.25391 240.83203 C 133.99413 240.84325 133.76393 240.93961 133.5625 241.11914 C 133.34766 241.30666 133.17383 241.56837 133.04102 241.9043 L 132.95312 240.94922 L 131.86914 240.94922 L 131.86914 247.28906 L 133.05859 247.28906 L 133.05859 242.77148 C 133.14454 242.50193 133.26758 242.29294 133.42773 242.14453 C 133.59179 241.99612 133.79687 241.92188 134.04297 241.92188 L 134.59961 241.95117 L 134.74023 240.90039 C 134.69337 240.88174 134.62892 240.86611 134.54688 240.85352 C 134.46486 240.8384 134.38478 240.83203 134.30664 240.83203 C 134.28906 240.83203 134.27122 240.83128 134.25391 240.83203 z M 156.89844 240.83203 C 156.27748 240.84362 155.76843 241.0354 155.37109 241.40625 C 154.96082 241.78516 154.7655 242.21877 154.78516 242.70703 L 154.80273 242.74023 L 155.93359 242.74805 C 155.93359 242.45503 156.01954 242.2109 156.19141 242.01562 C 156.36719 241.82035 156.59766 241.72266 156.88281 241.72266 C 157.19923 241.72266 157.44337 241.83207 157.61523 242.05078 C 157.7871 242.26563 157.87305 242.5664 157.87305 242.95312 L 157.87305 243.60352 L 156.98828 243.60352 C 156.24219 243.60352 155.66211 243.77736 155.24805 244.125 C 154.83789 244.46876 154.63281 244.94335 154.63281 245.54883 C 154.63281 246.11523 154.7832 246.56837 155.08398 246.9082 C 155.38867 247.24415 155.80859 247.41211 156.34375 247.41211 C 156.66797 247.41211 156.96289 247.32223 157.22852 247.14258 C 157.49415 246.96287 157.71485 246.73047 157.89062 246.44531 C 157.89844 246.58596 157.91602 246.72659 157.94336 246.86719 C 157.9707 247.0038 158.00587 247.14443 158.04883 247.28906 L 159.25 247.28906 C 159.18358 247.07028 159.13476 246.84761 159.10352 246.62109 C 159.07618 246.39069 159.0625 246.15242 159.0625 245.90625 L 159.0625 242.96484 C 159.0625 242.28125 158.86719 241.75587 158.47656 241.38867 C 158.08984 241.01757 157.58398 240.83203 156.95898 240.83203 C 156.93872 240.83203 156.91847 240.83166 156.89844 240.83203 z M 169.52734 240.83203 C 169.1875 240.83203 168.88281 240.92582 168.61328 241.11328 C 168.34374 241.29689 168.12109 241.5547 167.94531 241.88672 L 167.88086 240.94922 L 166.79102 240.94922 L 166.79102 247.28906 L 167.98047 247.28906 L 167.98047 242.5957 C 168.09767 242.33786 168.25001 242.13474 168.4375 241.98633 C 168.62499 241.83389 168.83984 241.75781 169.08203 241.75781 C 169.42188 241.75781 169.67579 241.87895 169.84375 242.12109 C 170.01171 242.36329 170.0957 242.77928 170.0957 243.36914 L 170.0957 247.28906 L 171.28516 247.28906 L 171.28516 243.35742 C 171.28516 242.49413 171.13086 241.85742 170.82227 241.44727 C 170.51367 241.03711 170.08203 240.83203 169.52734 240.83203 z M 174.86523 240.83203 C 174.09961 240.83203 173.49609 241.10352 173.05469 241.64648 C 172.61719 242.18945 172.39844 242.88087 172.39844 243.7207 L 172.39844 244.5293 C 172.39844 245.37694 172.61719 246.07031 173.05469 246.60938 C 173.49609 247.14453 174.10156 247.41211 174.87109 247.41211 C 175.63281 247.41211 176.23242 247.14453 176.66992 246.60938 C 177.11133 246.07031 177.33203 245.37694 177.33203 244.5293 L 177.33203 243.7207 C 177.33203 242.87696 177.11133 242.18555 176.66992 241.64648 C 176.22852 241.10352 175.62695 240.83203 174.86523 240.83203 z M 180.54102 240.83203 C 179.92006 240.84362 179.41101 241.0354 179.01367 241.40625 C 178.60339 241.78516 178.40808 242.21877 178.42773 242.70703 L 178.44531 242.74023 L 179.57617 242.74805 C 179.57617 242.45503 179.66212 242.2109 179.83398 242.01562 C 180.00977 241.82035 180.24023 241.72266 180.52539 241.72266 C 180.8418 241.72266 181.08594 241.83207 181.25781 242.05078 C 181.42968 242.26563 181.51562 242.5664 181.51562 242.95312 L 181.51562 243.60352 L 180.63086 243.60352 C 179.88477 243.60352 179.30469 243.77736 178.89062 244.125 C 178.48047 244.46876 178.27539 244.94335 178.27539 245.54883 C 178.27539 246.11523 178.42578 246.56837 178.72656 246.9082 C 179.03125 247.24415 179.45117 247.41211 179.98633 247.41211 C 180.31055 247.41211 180.60547 247.32223 180.87109 247.14258 C 181.13673 246.96287 181.35743 246.73047 181.5332 246.44531 C 181.54101 246.58596 181.5586 246.72659 181.58594 246.86719 C 181.61328 247.0038 181.64845 247.14443 181.69141 247.28906 L 182.89258 247.28906 C 182.82616 247.07028 182.77734 246.84761 182.74609 246.62109 C 182.71876 246.39069 182.70508 246.15242 182.70508 245.90625 L 182.70508 242.96484 C 182.70508 242.28125 182.50977 241.75587 182.11914 241.38867 C 181.73242 241.01757 181.22656 240.83203 180.60156 240.83203 C 180.5813 240.83203 180.56105 240.83166 180.54102 240.83203 z M 186.79492 240.83203 C 186.43945 240.83203 186.1289 240.918 185.86328 241.08984 C 185.59765 241.25783 185.3789 241.49806 185.20703 241.81055 L 185.14258 240.94922 L 184.05859 240.94922 L 184.05859 247.28906 L 185.24219 247.28906 L 185.24219 242.54297 C 185.33985 242.29697 185.47657 242.10557 185.65234 241.96875 C 185.82812 241.82815 186.04101 241.75781 186.29102 241.75781 C 186.60352 241.75781 186.8418 241.89453 187.00586 242.16797 C 187.16992 242.4375 187.25195 242.88674 187.25195 243.51562 L 187.25195 247.28906 L 188.43555 247.28906 L 188.43555 243.31641 C 188.43555 243.25795 188.43164 243.16416 188.42383 243.03516 C 188.41577 242.90237 188.41394 242.85157 188.41797 242.88281 C 188.50001 242.54293 188.63087 242.27145 188.81055 242.06836 C 188.99414 241.86124 189.2207 241.75781 189.49023 241.75781 C 189.80274 241.75781 190.03907 241.88867 190.19922 242.15039 C 190.35937 242.41211 190.43945 242.86721 190.43945 243.51562 L 190.43945 247.28906 L 191.62891 247.28906 L 191.62891 243.52148 C 191.62891 242.61525 191.47266 241.94142 191.16016 241.5 C 190.85156 241.0547 190.42773 240.83203 189.88867 240.83203 C 189.51367 240.83203 189.18945 240.93546 188.91602 241.14258 C 188.64257 241.3496 188.42382 241.63671 188.25977 242.00391 C 188.13086 241.60945 187.94141 241.3165 187.69141 241.125 C 187.44141 240.92972 187.14258 240.83203 186.79492 240.83203 z M 195.15039 240.83203 C 194.4668 240.83203 193.90235 241.10156 193.45703 241.64062 C 193.01563 242.17969 192.79492 242.86329 192.79492 243.69141 L 192.79492 244.61719 C 192.79492 245.43359 193.02148 246.10351 193.47461 246.62695 C 193.92773 247.15039 194.53125 247.41211 195.28516 247.41211 C 195.72265 247.41211 196.10937 247.33994 196.44531 247.19531 C 196.78126 247.05073 197.04884 246.86519 197.24805 246.63867 L 196.87305 245.90039 C 196.66212 246.09952 196.43946 246.25185 196.20508 246.35742 C 195.9707 246.45897 195.68945 246.50977 195.36133 246.50977 C 194.91993 246.50977 194.57813 246.33201 194.33594 245.97656 C 194.09765 245.61718 193.97852 245.16406 193.97852 244.61719 L 193.97852 244.36523 L 197.38867 244.36523 L 197.38867 243.54492 C 197.38867 242.71678 197.19531 242.05858 196.80859 241.57031 C 196.42188 241.07812 195.86914 240.83203 195.15039 240.83203 z M 200.82812 240.83203 C 200.56835 240.84325 200.33814 240.93961 200.13672 241.11914 C 199.92188 241.30666 199.74805 241.56837 199.61523 241.9043 L 199.52734 240.94922 L 198.44336 240.94922 L 198.44336 247.28906 L 199.63281 247.28906 L 199.63281 242.77148 C 199.71876 242.50193 199.8418 242.29294 200.00195 242.14453 C 200.16601 241.99612 200.37109 241.92188 200.61719 241.92188 L 201.17383 241.95117 L 201.31445 240.90039 C 201.26759 240.88174 201.20313 240.86611 201.12109 240.85352 C 201.03908 240.8384 200.95899 240.83203 200.88086 240.83203 C 200.86328 240.83203 200.84544 240.83128 200.82812 240.83203 z M 206.98242 240.83203 C 206.2328 240.84835 205.65478 241.11841 205.24609 241.64062 C 204.82812 242.17969 204.61914 242.86329 204.61914 243.69141 L 204.61914 244.56445 C 204.61914 245.39257 204.82812 246.07422 205.24609 246.60938 C 205.66797 247.14453 206.27344 247.41211 207.0625 247.41211 C 207.66016 247.41211 208.16797 247.20703 208.58594 246.79688 C 209.00781 246.38672 209.21093 245.88283 209.19531 245.28516 L 209.18359 245.25 L 208.11719 245.25 C 208.11719 245.63274 208.01564 245.93937 207.8125 246.16992 C 207.60938 246.39644 207.35938 246.50977 207.0625 246.50977 L 207.0625 246.50781 C 206.60546 246.50781 206.28124 246.32615 206.08984 245.96289 C 205.90235 245.5996 205.80859 245.13281 205.80859 244.5625 L 205.80859 243.68945 C 205.80859 243.12696 205.90235 242.66212 206.08984 242.29492 C 206.28125 241.92775 206.60352 241.74414 207.05664 241.74414 C 207.37697 241.74414 207.63282 241.87695 207.82422 242.14258 C 208.01952 242.4043 208.11719 242.7461 208.11719 243.16797 L 209.18359 243.16797 L 209.20117 243.13477 C 209.21289 242.45506 209.01758 241.90234 208.61523 241.47656 C 208.2168 241.04688 207.69727 240.83203 207.05664 240.83203 C 207.0321 240.83203 207.0066 240.8315 206.98242 240.83203 z M 212.33398 240.83203 C 211.71302 240.84362 211.20398 241.0354 210.80664 241.40625 C 210.39636 241.78516 210.20105 242.21877 210.2207 242.70703 L 210.23828 242.74023 L 211.36914 242.74805 C 211.36914 242.45503 211.45509 242.2109 211.62695 242.01562 C 211.80273 241.82035 212.0332 241.72266 212.31836 241.72266 C 212.63477 241.72266 212.87891 241.83207 213.05078 242.05078 C 213.22265 242.26563 213.30859 242.5664 213.30859 242.95312 L 213.30859 243.60352 L 212.42383 243.60352 C 211.67773 243.60352 211.09766 243.77736 210.68359 244.125 C 210.27344 244.46876 210.06836 244.94335 210.06836 245.54883 C 210.06836 246.11523 210.21875 246.56837 210.51953 246.9082 C 210.82422 247.24415 211.24414 247.41211 211.7793 247.41211 C 212.10351 247.41211 212.39844 247.32223 212.66406 247.14258 C 212.9297 246.96287 213.1504 246.73047 213.32617 246.44531 C 213.33398 246.58596 213.35157 246.72659 213.37891 246.86719 C 213.40624 247.0038 213.44141 247.14443 213.48438 247.28906 L 214.68555 247.28906 C 214.61913 247.07028 214.57031 246.84761 214.53906 246.62109 C 214.51172 246.39069 214.49805 246.15242 214.49805 245.90625 L 214.49805 242.96484 C 214.49805 242.28125 214.30274 241.75587 213.91211 241.38867 C 213.52539 241.01757 213.01953 240.83203 212.39453 240.83203 C 212.37427 240.83203 212.35402 240.83166 212.33398 240.83203 z M 218.57617 240.83203 C 218.23633 240.83203 217.93164 240.92582 217.66211 241.11328 C 217.39257 241.29689 217.16991 241.5547 216.99414 241.88672 L 216.92969 240.94922 L 215.83984 240.94922 L 215.83984 247.28906 L 217.0293 247.28906 L 217.0293 242.5957 C 217.14649 242.33786 217.29884 242.13474 217.48633 241.98633 C 217.67382 241.83389 217.88867 241.75781 218.13086 241.75781 C 218.47071 241.75781 218.72462 241.87895 218.89258 242.12109 C 219.06054 242.36329 219.14453 242.77928 219.14453 243.36914 L 219.14453 247.28906 L 220.33398 247.28906 L 220.33398 243.35742 C 220.33398 242.49413 220.17969 241.85742 219.87109 241.44727 C 219.5625 241.03711 219.13086 240.83203 218.57617 240.83203 z M 223.75977 240.83203 C 223.1388 240.84362 222.62976 241.0354 222.23242 241.40625 C 221.82214 241.78516 221.62683 242.21877 221.64648 242.70703 L 221.66406 242.74023 L 222.79492 242.74805 C 222.79492 242.45503 222.88087 242.2109 223.05273 242.01562 C 223.22852 241.82035 223.45899 241.72266 223.74414 241.72266 C 224.06056 241.72266 224.30469 241.83207 224.47656 242.05078 C 224.64843 242.26563 224.73438 242.5664 224.73438 242.95312 L 224.73438 243.60352 L 223.84961 243.60352 C 223.10352 243.60352 222.52344 243.77736 222.10938 244.125 C 221.69922 244.46876 221.49414 244.94335 221.49414 245.54883 C 221.49414 246.11523 221.64453 246.56837 221.94531 246.9082 C 222.25 247.24415 222.66992 247.41211 223.20508 247.41211 C 223.5293 247.41211 223.82422 247.32223 224.08984 247.14258 C 224.35548 246.96287 224.57618 246.73047 224.75195 246.44531 C 224.75976 246.58596 224.77735 246.72659 224.80469 246.86719 C 224.83203 247.0038 224.8672 247.14443 224.91016 247.28906 L 226.11133 247.28906 C 226.04491 247.07028 225.99609 246.84761 225.96484 246.62109 C 225.93751 246.39069 225.92383 246.15242 225.92383 245.90625 L 225.92383 242.96484 C 225.92383 242.28125 225.72851 241.75587 225.33789 241.38867 C 224.95117 241.01757 224.44531 240.83203 223.82031 240.83203 C 223.80005 240.83203 223.7798 240.83166 223.75977 240.83203 z M 61.972656 240.94922 L 63.929688 247.25977 L 63.71875 247.9043 C 63.64452 248.17388 63.539062 248.40629 63.402344 248.60156 C 63.269536 248.80087 63.087897 248.90039 62.857422 248.90039 C 62.814461 248.90039 62.755871 248.89623 62.681641 248.88867 C 62.607411 248.88111 62.54882 248.87475 62.505859 248.86719 L 62.376953 249.74609 C 62.486333 249.7728 62.595699 249.79625 62.705078 249.81641 C 62.818363 249.83908 62.923821 249.84961 63.021484 249.84961 C 63.498045 249.84961 63.863281 249.6953 64.117188 249.38672 C 64.371099 249.08204 64.572268 248.71096 64.720703 248.27344 L 66.941406 240.94922 L 65.646484 240.94922 L 64.427734 245.51953 L 64.392578 245.51953 L 64.304688 245.10352 L 63.261719 240.94922 L 61.972656 240.94922 z M 71.535156 240.94922 L 71.535156 247.28906 L 72.724609 247.28906 L 72.724609 240.94922 L 71.535156 240.94922 z M 125.55859 240.94922 L 125.55859 247.28906 L 126.74805 247.28906 L 126.74805 240.94922 L 125.55859 240.94922 z M 135.55469 240.94922 L 135.55469 244.69336 C 135.55469 245.62305 135.71484 246.30858 136.03516 246.75 C 136.35547 247.1914 136.80273 247.41211 137.37695 247.41211 C 137.7168 247.41211 138.01758 247.32822 138.2793 247.16016 C 138.54102 246.99217 138.75587 246.75194 138.92383 246.43945 L 139 247.28906 L 140.06055 247.28906 L 140.06055 240.94922 L 138.87109 240.94922 L 138.87109 245.70117 C 138.7539 245.95498 138.59569 246.15029 138.39648 246.28711 C 138.20117 246.42393 137.95703 246.49219 137.66406 246.49219 C 137.35546 246.49219 137.12304 246.35742 136.9668 246.08789 C 136.81446 245.81445 136.73828 245.35352 136.73828 244.70508 L 136.73828 240.94922 L 135.55469 240.94922 z M 140.98633 240.94922 L 142.66797 244.07812 L 140.93359 247.28906 L 142.28711 247.28906 L 143.33008 244.89844 L 143.36523 244.89844 L 144.40234 247.28906 L 145.75586 247.28906 L 144.01562 244.07812 L 145.69727 240.94922 L 144.33789 240.94922 L 143.3418 243.26367 L 143.30664 243.26367 L 142.33398 240.94922 L 140.98633 240.94922 z M 164.17188 240.94922 L 164.17188 247.28906 L 165.36133 247.28906 L 165.36133 240.94922 L 164.17188 240.94922 z M 202.22852 240.94922 L 202.22852 247.28906 L 203.41797 247.28906 L 203.41797 240.94922 L 202.22852 240.94922 z M 53.160156 241.74609 C 53.585928 241.74609 53.904286 241.93361 54.115234 242.30859 C 54.330088 242.67969 54.4375 243.1504 54.4375 243.7207 L 54.4375 244.5293 C 54.4375 245.10741 54.330088 245.58203 54.115234 245.95312 C 53.904296 246.3242 53.587889 246.50977 53.166016 246.50977 C 52.732431 246.50977 52.410167 246.3242 52.199219 245.95312 C 51.988271 245.58203 51.882812 245.10741 51.882812 244.5293 L 51.882812 243.7207 C 51.882812 243.14649 51.988271 242.67383 52.199219 242.30273 C 52.410157 241.93166 52.730469 241.74609 53.160156 241.74609 z M 174.86523 241.74609 C 175.291 241.74609 175.60936 241.93361 175.82031 242.30859 C 176.03517 242.67969 176.14258 243.1504 176.14258 243.7207 L 176.14258 244.5293 C 176.14258 245.10741 176.03517 245.58203 175.82031 245.95312 C 175.60938 246.3242 175.29297 246.50977 174.87109 246.50977 C 174.43749 246.50977 174.11522 246.3242 173.9043 245.95312 C 173.69335 245.58203 173.58789 245.10741 173.58789 244.5293 L 173.58789 243.7207 C 173.58789 243.14649 173.69335 242.67383 173.9043 242.30273 C 174.11523 241.93166 174.43554 241.74609 174.86523 241.74609 z M 195.15039 241.74609 C 195.49805 241.74609 195.76173 241.88868 195.94141 242.17383 C 196.12108 242.45898 196.21094 242.82618 196.21094 243.27539 L 196.21094 243.51562 L 193.97852 243.51562 C 194.00195 243.00393 194.11718 242.58204 194.32422 242.25 C 194.53125 241.91408 194.80664 241.74609 195.15039 241.74609 z M 59.03125 241.75781 C 59.437489 241.75781 59.742175 241.95508 59.945312 242.34961 C 60.15233 242.74024 60.255859 243.24611 60.255859 243.86719 L 60.255859 244.64648 C 60.255859 245.20507 60.154284 245.65624 59.951172 246 C 59.751953 246.33983 59.447266 246.50977 59.037109 246.50977 C 58.775382 246.50977 58.554679 246.44724 58.375 246.32227 C 58.195319 246.19346 58.05274 246.00985 57.947266 245.77148 L 57.947266 242.56641 C 58.056648 242.3165 58.201181 242.11924 58.380859 241.97461 C 58.560548 241.82998 58.777344 241.75781 59.03125 241.75781 z M 76.357422 241.75781 C 76.60743 241.75781 76.822274 241.83206 77.001953 241.98047 C 77.181639 242.12505 77.330075 242.32231 77.447266 242.57227 L 77.447266 245.73047 C 77.333973 245.97266 77.185537 246.16018 77.001953 246.29297 C 76.822267 246.42576 76.603515 246.49219 76.345703 246.49219 C 75.927723 246.49219 75.621082 246.32616 75.425781 245.99414 C 75.230455 245.65819 75.132812 245.20898 75.132812 244.64648 L 75.132812 243.86719 C 75.132812 243.2422 75.232434 242.73438 75.431641 242.34375 C 75.634765 241.95312 75.94336 241.75781 76.357422 241.75781 z M 156.9707 244.3418 L 157.87305 244.3418 L 157.87305 245.63672 C 157.76759 245.88284 157.59962 246.08792 157.36914 246.25195 C 157.14258 246.41598 156.89063 246.49805 156.61328 246.49805 C 156.35938 246.49805 156.16406 246.41025 156.02734 246.23438 C 155.89063 246.0586 155.82227 245.82812 155.82227 245.54297 C 155.82227 245.20709 155.92189 244.92391 156.12109 244.69336 C 156.32422 244.45903 156.60742 244.3418 156.9707 244.3418 z M 180.61328 244.3418 L 181.51562 244.3418 L 181.51562 245.63672 C 181.41016 245.88284 181.24219 246.08792 181.01172 246.25195 C 180.78516 246.41598 180.5332 246.49805 180.25586 246.49805 C 180.00195 246.49805 179.80664 246.41025 179.66992 246.23438 C 179.5332 246.0586 179.46484 245.82812 179.46484 245.54297 C 179.46484 245.20709 179.56444 244.92391 179.76367 244.69336 C 179.9668 244.45903 180.25 244.3418 180.61328 244.3418 z M 212.40625 244.3418 L 213.30859 244.3418 L 213.30859 245.63672 C 213.20313 245.88284 213.03516 246.08792 212.80469 246.25195 C 212.57812 246.41598 212.32617 246.49805 212.04883 246.49805 C 211.79492 246.49805 211.59961 246.41025 211.46289 246.23438 C 211.32617 246.0586 211.25781 245.82812 211.25781 245.54297 C 211.25781 245.20709 211.35743 244.92391 211.55664 244.69336 C 211.75977 244.45903 212.04297 244.3418 212.40625 244.3418 z M 223.83203 244.3418 L 224.73438 244.3418 L 224.73438 245.63672 C 224.62891 245.88284 224.46094 246.08792 224.23047 246.25195 C 224.00391 246.41598 223.75195 246.49805 223.47461 246.49805 C 223.2207 246.49805 223.02539 246.41025 222.88867 246.23438 C 222.75195 246.0586 222.68359 245.82812 222.68359 245.54297 C 222.68359 245.20709 222.78322 244.92391 222.98242 244.69336 C 223.18555 244.45903 223.46875 244.3418 223.83203 244.3418 z M 236.38281 246.09961 L 236.38281 247.28906 L 237.57812 247.28906 L 237.57812 246.09961 L 236.38281 246.09961 z M 245.64648 246.09961 L 245.64648 247.28906 L 246.8418 247.28906 L 246.8418 246.09961 L 245.64648 246.09961 z "
       transform="matrix(0.26458333,0,0,0.26458333,0,229.26664)" />
  </g>
</svg>
