<?xml version="1.0" encoding="UTF-8" standalone="no"?>
<svg
   width="256"
   height="256"
   viewBox="0 0 67.733332 67.733335"
   version="1.1"
   id="svg8"
   sodipodi:docname="calamares_install_image.svg"
   inkscape:version="1.2.2 (b0a8486541, 2022-12-01)"
   inkscape:export-filename="/home/uri/bitmap.png"
   inkscape:export-xdpi="96"
   inkscape:export-ydpi="96"
   xmlns:inkscape="http://www.inkscape.org/namespaces/inkscape"
   xmlns:sodipodi="http://sodipodi.sourceforge.net/DTD/sodipodi-0.dtd"
   xmlns="http://www.w3.org/2000/svg"
   xmlns:svg="http://www.w3.org/2000/svg"
   xmlns:rdf="http://www.w3.org/1999/02/22-rdf-syntax-ns#"
   xmlns:cc="http://creativecommons.org/ns#"
   xmlns:dc="http://purl.org/dc/elements/1.1/">
  <defs
     id="defs2" />
  <sodipodi:namedview
     id="base"
     pagecolor="#ffffff"
     bordercolor="#666666"
     borderopacity="1.0"
     inkscape:pageopacity="0.0"
     inkscape:pageshadow="2"
     inkscape:zoom="1"
     inkscape:cx="107.5"
     inkscape:cy="181"
     inkscape:document-units="px"
     inkscape:current-layer="layer1"
     showgrid="true"
     units="px"
     inkscape:showpageshadow="false"
     borderlayer="true"
     showguides="true"
     inkscape:guide-bbox="true"
     inkscape:window-width="2558"
     inkscape:window-height="1412"
     inkscape:window-x="0"
     inkscape:window-y="26"
     inkscape:window-maximized="1"
     inkscape:pagecheckerboard="true"
     inkscape:document-rotation="0"
     inkscape:deskcolor="#d1d1d1">
    <inkscape:grid
       type="xygrid"
       id="grid4485"
       empspacing="5" />
    <sodipodi:guide
       position="67.733334,67.733334"
       orientation="1,0"
       id="guide4487"
       inkscape:locked="false"
       inkscape:label="2560"
       inkscape:color="rgb(0,0,255)" />
    <sodipodi:guide
       position="0,0"
       orientation="1,0"
       id="guide4489"
       inkscape:locked="false"
       inkscape:label="1000"
       inkscape:color="rgb(0,0,255)" />
    <sodipodi:guide
       position="67.733333,33.866667"
       orientation="0,1"
       id="guide851"
       inkscape:locked="false" />
    <sodipodi:guide
       position="33.866666,67.733335"
       orientation="1,0"
       id="guide853"
       inkscape:locked="false" />
  </sodipodi:namedview>
  <metadata
     id="metadata5">
    <rdf:RDF>
      <cc:Work
         rdf:about="">
        <dc:format>image/svg+xml</dc:format>
        <dc:type
           rdf:resource="http://purl.org/dc/dcmitype/StillImage" />
      </cc:Work>
    </rdf:RDF>
  </metadata>
  <g
     inkscape:label="Capa 1"
     inkscape:groupmode="layer"
     id="layer1"
     transform="translate(0,-229.26664)">
    <rect
       style="opacity:1;fill:#2b2c31;fill-opacity:1;stroke:none;stroke-width:0.0611029;stroke-linecap:round;stroke-linejoin:round;stroke-miterlimit:4;stroke-dasharray:none;stroke-opacity:1"
       id="rect912"
       width="67.73333"
       height="67.73333"
       x="0"
       y="229.26665" />
    <path
       id="path423"
       style="font-size:3.175px;font-family:'Roboto Condensed';-inkscape-font-specification:'Roboto Condensed, ';fill:#ffffff;stroke-width:0.529167"
       d="M 21.414714 292.35375 L 21.414714 294.735 L 21.689115 294.735 L 21.689115 293.51647 C 21.722185 293.44307 21.765593 293.38365 21.81934 293.33818 C 21.874117 293.29271 21.935612 293.26997 22.003825 293.26997 C 22.091677 293.26997 22.157306 293.29788 22.200712 293.35368 C 22.245152 293.40846 22.267375 293.50148 22.267375 293.63274 L 22.267375 294.735 L 22.540226 294.735 L 22.540226 293.62033 C 22.536092 293.2245 22.385713 293.02657 22.089091 293.02657 C 21.926827 293.02657 21.793502 293.09427 21.689115 293.22966 L 21.689115 292.35375 L 21.414714 292.35375 z M 9.7084514 292.44676 C 9.510014 292.44676 9.325012 292.49844 9.1534465 292.60179 C 8.9829144 292.70411 8.8490722 292.84467 8.7519206 293.02347 C 8.6558026 293.20227 8.6077433 293.39606 8.6077433 293.60483 C 8.6077433 293.81051 8.654769 294.00222 8.74882 294.17999 C 8.842871 294.35776 8.975163 294.50038 9.145695 294.60787 C 9.3172606 294.71432 9.5048464 294.76755 9.7084514 294.76755 C 9.9130899 294.76755 10.100676 294.71381 10.271208 294.60632 C 10.442774 294.4978 10.575065 294.35466 10.668083 294.17689 C 10.761101 293.99912 10.807609 293.80844 10.807609 293.60483 C 10.807609 293.39606 10.759033 293.20227 10.661882 293.02347 C 10.565764 292.84467 10.432438 292.70411 10.261906 292.60179 C 10.091374 292.49844 9.9068886 292.44676 9.7084514 292.44676 z M 12.624036 292.44676 C 12.397758 292.45193 12.218214 292.53736 12.08505 292.70256 C 11.948625 292.87309 11.880412 293.10512 11.880412 293.39864 L 11.880412 293.80792 C 11.880412 294.10247 11.947074 294.33605 12.0804 294.50865 C 12.213725 294.68022 12.393559 294.766 12.619902 294.766 C 12.845211 294.766 13.01936 294.70192 13.14235 294.57376 C 13.266376 294.44561 13.334589 294.26061 13.346989 294.01876 L 13.060185 294.01876 C 13.044683 294.20893 13.004375 294.3407 12.939262 294.41408 C 12.87415 294.48747 12.767696 294.52416 12.619902 294.52416 C 12.472107 294.52416 12.359452 294.46318 12.281938 294.34122 C 12.205456 294.21927 12.167216 294.04408 12.167216 293.81567 L 12.167216 293.40174 C 12.167216 293.1692 12.208557 292.99299 12.291239 292.87309 C 12.373921 292.75217 12.492261 292.69171 12.646257 292.69171 C 12.77958 292.69171 12.8788 292.73099 12.943913 292.80953 C 13.009027 292.88808 13.047785 293.01933 13.060185 293.20331 L 13.346989 293.20331 C 13.336654 292.96043 13.271541 292.77388 13.151652 292.64365 C 13.032797 292.51239 12.864331 292.44676 12.646257 292.44676 C 12.63886 292.44676 12.631335 292.4466 12.624036 292.44676 z M 19.275309 292.44676 C 19.228378 292.44864 19.192564 292.46476 19.168339 292.49482 C 19.142499 292.52684 19.129582 292.56611 19.129582 292.61264 C 19.129582 292.65916 19.142499 292.69792 19.168339 292.72892 C 19.19418 292.75992 19.232938 292.77543 19.284611 292.77543 C 19.33732 292.77543 19.376593 292.75992 19.402433 292.72892 C 19.428273 292.69793 19.441191 292.65918 19.441191 292.61264 C 19.441191 292.5672 19.427756 292.52844 19.400883 292.49637 C 19.375042 292.46331 19.336284 292.44676 19.284611 292.44676 C 19.281381 292.44676 19.278438 292.44664 19.275309 292.44676 z M 25.17004 292.44676 C 24.98328 292.45064 24.834724 292.51484 24.724589 292.639 C 24.610901 292.76716 24.554057 292.93511 24.554057 293.14284 L 24.828459 293.14284 C 24.828459 292.99402 24.859463 292.88033 24.921476 292.80178 C 24.984522 292.7222 25.073405 292.68241 25.188127 292.68241 C 25.279075 292.68241 25.352455 292.71962 25.408268 292.79403 C 25.464082 292.86844 25.491984 292.9656 25.491984 293.08548 C 25.491984 293.17954 25.472863 293.26894 25.434623 293.35368 C 25.397416 293.4374 25.330236 293.54489 25.233085 293.67615 L 24.589714 294.52881 L 24.589714 294.735 L 25.851652 294.735 L 25.851652 294.5009 L 24.916825 294.5009 L 25.41912 293.84358 C 25.651664 293.53868 25.767936 293.27462 25.767936 293.05138 C 25.767936 292.86844 25.71626 292.7222 25.612907 292.61264 C 25.509554 292.50206 25.367961 292.44676 25.188127 292.44676 C 25.182022 292.44676 25.176064 292.44664 25.17004 292.44676 z M 26.737903 292.44676 C 26.540943 292.45168 26.394804 292.53296 26.299687 292.69016 C 26.202535 292.85242 26.153959 293.0984 26.153959 293.4281 L 26.153959 293.81567 C 26.158093 294.13296 26.209769 294.37067 26.308989 294.52881 C 26.408207 294.68693 26.558586 294.766 26.760124 294.766 C 26.967863 294.766 27.120309 294.68384 27.21746 294.5195 C 27.314612 294.35414 27.363188 294.10506 27.363188 293.77226 L 27.363188 293.37694 C 27.35802 293.06481 27.306343 292.83175 27.208158 292.67776 C 27.111007 292.52376 26.960628 292.44676 26.757023 292.44676 C 26.750564 292.44676 26.744256 292.4466 26.737903 292.44676 z M 28.304732 292.44676 C 28.117971 292.45064 27.969417 292.51484 27.859281 292.639 C 27.745594 292.76716 27.688749 292.93511 27.688749 293.14284 L 27.963151 293.14284 C 27.963151 292.99402 27.994155 292.88033 28.056169 292.80178 C 28.119214 292.7222 28.208097 292.68241 28.322819 292.68241 C 28.413766 292.68241 28.487147 292.71962 28.542961 292.79403 C 28.598774 292.86844 28.626677 292.9656 28.626677 293.08548 C 28.626677 293.17954 28.607556 293.26894 28.569316 293.35368 C 28.532109 293.4374 28.464929 293.54489 28.367778 293.67615 L 27.724406 294.52881 L 27.724406 294.735 L 28.986344 294.735 L 28.986344 294.5009 L 28.051518 294.5009 L 28.553813 293.84358 C 28.786357 293.53868 28.902629 293.27462 28.902629 293.05138 C 28.902629 292.86844 28.850952 292.7222 28.747599 292.61264 C 28.644247 292.50206 28.502653 292.44676 28.322819 292.44676 C 28.316715 292.44676 28.310757 292.44664 28.304732 292.44676 z M 29.84624 292.44676 C 29.681882 292.45033 29.546161 292.50935 29.43903 292.6235 C 29.329476 292.74028 29.274699 292.88911 29.274699 293.06998 L 29.547551 293.06998 C 29.547551 292.95423 29.575453 292.86069 29.631266 292.78938 C 29.687077 292.71806 29.764075 292.68241 29.86226 292.68241 C 30.066898 292.68241 30.169218 292.8147 30.169218 293.07928 C 30.169218 293.19918 30.138731 293.29374 30.077751 293.36299 C 30.016772 293.43223 29.929956 293.46686 29.817302 293.46686 L 29.642118 293.46686 L 29.642118 293.70095 L 29.806449 293.70095 C 30.065865 293.70095 30.195573 293.83789 30.195573 294.11178 C 30.195573 294.25337 30.165086 294.35879 30.104106 294.42804 C 30.044161 294.49728 29.963029 294.53191 29.86071 294.53191 C 29.76046 294.53191 29.681395 294.49677 29.623515 294.42649 C 29.565635 294.35517 29.536698 294.25958 29.536698 294.13968 L 29.262297 294.13968 C 29.262297 294.33089 29.317073 294.48333 29.426628 294.59702 C 29.537215 294.70967 29.681909 294.766 29.86071 294.766 C 30.041577 294.766 30.187822 294.70657 30.299443 294.58772 C 30.412097 294.46782 30.468425 294.30711 30.468425 294.10558 C 30.468425 293.83169 30.361971 293.65547 30.149064 293.57693 C 30.235877 293.53455 30.306157 293.4684 30.359904 293.37849 C 30.414677 293.28754 30.44207 293.18987 30.44207 293.08548 C 30.44207 292.88188 30.389876 292.72479 30.28549 292.61419 C 30.181103 292.50257 30.040026 292.44676 29.86226 292.44676 C 29.856899 292.44676 29.851542 292.44665 29.84624 292.44676 z M 33.72714 292.44676 C 33.680209 292.44864 33.644395 292.46476 33.62017 292.49482 C 33.59433 292.52684 33.581413 292.56611 33.581413 292.61264 C 33.581413 292.65916 33.59433 292.69792 33.62017 292.72892 C 33.646011 292.75992 33.684769 292.77543 33.736442 292.77543 C 33.78915 292.77543 33.828424 292.75992 33.854264 292.72892 C 33.880104 292.69793 33.893022 292.65918 33.893022 292.61264 C 33.893022 292.5672 33.879587 292.52844 33.852714 292.49637 C 33.826873 292.46331 33.788115 292.44676 33.736442 292.44676 C 33.733212 292.44676 33.730269 292.44664 33.72714 292.44676 z M 43.980778 292.44676 C 43.933847 292.44864 43.898033 292.46476 43.873808 292.49482 C 43.847968 292.52684 43.835051 292.56611 43.835051 292.61264 C 43.835051 292.65916 43.847968 292.69792 43.873808 292.72892 C 43.899649 292.75992 43.938407 292.77543 43.99008 292.77543 C 44.042788 292.77543 44.082062 292.75992 44.107902 292.72892 C 44.133742 292.69793 44.146659 292.65918 44.146659 292.61264 C 44.146659 292.5672 44.133225 292.52844 44.106352 292.49637 C 44.080511 292.46331 44.041753 292.44676 43.99008 292.44676 C 43.98685 292.44676 43.983907 292.44664 43.980778 292.44676 z M 54.200309 292.44676 C 54.153378 292.44864 54.117564 292.46476 54.093339 292.49482 C 54.067499 292.52684 54.054582 292.56611 54.054582 292.61264 C 54.054582 292.65916 54.067499 292.69792 54.093339 292.72892 C 54.119174 292.75992 54.157931 292.77543 54.209611 292.77543 C 54.262319 292.77543 54.301593 292.75992 54.327433 292.72892 C 54.353273 292.69793 54.366191 292.65918 54.366191 292.61264 C 54.366191 292.5672 54.352756 292.52844 54.325883 292.49637 C 54.300042 292.46331 54.261284 292.44676 54.209611 292.44676 C 54.206381 292.44676 54.203438 292.44664 54.200309 292.44676 z M 62.181218 292.44676 C 61.987948 292.44676 61.831368 292.50464 61.711479 292.6204 C 61.592623 292.73615 61.533195 292.88343 61.533195 293.06223 C 61.533195 293.16558 61.553867 293.25757 61.595207 293.33818 C 61.637581 293.41774 61.700627 293.48906 61.784343 293.55212 C 61.869092 293.61412 61.991049 293.67354 62.150212 293.73041 C 62.309373 293.78726 62.419444 293.84566 62.480424 293.90559 C 62.541404 293.96554 62.571891 294.05183 62.571891 294.16449 C 62.571891 294.27509 62.54037 294.36242 62.477324 294.42649 C 62.414278 294.49055 62.320227 294.52261 62.19517 294.52261 C 62.060812 294.52261 61.954358 294.48385 61.87581 294.40633 C 61.798295 294.32882 61.759538 294.2203 61.759538 294.08077 L 61.474284 294.08077 C 61.474284 294.21513 61.505805 294.3345 61.568852 294.43889 C 61.63293 294.54226 61.720263 294.62287 61.830851 294.68074 C 61.942472 294.7376 62.063912 294.766 62.19517 294.766 C 62.399809 294.766 62.561556 294.71122 62.680412 294.60167 C 62.799268 294.49108 62.858696 294.34432 62.858696 294.16139 C 62.858696 293.98775 62.810636 293.84719 62.714518 293.73971 C 62.619434 293.63222 62.460787 293.54179 62.238578 293.46841 C 62.095951 293.41775 61.990531 293.36039 61.922319 293.29632 C 61.854105 293.23225 61.819999 293.15267 61.819999 293.05758 C 61.819999 292.94181 61.851521 292.85189 61.914567 292.78783 C 61.977612 292.72376 62.066496 292.69171 62.181218 292.69171 C 62.307307 292.69171 62.403942 292.72995 62.471122 292.80643 C 62.538302 292.88291 62.571891 292.99092 62.571891 293.13044 L 62.857145 293.13044 C 62.857145 293.00436 62.829243 292.8886 62.77343 292.78318 C 62.717619 292.67778 62.638037 292.59561 62.534684 292.53668 C 62.431331 292.47675 62.313509 292.44676 62.181218 292.44676 z M 64.758838 292.44676 C 64.53256 292.45193 64.353016 292.53736 64.219853 292.70256 C 64.083427 292.87309 64.015214 293.10512 64.015214 293.39864 L 64.015214 293.80792 C 64.015214 294.10247 64.081877 294.33605 64.215202 294.50865 C 64.348527 294.68022 64.528361 294.766 64.754704 294.766 C 64.980013 294.766 65.154163 294.70192 65.277153 294.57376 C 65.401178 294.44561 65.469391 294.26061 65.481791 294.01876 L 65.194987 294.01876 C 65.179485 294.20893 65.139178 294.3407 65.074064 294.41408 C 65.008952 294.48747 64.902498 294.52416 64.754704 294.52416 C 64.606909 294.52416 64.494255 294.46318 64.41674 294.34122 C 64.340259 294.21927 64.302018 294.04408 64.302018 293.81567 L 64.302018 293.40174 C 64.302018 293.1692 64.34336 292.99299 64.426042 292.87309 C 64.508724 292.75217 64.627063 292.69171 64.781059 292.69171 C 64.914383 292.69171 65.013602 292.73099 65.078715 292.80953 C 65.14383 292.88808 65.182587 293.01933 65.194987 293.20331 L 65.481791 293.20331 C 65.471457 292.96043 65.406344 292.77388 65.286454 292.64365 C 65.167599 292.51239 64.999133 292.44676 64.781059 292.44676 C 64.773663 292.44676 64.766137 292.4466 64.758838 292.44676 z M 31.648198 292.47777 L 31.648198 294.735 L 31.933451 294.735 L 31.933451 292.99557 L 32.837272 294.735 L 33.122526 294.735 L 33.122526 292.47777 L 32.840373 292.47777 L 32.840373 294.22495 L 31.933451 292.47777 L 31.648198 292.47777 z M 39.900407 292.47777 L 39.900407 294.735 L 41.070878 294.735 L 41.070878 294.4916 L 40.185661 294.4916 L 40.185661 292.47777 L 39.900407 292.47777 z M 9.7084514 292.6328 C 9.8748493 292.6328 10.028845 292.67621 10.170439 292.76302 C 10.313066 292.84881 10.425204 292.96663 10.506852 293.11649 C 10.588501 293.26635 10.629325 293.42913 10.629325 293.60483 C 10.629325 293.7826 10.587985 293.94744 10.505302 294.09938 C 10.42262 294.25027 10.310482 294.36861 10.168888 294.45439 C 10.027295 294.54018 9.8738157 294.58307 9.7084514 294.58307 C 9.5430869 294.58307 9.3890908 294.54018 9.2464641 294.45439 C 9.1048707 294.36861 8.9927327 294.25027 8.9100505 294.09938 C 8.8273683 293.94744 8.786027 293.7826 8.786027 293.60483 C 8.786027 293.42913 8.8268515 293.26583 8.9085002 293.11494 C 8.9911824 292.96405 9.1038372 292.84623 9.2464641 292.76147 C 9.3890908 292.67569 9.5430869 292.6328 9.7084514 292.6328 z M 23.03477 292.6514 L 23.03477 293.05758 L 22.778971 293.05758 L 22.778971 293.27927 L 23.03477 293.27927 L 23.03477 294.32107 C 23.03477 294.46266 23.063189 294.57222 23.120036 294.64973 C 23.17688 294.72724 23.259562 294.766 23.368083 294.766 C 23.433193 294.766 23.496756 294.75566 23.558769 294.735 L 23.561869 294.50245 C 23.524663 294.51485 23.487972 294.52106 23.451799 294.52106 C 23.399091 294.52106 23.361884 294.50403 23.340177 294.4699 C 23.318471 294.43578 23.307621 294.38565 23.307621 294.31952 L 23.307621 293.27927 L 23.560319 293.27927 L 23.560319 293.05758 L 23.307621 293.05758 L 23.307621 292.6514 L 23.03477 292.6514 z M 34.389115 292.6514 L 34.389115 293.05758 L 34.133317 293.05758 L 34.133317 293.27927 L 34.389115 293.27927 L 34.389115 294.32107 C 34.389115 294.46266 34.417535 294.57222 34.474382 294.64973 C 34.531226 294.72724 34.613908 294.766 34.722428 294.766 C 34.787539 294.766 34.851101 294.75566 34.913115 294.735 L 34.916215 294.50245 C 34.879008 294.51485 34.842318 294.52106 34.806144 294.52106 C 34.753437 294.52106 34.71623 294.50403 34.694523 294.4699 C 34.672817 294.43578 34.661967 294.38565 34.661967 294.31952 L 34.661967 293.27927 L 34.914665 293.27927 L 34.914665 293.05758 L 34.661967 293.05758 L 34.661967 292.6514 L 34.389115 292.6514 z M 42.977739 292.6514 L 42.977739 293.05758 L 42.72194 293.05758 L 42.72194 293.27927 L 42.977739 293.27927 L 42.977739 294.32107 C 42.977739 294.46266 43.006158 294.57222 43.063005 294.64973 C 43.119849 294.72724 43.202531 294.766 43.311052 294.766 C 43.376162 294.766 43.439724 294.75566 43.501738 294.735 L 43.504838 294.50245 C 43.467631 294.51485 43.430941 294.52106 43.394767 294.52106 C 43.34206 294.52106 43.304853 294.50403 43.283146 294.4699 C 43.26144 294.43578 43.25059 294.38565 43.25059 294.31952 L 43.25059 293.27927 L 43.503288 293.27927 L 43.503288 293.05758 L 43.25059 293.05758 L 43.25059 292.6514 L 42.977739 292.6514 z M 26.757023 292.68241 C 26.872782 292.68241 26.957014 292.73925 27.009721 292.85294 C 27.062428 292.96559 27.088786 293.14129 27.088786 293.38004 L 27.088786 293.84668 C 27.086713 294.07818 27.059327 294.25027 27.00662 294.36293 C 26.95391 294.47558 26.871744 294.53191 26.760124 294.53191 C 26.647472 294.53191 26.563756 294.47248 26.508976 294.35362 C 26.454203 294.23374 26.426811 294.05494 26.426811 293.81722 L 26.426811 293.35213 C 26.428877 293.12786 26.45627 292.96043 26.508976 292.84984 C 26.561686 292.73822 26.644369 292.68241 26.757023 292.68241 z M 9.6882975 292.9165 C 9.5281008 292.9165 9.3983927 292.97128 9.299174 293.08083 C 9.2009889 293.18935 9.1518962 293.33456 9.1518962 293.51647 L 9.1518962 293.687 C 9.1518962 293.8751 9.2004722 294.02393 9.2976237 294.13348 C 9.3958089 294.242 9.5260337 294.29626 9.6882975 294.29626 C 9.8515949 294.29626 9.9776853 294.25492 10.066569 294.17224 C 10.156486 294.08853 10.201445 293.9676 10.201445 293.80947 L 9.9751017 293.80947 C 9.9751017 293.91386 9.9508139 293.98776 9.902238 294.03116 C 9.8546957 294.07456 9.7833821 294.09627 9.6882975 294.09627 C 9.591146 294.09627 9.5146648 294.06062 9.4588542 293.9893 C 9.4030436 293.91799 9.3751384 293.82032 9.3751384 293.6963 L 9.3751384 293.52112 C 9.3751384 293.39399 9.4030436 293.29477 9.4588542 293.22346 C 9.5146647 293.15215 9.5911459 293.11649 9.6882975 293.11649 C 9.7823484 293.11649 9.853662 293.13869 9.902238 293.18315 C 9.9518473 293.22656 9.976652 293.29942 9.976652 293.40174 L 10.202995 293.40174 C 10.202995 293.24775 10.158553 293.12837 10.06967 293.04363 C 9.9807863 292.95887 9.8536619 292.9165 9.6882975 292.9165 z M 14.263729 293.02657 C 14.077782 293.03089 13.927218 293.10234 13.812077 293.24051 C 13.694255 293.38211 13.635343 293.57486 13.635343 293.81877 L 13.635343 294.00171 C 13.639477 294.23631 13.699939 294.42235 13.816728 294.55981 C 13.93455 294.69727 14.090613 294.766 14.284916 294.766 C 14.481287 294.766 14.638383 294.6952 14.756205 294.55361 C 14.874028 294.41202 14.932939 294.21978 14.932939 293.9769 L 14.932939 293.80017 C 14.929838 293.56142 14.86886 293.37281 14.750004 293.23431 C 14.632182 293.09582 14.476119 293.02657 14.281816 293.02657 C 14.275744 293.02657 14.269727 293.02643 14.263729 293.02657 z M 15.92926 293.02657 C 15.765466 293.03095 15.639065 293.10344 15.549955 293.24361 L 15.536003 293.05758 L 15.287956 293.05758 L 15.287956 295.37992 L 15.560807 295.37992 L 15.560807 294.57532 C 15.651757 294.70244 15.781466 294.766 15.949931 294.766 C 16.124597 294.766 16.259473 294.70089 16.354557 294.57066 C 16.450675 294.44044 16.498735 294.24252 16.498735 293.9769 L 16.498735 293.79397 C 16.495634 293.53869 16.448608 293.34697 16.357658 293.21881 C 16.266707 293.09065 16.129248 293.02657 15.94528 293.02657 C 15.939919 293.02657 15.934544 293.02643 15.92926 293.02657 z M 18.728056 293.02657 C 18.599742 293.03064 18.499937 293.09795 18.428849 293.22811 L 18.424198 293.05758 L 18.157548 293.05758 L 18.157548 294.735 L 18.43195 294.735 L 18.43195 293.53507 C 18.487761 293.38107 18.585946 293.30408 18.726506 293.30408 C 18.770948 293.30408 18.812289 293.30766 18.850529 293.31493 L 18.848979 293.04828 C 18.820038 293.03381 18.783865 293.02657 18.740458 293.02657 C 18.73626 293.02657 18.732195 293.02644 18.728056 293.02657 z M 20.33881 293.02657 C 20.164253 293.03064 20.030948 293.09795 19.938835 293.22811 C 19.84375 293.36144 19.796208 293.55884 19.796208 293.82032 L 19.796208 294.00636 C 19.800342 294.2513 19.850985 294.43941 19.948136 294.57066 C 20.045288 294.70089 20.180681 294.766 20.354313 294.766 C 20.51761 294.766 20.643701 294.70037 20.732585 294.56911 L 20.732585 294.78771 C 20.726383 295.03679 20.609078 295.16133 20.380668 295.16133 C 20.243209 295.16133 20.117635 295.10552 20.003947 294.99389 L 19.892326 295.18303 C 19.944002 295.24295 20.021 295.29308 20.12332 295.33341 C 20.226673 295.37474 20.31969 295.39542 20.402372 295.39542 C 20.592541 295.39542 20.740853 295.33961 20.847306 295.22799 C 20.95376 295.1174 21.006987 294.95824 21.006987 294.7505 L 21.006987 293.05758 L 20.75894 293.05758 L 20.744987 293.24516 C 20.656104 293.09944 20.526396 293.02657 20.355863 293.02657 C 20.350147 293.02657 20.344441 293.02644 20.33881 293.02657 z M 35.810734 293.02657 C 35.68242 293.03064 35.582615 293.09795 35.511528 293.22811 L 35.506877 293.05758 L 35.240226 293.05758 L 35.240226 294.735 L 35.514628 294.735 L 35.514628 293.53507 C 35.570439 293.38107 35.668624 293.30408 35.809184 293.30408 C 35.853626 293.30408 35.894967 293.30766 35.933207 293.31493 L 35.931657 293.04828 C 35.902716 293.03381 35.866543 293.02657 35.823136 293.02657 C 35.818938 293.02657 35.814873 293.02644 35.810734 293.02657 z M 41.917855 293.02657 C 41.820174 293.02918 41.731109 293.05155 41.650688 293.09324 C 41.564902 293.13768 41.496689 293.19917 41.446049 293.27772 C 41.395409 293.35523 41.370085 293.43688 41.370085 293.52267 L 41.644487 293.52267 C 41.644487 293.44724 41.670328 293.38523 41.722001 293.33663 C 41.773678 293.28703 41.840857 293.26222 41.923539 293.26222 C 42.014491 293.26222 42.082188 293.28338 42.126628 293.32578 C 42.171068 293.36815 42.19329 293.43947 42.19329 293.53972 L 42.19329 293.718 L 41.991752 293.718 C 41.790214 293.72007 41.631567 293.77123 41.515812 293.87148 C 41.400058 293.97174 41.342179 294.10713 41.342179 294.27766 C 41.342179 294.43269 41.384554 294.55309 41.469303 294.63888 C 41.555086 294.72362 41.673942 294.766 41.825871 294.766 C 41.976766 294.766 42.10079 294.69469 42.197941 294.55206 C 42.205175 294.63782 42.217058 294.6988 42.233598 294.735 L 42.518852 294.735 L 42.518852 294.71019 C 42.484779 294.6151 42.467209 294.50296 42.466142 294.37378 L 42.466142 293.52732 C 42.464075 293.36402 42.418082 293.23999 42.328166 293.15525 C 42.239283 293.06946 42.109058 293.02657 41.937492 293.02657 C 41.930903 293.02657 41.924367 293.0264 41.917855 293.02657 z M 45.214811 293.02657 C 45.056399 293.03086 44.925714 293.10179 44.822587 293.23896 L 44.814836 293.05758 L 44.555937 293.05758 L 44.555937 294.735 L 44.830339 294.735 L 44.830339 293.51647 C 44.863408 293.44307 44.906817 293.38365 44.960563 293.33818 C 45.015341 293.29271 45.076836 293.26997 45.145048 293.26997 C 45.2329 293.26997 45.298529 293.29788 45.341935 293.35368 C 45.386375 293.40846 45.408598 293.50148 45.408598 293.63274 L 45.408598 294.735 L 45.681449 294.735 L 45.681449 293.62033 C 45.677315 293.2245 45.526937 293.02657 45.230314 293.02657 C 45.225147 293.02657 45.219921 293.02643 45.214811 293.02657 z M 46.663302 293.02657 C 46.477355 293.03089 46.326791 293.10234 46.21165 293.24051 C 46.093828 293.38211 46.034916 293.57486 46.034916 293.81877 L 46.034916 294.00171 C 46.03905 294.23631 46.099512 294.42235 46.216301 294.55981 C 46.334123 294.69727 46.490186 294.766 46.684489 294.766 C 46.880859 294.766 47.037956 294.6952 47.155778 294.55361 C 47.2736 294.41202 47.332512 294.21978 47.332512 293.9769 L 47.332512 293.80017 C 47.329411 293.56142 47.268432 293.37281 47.149577 293.23431 C 47.031754 293.09582 46.875692 293.02657 46.681388 293.02657 C 46.675316 293.02657 46.6693 293.02643 46.663302 293.02657 z M 48.233748 293.02657 C 48.136069 293.02918 48.047003 293.05155 47.966581 293.09324 C 47.880796 293.13768 47.812583 293.19917 47.761943 293.27772 C 47.711296 293.35523 47.685978 293.43688 47.685978 293.52267 L 47.96038 293.52267 C 47.96038 293.44724 47.986222 293.38523 48.037895 293.33663 C 48.089571 293.28703 48.15675 293.26222 48.239433 293.26222 C 48.330385 293.26222 48.398081 293.28338 48.442521 293.32578 C 48.486961 293.36815 48.509184 293.43947 48.509184 293.53972 L 48.509184 293.718 L 48.307646 293.718 C 48.106108 293.72007 47.947461 293.77123 47.831706 293.87148 C 47.715951 293.97174 47.658073 294.10713 47.658073 294.27766 C 47.658073 294.43269 47.700448 294.55309 47.785197 294.63888 C 47.87098 294.72362 47.989836 294.766 48.141764 294.766 C 48.29266 294.766 48.416683 294.69469 48.513835 294.55206 C 48.521075 294.63782 48.532958 294.6988 48.549491 294.735 L 48.834745 294.735 L 48.834745 294.71019 C 48.800672 294.6151 48.783102 294.50296 48.782035 294.37378 L 48.782035 293.52732 C 48.779969 293.36402 48.733977 293.23999 48.644059 293.15525 C 48.555176 293.06946 48.424951 293.02657 48.253386 293.02657 C 48.246797 293.02657 48.24026 293.0264 48.233748 293.02657 z M 49.861039 293.02657 C 49.700812 293.03033 49.571038 293.09246 49.471916 293.21261 L 49.465715 293.05758 L 49.208366 293.05758 L 49.208366 294.735 L 49.481218 294.735 L 49.481218 293.47771 C 49.538062 293.33921 49.63573 293.26997 49.774223 293.26997 C 49.960225 293.26997 50.054793 293.38624 50.057927 293.61878 L 50.057927 294.735 L 50.333879 294.735 L 50.333879 293.61103 C 50.342145 293.51181 50.372116 293.43015 50.423796 293.36609 C 50.475472 293.30202 50.542652 293.26997 50.625334 293.26997 C 50.728688 293.26997 50.802069 293.29995 50.845475 293.35989 C 50.888882 293.41879 50.910588 293.50923 50.910588 293.63119 L 50.910588 294.735 L 51.183439 294.735 L 51.183439 293.60483 C 51.176205 293.21933 51.018074 293.02657 50.70905 293.02657 C 50.520947 293.02657 50.374186 293.1077 50.268766 293.26997 C 50.194352 293.1077 50.063611 293.02657 49.876542 293.02657 C 49.87131 293.02657 49.866208 293.02645 49.861039 293.02657 z M 52.146688 293.02657 C 51.960053 293.03089 51.813569 293.10234 51.707438 293.24051 C 51.598918 293.38211 51.544658 293.57796 51.544658 293.82807 L 51.544658 294.03116 C 51.546725 294.27198 51.603569 294.45491 51.71519 294.57997 C 51.826811 294.70399 51.987008 294.766 52.195781 294.766 C 52.439693 294.766 52.621078 294.68229 52.739933 294.51485 L 52.597306 294.34122 C 52.543564 294.40737 52.485687 294.45595 52.423674 294.48695 C 52.362696 294.51695 52.291899 294.53191 52.211283 294.53191 C 52.08416 294.53191 51.986491 294.49109 51.918278 294.40943 C 51.851099 294.32779 51.817509 294.19704 51.817509 294.01721 L 51.817509 293.97845 L 52.753886 293.97845 L 52.753886 293.79862 C 52.751819 293.53403 52.702209 293.33921 52.605058 293.21416 C 52.507906 293.0891 52.361145 293.02657 52.164775 293.02657 C 52.15867 293.02657 52.152708 293.02643 52.146688 293.02657 z M 53.653056 293.02657 C 53.524742 293.03064 53.424936 293.09795 53.353849 293.22811 L 53.349199 293.05758 L 53.082548 293.05758 L 53.082548 294.735 L 53.35695 294.735 L 53.35695 293.53507 C 53.412761 293.38107 53.510946 293.30408 53.651506 293.30408 C 53.695948 293.30408 53.737289 293.30766 53.775529 293.31493 L 53.773979 293.04828 C 53.745038 293.03381 53.708865 293.02657 53.665458 293.02657 C 53.66126 293.02657 53.657195 293.02644 53.653056 293.02657 z M 55.337708 293.02657 C 55.139464 293.03058 54.987568 293.09685 54.882438 293.22501 C 54.773918 293.35627 54.719658 293.54851 54.719658 293.80172 L 54.719658 293.9862 C 54.719658 294.24459 54.773918 294.43941 54.882438 294.57066 C 54.991992 294.70089 55.150639 294.766 55.358378 294.766 C 55.514441 294.766 55.646216 294.71329 55.753703 294.60787 C 55.862225 294.50142 55.919585 294.36757 55.925785 294.20635 L 55.666887 294.20635 C 55.661713 294.31071 55.631743 294.39132 55.57697 294.44819 C 55.522192 294.50399 55.449329 294.53191 55.358378 294.53191 C 55.23229 294.53191 55.139789 294.49109 55.080876 294.40943 C 55.022996 294.32779 54.994059 294.18826 54.994059 293.99085 L 54.994059 293.77691 C 54.996126 293.59398 55.026613 293.46272 55.085527 293.38314 C 55.144437 293.30253 55.234871 293.26222 55.356828 293.26222 C 55.450883 293.26222 55.524263 293.29323 55.57697 293.35523 C 55.630716 293.41725 55.660687 293.51026 55.666887 293.63429 L 55.925785 293.63429 C 55.919584 293.44618 55.865841 293.29787 55.764555 293.18935 C 55.664303 293.08083 55.528394 293.02657 55.356828 293.02657 C 55.350336 293.02657 55.344103 293.02644 55.337708 293.02657 z M 56.789815 293.02657 C 56.692135 293.02918 56.603069 293.05155 56.522648 293.09324 C 56.436862 293.13768 56.36865 293.19917 56.31801 293.27772 C 56.26737 293.35523 56.242045 293.43688 56.242045 293.52267 L 56.516447 293.52267 C 56.516447 293.44724 56.542288 293.38523 56.593962 293.33663 C 56.645638 293.28703 56.712818 293.26222 56.7955 293.26222 C 56.886452 293.26222 56.954148 293.28338 56.998588 293.32578 C 57.043028 293.36815 57.065251 293.43947 57.065251 293.53972 L 57.065251 293.718 L 56.863713 293.718 C 56.662175 293.72007 56.503528 293.77123 56.387773 293.87148 C 56.272018 293.97174 56.21414 294.10713 56.21414 294.27766 C 56.21414 294.43269 56.256515 294.55309 56.341264 294.63888 C 56.427047 294.72362 56.545903 294.766 56.697831 294.766 C 56.848727 294.766 56.97275 294.69469 57.069902 294.55206 C 57.077135 294.63782 57.089018 294.6988 57.105558 294.735 L 57.390812 294.735 L 57.390812 294.71019 C 57.356739 294.6151 57.339169 294.50296 57.338102 294.37378 L 57.338102 293.52732 C 57.336035 293.36402 57.290043 293.23999 57.200126 293.15525 C 57.111242 293.06946 56.981018 293.02657 56.809452 293.02657 C 56.802864 293.02657 56.796327 293.0264 56.789815 293.02657 z M 58.421757 293.02657 C 58.263344 293.03086 58.13266 293.10179 58.029533 293.23896 L 58.021782 293.05758 L 57.762883 293.05758 L 57.762883 294.735 L 58.037284 294.735 L 58.037284 293.51647 C 58.070354 293.44307 58.113762 293.38365 58.167509 293.33818 C 58.222286 293.29271 58.283781 293.26997 58.351994 293.26997 C 58.439845 293.26997 58.505475 293.29788 58.548881 293.35368 C 58.593321 293.40846 58.615544 293.50148 58.615544 293.63274 L 58.615544 294.735 L 58.888395 294.735 L 58.888395 293.62033 C 58.884261 293.2245 58.733882 293.02657 58.43726 293.02657 C 58.432092 293.02657 58.426867 293.02643 58.421757 293.02657 z M 59.846993 293.02657 C 59.749313 293.02918 59.660247 293.05155 59.579826 293.09324 C 59.494047 293.13768 59.425834 293.19917 59.375187 293.27772 C 59.324547 293.35523 59.299223 293.43688 59.299223 293.52267 L 59.573625 293.52267 C 59.573625 293.44724 59.599466 293.38523 59.651139 293.33663 C 59.702815 293.28703 59.769995 293.26222 59.852678 293.26222 C 59.943629 293.26222 60.011326 293.28338 60.055766 293.32578 C 60.100206 293.36815 60.122429 293.43947 60.122429 293.53972 L 60.122429 293.718 L 59.92089 293.718 C 59.719352 293.72007 59.560705 293.77123 59.444951 293.87148 C 59.329195 293.97174 59.271318 294.10713 59.271318 294.27766 C 59.271318 294.43269 59.313692 294.55309 59.398442 294.63888 C 59.484224 294.72362 59.603081 294.766 59.755009 294.766 C 59.905904 294.766 60.029928 294.69469 60.127079 294.55206 C 60.134319 294.63782 60.146203 294.6988 60.162736 294.735 L 60.44799 294.735 L 60.44799 294.71019 C 60.413917 294.6151 60.396347 294.50296 60.39528 294.37378 L 60.39528 293.52732 C 60.393213 293.36402 60.347221 293.23999 60.257304 293.15525 C 60.168421 293.06946 60.038196 293.02657 59.86663 293.02657 C 59.860041 293.02657 59.853505 293.0264 59.846993 293.02657 z M 16.68477 293.05706 L 17.177763 294.72053 L 17.123503 294.90863 C 17.095595 295.00165 17.058905 295.06677 17.013432 295.10397 C 16.96899 295.14223 16.906978 295.16133 16.827397 295.16133 L 16.766935 295.15512 L 16.766935 295.38767 C 16.824813 295.4042 16.872356 295.41247 16.909562 295.41247 C 17.00568 295.41247 17.091463 295.37475 17.166911 295.2993 C 17.242359 295.22489 17.300754 295.11585 17.342094 294.97219 L 17.890898 293.05758 L 17.599443 293.05758 L 17.294035 294.27921 L 16.983976 293.05706 L 16.68477 293.05706 z M 19.145085 293.05758 L 19.145085 294.735 L 19.419487 294.735 L 19.419487 293.05758 L 19.145085 293.05758 z M 33.596916 293.05758 L 33.596916 294.735 L 33.871318 294.735 L 33.871318 293.05758 L 33.596916 293.05758 z M 36.201408 293.05758 L 36.201408 294.15054 C 36.202441 294.35104 36.241716 294.504 36.31923 294.60942 C 36.396745 294.71381 36.511467 294.766 36.663395 294.766 C 36.838062 294.766 36.970871 294.70657 37.061821 294.58772 L 37.068022 294.735 L 37.328471 294.735 L 37.328471 293.05758 L 37.054069 293.05758 L 37.054069 294.29936 C 36.991024 294.4482 36.876302 294.52261 36.709904 294.52261 C 36.552808 294.52261 36.47426 294.39187 36.47426 294.13038 L 36.47426 293.05758 L 36.201408 293.05758 z M 37.629228 293.05758 L 38.083464 293.88699 L 37.616825 294.735 L 37.933085 294.735 L 38.230741 294.10713 L 38.526847 294.735 L 38.841557 294.735 L 38.374919 293.88699 L 38.830705 293.05758 L 38.512895 293.05758 L 38.226091 293.66994 L 37.943937 293.05758 L 37.629228 293.05758 z M 43.850553 293.05758 L 43.850553 294.735 L 44.124955 294.735 L 44.124955 293.05758 L 43.850553 293.05758 z M 54.070085 293.05758 L 54.070085 294.735 L 54.344487 294.735 L 54.344487 293.05758 L 54.070085 293.05758 z M 14.27148 293.26222 C 14.274957 293.26212 14.278295 293.26222 14.281816 293.26222 C 14.396537 293.26222 14.488004 293.31234 14.556217 293.4126 C 14.62443 293.51181 14.658537 293.64721 14.658537 293.81877 L 14.658537 294.00791 C 14.651302 294.35724 14.526762 294.53191 14.284916 294.53191 C 14.170195 294.53191 14.078728 294.48282 14.010514 294.38463 C 13.943335 294.28541 13.909745 294.1495 13.909745 293.9769 L 13.909745 293.81722 C 13.909745 293.64669 13.943335 293.51181 14.010514 293.4126 C 14.076596 293.31548 14.163692 293.26525 14.27148 293.26222 z M 46.671053 293.26222 C 46.67453 293.26212 46.677868 293.26222 46.681388 293.26222 C 46.79611 293.26222 46.887578 293.31234 46.95579 293.4126 C 47.024003 293.51181 47.05811 293.64721 47.05811 293.81877 L 47.05811 294.00791 C 47.050875 294.35724 46.926334 294.53191 46.684489 294.53191 C 46.569767 294.53191 46.4783 294.48282 46.410087 294.38463 C 46.342908 294.28541 46.309318 294.1495 46.309318 293.9769 L 46.309318 293.81722 C 46.309318 293.64669 46.342908 293.51181 46.410087 293.4126 C 46.476168 293.31548 46.563264 293.26525 46.671053 293.26222 z M 52.164775 293.26222 C 52.267097 293.26222 52.343061 293.29632 52.392668 293.36454 C 52.443314 293.43275 52.472251 293.54644 52.479484 293.7056 L 52.479484 293.74281 L 51.819059 293.74281 C 51.826293 293.57847 51.857297 293.45755 51.912077 293.38004 C 51.966854 293.30149 52.051087 293.26222 52.164775 293.26222 z M 15.847612 293.26997 C 15.851652 293.26984 15.855912 293.26997 15.860014 293.26997 C 15.988169 293.26997 16.081187 293.31493 16.139067 293.40484 C 16.196947 293.49373 16.225883 293.63222 16.225883 293.82032 L 16.225883 293.98775 C 16.22485 294.17173 16.194879 294.30867 16.135966 294.39858 C 16.078089 294.48747 15.987138 294.53191 15.863114 294.53191 C 15.728756 294.53191 15.627987 294.46783 15.560807 294.33967 L 15.560807 293.46686 C 15.626888 293.3397 15.722364 293.27394 15.847612 293.26997 z M 20.428727 293.26997 C 20.559985 293.26997 20.661271 293.3387 20.732585 293.47616 L 20.732585 294.31487 C 20.664371 294.45439 20.562052 294.52416 20.425627 294.52416 C 20.299539 294.52416 20.208588 294.48023 20.152775 294.39238 C 20.098002 294.3035 20.07061 294.16501 20.07061 293.9769 L 20.07061 293.80947 C 20.071643 293.62654 20.100062 293.49115 20.155876 293.40329 C 20.211686 293.31441 20.302637 293.26997 20.428727 293.26997 z M 42.038261 293.92109 L 42.19329 293.92109 L 42.19329 294.32107 C 42.165386 294.37688 42.120945 294.42339 42.059965 294.46059 C 41.998987 294.49779 41.934908 294.5164 41.867729 294.5164 C 41.776778 294.5164 41.712182 294.49524 41.673942 294.45284 C 41.635702 294.40944 41.616581 294.34019 41.616581 294.2451 C 41.616581 294.14381 41.654305 294.06526 41.729753 294.00946 C 41.8052 293.95253 41.908036 293.92309 42.038261 293.92109 z M 48.354155 293.92109 L 48.509184 293.92109 L 48.509184 294.32107 C 48.481281 294.37688 48.436839 294.42339 48.375859 294.46059 C 48.31488 294.49779 48.250802 294.5164 48.183622 294.5164 C 48.092672 294.5164 48.028076 294.49524 47.989836 294.45284 C 47.951596 294.40944 47.932475 294.34019 47.932475 294.2451 C 47.932475 294.14381 47.970199 294.06526 48.045646 294.00946 C 48.121094 293.95253 48.223931 293.92309 48.354155 293.92109 z M 56.910221 293.92109 L 57.065251 293.92109 L 57.065251 294.32107 C 57.037347 294.37688 56.992906 294.42339 56.931926 294.46059 C 56.870948 294.49779 56.806869 294.5164 56.739689 294.5164 C 56.648738 294.5164 56.584143 294.49524 56.545903 294.45284 C 56.507663 294.40944 56.488542 294.34019 56.488542 294.2451 C 56.488542 294.14381 56.526265 294.06526 56.601713 294.00946 C 56.67716 293.95253 56.779997 293.92309 56.910221 293.92109 z M 59.967399 293.92109 L 60.122429 293.92109 L 60.122429 294.32107 C 60.094525 294.37688 60.050083 294.42339 59.989103 294.46059 C 59.928125 294.49779 59.864046 294.5164 59.796867 294.5164 C 59.705916 294.5164 59.64132 294.49524 59.60308 294.45284 C 59.56484 294.40944 59.54572 294.34019 59.54572 294.2451 C 59.54572 294.14381 59.583444 294.06526 59.658891 294.00946 C 59.734338 293.95253 59.837175 293.92309 59.967399 293.92109 z M 63.376493 294.41098 C 63.322961 294.41292 63.28212 294.42959 63.25402 294.46059 C 63.22508 294.49368 63.210612 294.53502 63.210612 294.58462 C 63.210612 294.63213 63.22508 294.67192 63.25402 294.70399 C 63.28399 294.73606 63.328432 294.75205 63.387346 294.75205 C 63.446255 294.75205 63.490697 294.73606 63.520671 294.70399 C 63.551677 294.67194 63.56718 294.63215 63.56718 294.58462 C 63.56718 294.535 63.551677 294.49366 63.520671 294.46059 C 63.490701 294.42753 63.446259 294.41098 63.387346 294.41098 C 63.383664 294.41098 63.380062 294.41086 63.376493 294.41098 z M 66.011992 294.41098 C 65.958459 294.41292 65.917618 294.42959 65.889518 294.46059 C 65.860578 294.49368 65.84611 294.53502 65.84611 294.58462 C 65.84611 294.63213 65.860578 294.67192 65.889518 294.70399 C 65.919488 294.73606 65.96393 294.75205 66.022844 294.75205 C 66.081754 294.75205 66.126195 294.73606 66.156169 294.70399 C 66.187175 294.67194 66.202678 294.63215 66.202678 294.58462 C 66.202678 294.535 66.187175 294.49366 66.156169 294.46059 C 66.126199 294.42753 66.081757 294.41098 66.022844 294.41098 C 66.019162 294.41098 66.01556 294.41086 66.011992 294.41098 z " />
    <g
       style="display:inline"
       id="g1165"
       transform="matrix(0.26458333,0,0,0.26458333,144.99169,85.33332)">
      <rect
         style="display:inline;opacity:1;fill:none;fill-opacity:1;stroke:none;stroke-width:1.46059346;stroke-linecap:round;stroke-linejoin:round;stroke-miterlimit:4;stroke-dasharray:none;stroke-dashoffset:0;stroke-opacity:1"
         id="rect2129"
         width="80"
         height="46.000004"
         x="-448"
         y="645"
         inkscape:export-filename="/home/uri/nitrux_logo@2x.png"
         inkscape:export-xdpi="192"
         inkscape:export-ydpi="192" />
      <path
         id="path2131"
         d="m -397,651 v 2 26.93555 0.0644 4 l 2,1 26,-16 v -1 l -4.2832,-2.59961 L -389,655.85742 v 1.94336 l 14.20898,8.52344 L -396,679.32227 V 653.59961 653 651.60742 Z m -29,11 -5,6 6,7 v -12 z"
         style="display:inline;opacity:1;fill:#fafafa;fill-opacity:1;fill-rule:evenodd;stroke:none;stroke-width:1px;stroke-linecap:butt;stroke-linejoin:miter;stroke-opacity:1"
         inkscape:connector-curvature="0" />
      <path
         inkscape:export-ydpi="192"
         inkscape:export-xdpi="192"
         inkscape:export-filename="/home/uri/nitrux_logo@2x.png"
         inkscape:connector-curvature="0"
         style="display:inline;opacity:1;fill:#fafafa;fill-opacity:1;stroke:none"
         d="m -447.00002,658.00001 v 1 2 18 h 1 v -13 c 0,-0.71378 0.66889,-0.96495 1.17188,-0.40234 l 9.82812,13.40234 h 1 v -4 -2.5625 l 5,6.5625 h 4 l -8.20117,-10.76562 c -0.16533,-0.20907 -0.16538,-0.54257 0.0801,-0.88672 L -426,658.00001 h -1 l -7,9.1875 -2,2.625 -0.98242,1.28906 z m 2,0 8,10.5 2,-2.625 -6,-7.875 z m 23,0 a 10.5,10.5 0 0 0 -0.69727,0.0352 l -0.96289,1.1582 a 8.499979,9.5 0 0 1 1.66016,-0.19336 8.499979,9.5 0 0 1 2.7168,0.50781 c -1.05624,1.00103 -1.7168,2.41535 -1.7168,3.99219 0,3.047 2.453,5.5 5.5,5.5 h 0.39844 1.57812 a 8.499979,9.5 0 0 1 -4.78125,8.04688 c -0.91918,-0.72808 -1.55229,-1.8059 -1.69531,-3.04688 h -1 c 0.12964,1.37699 0.74891,2.60511 1.68164,3.50195 a 8.499979,9.5 0 0 1 -2.68164,0.49805 8.499979,9.5 0 0 1 -0.45117,-0.0254 l 0.86133,1.00391 a 10.5,10.5 0 0 0 3.33593,-0.69336 c 0.78076,0.44552 1.6773,0.71484 2.65235,0.71484 h 5 c 3.047,0 5.5,-2.453 5.5,-5.5 0,-3.047 -2.453,-5.5 -5.5,-5.5 h -0.39844 -0.52539 a 10.5,10.5 0 0 0 -5.47852,-8.72461 c 0.47225,-0.16744 0.97286,-0.27539 1.50391,-0.27539 h 5 c 2.31527,0 4.13986,1.75626 4.39844,4 h 1 c -0.26343,-2.79815 -2.52911,-5 -5.39844,-5 h -5 c -0.98577,0 -1.9066,0.2604 -2.70508,0.71094 a 10.5,10.5 0 0 0 -3.79492,-0.71094 z m 3.72656,1.97461 a 8.499979,9.5 0 0 1 4.75782,8.02539 h -1.58594 -0.39844 c -2.493,0 -4.5,-2.007 -4.5,-4.5 0,-1.43938 0.68122,-2.70278 1.72656,-3.52539 z m -12.15039,7.33398 -0.57617,0.69141 0.50195,0.58594 a 8.499979,9.5 0 0 1 -0.002,-0.0859 8.499979,9.5 0 0 1 0.0762,-1.19141 z m 18.90235,1.69141 h 0.52148 0.39844 c 2.493,0 4.5,2.007 4.5,4.5 0,2.493 -2.007,4.5 -4.5,4.5 h -5 c -0.5181,0 -1.00599,-0.0981 -1.46289,-0.25977 a 10.5,10.5 0 0 0 5.54297,-8.74023 z m -24.10547,1.78516 c 0.33968,-0.025 0.62695,0.24749 0.62695,0.71484 v 2.19141 l -1.48047,-1.93555 0.71289,-0.9375 c 0.047,-0.0144 0.095,-0.0299 0.14063,-0.0332 z"
         id="path2133" />
    </g>
    <path
       id="path1159"
       d="m 41.539586,278.74385 v 8.99584 h 8.995833 v -8.99584 z m -17.991667,1.85209 v 0.26458 0.52917 4.7625 h 0.264583 v -3.96875 l 2.910417,3.96875 h 0.264584 v -1.05833 -4.23334 l 0.529166,0.52917 v 4.7625 h 0.79375 v -4.7625 h 0.529167 c 0.146576,0 0.264583,0.118 0.264583,0.26458 v 4.49792 h 0.79375 v -4.49792 c 0,-0.14658 0.118004,-0.26458 0.264584,-0.26458 h 0.529166 v 1.5875 0.52916 2.64584 h 0.264584 v -2.64584 c 0,-0.14658 0.118004,-0.26458 0.264583,-0.26458 h 0.692981 l 0.100769,0.13229 v 0.92605 c 0,1.02605 0.826026,1.85208 1.852083,1.85208 0.08519,0 0.168556,-0.008 0.250632,-0.0185 l 0.01402,0.0185 h 1.058333 l -0.256831,-0.33695 c 0.475639,-0.33456 0.785998,-0.88693 0.785998,-1.51513 V 281.985 l 1.058333,1.38906 0.529167,-0.69453 -1.5875,-2.08359 h -1.058333 l 0.79375,1.04179 v 0.0164 2.64584 c 0,0.54194 -0.269426,1.01811 -0.681593,1.30431 l -1.800419,-2.36265 h 0.629936 c 0.732885,0 1.322909,-0.59002 1.322909,-1.32292 0,-0.7329 -0.590024,-1.32292 -1.322909,-1.32292 h -0.79375 -1.852083 -0.264583 -0.79375 -0.79375 -0.79375 -0.79375 -0.79375 v 4.1517 z m 11.641656,5.55625 h 0.264584 l 1.719791,-2.25725 1.719803,2.25725 h 1.058333 l -2.248958,-2.95178 1.984375,-2.60448 h -0.264584 l -1.852083,2.43086 -0.529177,0.69453 z m 7.93751,-5.55625 2.65049,3.46643 0.259927,-0.34104 0.529167,-0.69454 1.852083,-2.43085 h 0.264583 l -1.884124,2.47321 c -0.06493,0.0911 -0.0649,0.17931 -0.02117,0.23464 l 2.169901,2.8484 h -1.058333 l -1.322917,-1.73633 v 0.678 1.05833 h -0.264583 l -2.600352,-3.54606 c -0.133085,-0.14885 -0.310065,-0.0824 -0.310065,0.10647 v 3.43959 h -0.264583 v -4.7625 -0.52917 z m 0.529167,0 h 1.058333 l 1.5875,2.08359 -0.529166,0.69453 z m 2.479966,3.38272 c -0.01217,0 -0.02487,0.005 -0.0372,0.009 l -0.188622,0.24806 0.391689,0.51212 v -0.57981 c 0,-0.12367 -0.07599,-0.19574 -0.165867,-0.18915 z m -13.327885,0.4372 1.118796,1.46865 c -0.02024,0 -0.04005,0.003 -0.06046,0.003 -0.408022,0 -0.777698,-0.15393 -1.058334,-0.40515 z"
       style="display:inline;opacity:1;fill:#ffffff;fill-opacity:1;stroke:none;stroke-width:0.26458332"
       inkscape:connector-curvature="0"
       inkscape:export-filename="/home/uri/patreon_banner.png"
       inkscape:export-xdpi="96"
       inkscape:export-ydpi="96" />
    <g
       aria-label="brought to you by"
       style="font-style:normal;font-variant:normal;font-weight:normal;font-stretch:normal;font-size:3.17499995px;line-height:0%;font-family:'Roboto Condensed';-inkscape-font-specification:'Roboto Condensed, ';text-align:start;letter-spacing:0px;word-spacing:0px;text-anchor:start;display:inline;opacity:1;fill:#ffffff;fill-opacity:1;stroke:none;stroke-width:0.26458332"
       id="text1449"
       transform="translate(3.1750001,12.700002)">
      <path
         d="m 24.431585,261.12751 q 0,0.33331 -0.144177,0.5333 -0.144177,0.19844 -0.406177,0.19844 -0.131775,0 -0.230994,-0.0574 -0.09767,-0.0589 -0.164331,-0.17209 l -0.02325,0.19689 H 23.1898 v -2.41846 h 0.31471 v 0.91778 q 0.06511,-0.10077 0.15813,-0.15348 0.09302,-0.0543 0.21549,-0.0543 0.265101,0 0.409278,0.21394 0.144177,0.21239 0.144177,0.56741 z m -0.313159,-0.22789 q 0,-0.24185 -0.07751,-0.38913 -0.07596,-0.14728 -0.241845,-0.14728 -0.10542,0 -0.179834,0.0636 -0.07286,0.062 -0.114722,0.16743 v 0.80615 q 0.04186,0.10232 0.116272,0.15968 0.07441,0.0558 0.181384,0.0558 0.165881,0 0.240296,-0.13177 0.07596,-0.13178 0.07596,-0.35657 z"
         style="font-style:normal;font-variant:normal;font-weight:normal;font-stretch:normal;font-size:3.17499995px;line-height:0.69999999;font-family:'Roboto Condensed';-inkscape-font-specification:'Roboto Condensed, ';text-align:center;letter-spacing:0px;word-spacing:0px;text-anchor:middle;fill:#ffffff;fill-opacity:1;stroke-width:0.26458332"
         id="path830"
         inkscape:connector-curvature="0" />
      <path
         d="m 25.456329,260.41437 -0.147278,-0.008 q -0.09767,0 -0.162781,0.0589 -0.06356,0.0589 -0.09767,0.16588 v 1.19528 h -0.31471 v -1.67742 h 0.286804 l 0.02325,0.2527 q 0.05271,-0.13332 0.137976,-0.20774 0.08527,-0.076 0.196887,-0.076 0.03101,0 0.06356,0.006 0.03256,0.005 0.05116,0.0124 z"
         style="font-style:normal;font-variant:normal;font-weight:normal;font-stretch:normal;font-size:3.17499995px;line-height:0.69999999;font-family:'Roboto Condensed';-inkscape-font-specification:'Roboto Condensed, ';text-align:center;letter-spacing:0px;word-spacing:0px;text-anchor:middle;fill:#ffffff;fill-opacity:1;stroke-width:0.26458332"
         id="path832"
         inkscape:connector-curvature="0" />
      <path
         d="m 25.62066,260.88256 q 0,-0.33331 0.173633,-0.5488 0.175183,-0.21549 0.47904,-0.21549 0.302307,0 0.47749,0.21549 0.175183,0.21394 0.175183,0.5488 v 0.21394 q 0,0.33642 -0.175183,0.55036 -0.173633,0.21239 -0.47594,0.21239 -0.305407,0 -0.48059,-0.21239 -0.173633,-0.21394 -0.173633,-0.55036 z m 0.314709,0.21394 q 0,0.22945 0.08372,0.37672 0.08372,0.14728 0.255798,0.14728 0.167432,0 0.251148,-0.14728 0.08527,-0.14727 0.08527,-0.37672 v -0.21394 q 0,-0.22634 -0.08527,-0.37362 -0.08372,-0.14883 -0.252698,-0.14883 -0.170532,0 -0.254248,0.14728 -0.08372,0.14728 -0.08372,0.37517 z"
         style="font-style:normal;font-variant:normal;font-weight:normal;font-stretch:normal;font-size:3.17499995px;line-height:0.69999999;font-family:'Roboto Condensed';-inkscape-font-specification:'Roboto Condensed, ';text-align:center;letter-spacing:0px;word-spacing:0px;text-anchor:middle;fill:#ffffff;fill-opacity:1;stroke-width:0.26458332"
         id="path834"
         inkscape:connector-curvature="0" />
      <path
         d="m 28.111981,261.6019 q -0.06666,0.12402 -0.170533,0.19068 -0.103869,0.0667 -0.238745,0.0667 -0.227893,0 -0.355017,-0.17519 -0.127124,-0.17518 -0.127124,-0.54415 v -0.99064 h 0.313159 v 0.99374 q 0,0.25735 0.06046,0.36587 0.06201,0.10697 0.184485,0.10697 0.116272,0 0.193786,-0.0543 0.07906,-0.0543 0.125574,-0.15503 v -1.25729 h 0.31471 v 1.67742 h -0.280604 z"
         style="font-style:normal;font-variant:normal;font-weight:normal;font-stretch:normal;font-size:3.17499995px;line-height:0.69999999;font-family:'Roboto Condensed';-inkscape-font-specification:'Roboto Condensed, ';text-align:center;letter-spacing:0px;word-spacing:0px;text-anchor:middle;fill:#ffffff;fill-opacity:1;stroke-width:0.26458332"
         id="path836"
         inkscape:connector-curvature="0" />
      <path
         d="m 28.711944,260.92132 q 0,-0.36122 0.147278,-0.58136 0.148828,-0.22169 0.412378,-0.22169 0.127124,0 0.223242,0.0605 0.09612,0.0589 0.164331,0.17208 l 0.02325,-0.20154 h 0.271302 v 1.66967 q 0,0.32246 -0.172083,0.50384 -0.170532,0.18139 -0.47749,0.18139 -0.10542,0 -0.226343,-0.0326 -0.119372,-0.0326 -0.21394,-0.0884 l 0.06666,-0.23565 q 0.07906,0.0481 0.173633,0.0744 0.09457,0.0279 0.196887,0.0279 0.172083,0 0.254248,-0.11007 0.08372,-0.11007 0.08372,-0.32246 v -0.15193 q -0.06666,0.0961 -0.15968,0.14573 -0.09147,0.0481 -0.21084,0.0481 -0.261999,0 -0.409277,-0.19999 -0.147278,-0.20154 -0.147278,-0.53175 z m 0.314709,0.20619 q 0,0.22324 0.07752,0.35657 0.07751,0.13177 0.243396,0.13177 0.102319,0 0.173633,-0.0527 0.07286,-0.0527 0.117822,-0.14883 v -0.83561 q -0.04651,-0.0992 -0.117822,-0.15657 -0.07131,-0.0589 -0.170532,-0.0589 -0.164331,0 -0.244947,0.15503 -0.07906,0.15503 -0.07906,0.40308 z"
         style="font-style:normal;font-variant:normal;font-weight:normal;font-stretch:normal;font-size:3.17499995px;line-height:0.69999999;font-family:'Roboto Condensed';-inkscape-font-specification:'Roboto Condensed, ';text-align:center;letter-spacing:0px;word-spacing:0px;text-anchor:middle;fill:#ffffff;fill-opacity:1;stroke-width:0.26458332"
         id="path838"
         inkscape:connector-curvature="0" />
      <path
         d="m 30.625005,260.37407 q 0.06976,-0.12093 0.172083,-0.18759 0.102319,-0.0682 0.227893,-0.0682 0.226343,0 0.351916,0.16743 0.125574,0.16743 0.125574,0.5147 v 1.02629 h -0.314709 v -1.02939 q 0,-0.231 -0.06821,-0.33177 -0.06666,-0.10232 -0.199988,-0.10232 -0.09612,0 -0.172082,0.0558 -0.07441,0.0543 -0.122474,0.15038 v 1.25729 h -0.314709 v -2.41846 h 0.314709 z"
         style="font-style:normal;font-variant:normal;font-weight:normal;font-stretch:normal;font-size:3.17499995px;line-height:0.69999999;font-family:'Roboto Condensed';-inkscape-font-specification:'Roboto Condensed, ';text-align:center;letter-spacing:0px;word-spacing:0px;text-anchor:middle;fill:#ffffff;fill-opacity:1;stroke-width:0.26458332"
         id="path840"
         inkscape:connector-curvature="0" />
      <path
         d="m 32.260564,259.73224 v 0.41703 h 0.262 v 0.2248 h -0.262 v 0.99838 q 0,0.13023 0.03876,0.18604 0.03876,0.0543 0.100769,0.0543 0.03721,0 0.06821,-0.005 0.03256,-0.005 0.07596,-0.0139 l 0.03256,0.21704 q -0.05271,0.0217 -0.119372,0.0341 -0.06511,0.014 -0.134876,0.014 -0.178284,0 -0.277502,-0.11628 -0.09767,-0.11782 -0.09767,-0.37052 v -0.99838 h -0.218591 v -0.2248 h 0.218591 v -0.41703 z"
         style="font-style:normal;font-variant:normal;font-weight:normal;font-stretch:normal;font-size:3.17499995px;line-height:0.69999999;font-family:'Roboto Condensed';-inkscape-font-specification:'Roboto Condensed, ';text-align:center;letter-spacing:0px;word-spacing:0px;text-anchor:middle;fill:#ffffff;fill-opacity:1;stroke-width:0.26458332"
         id="path842"
         inkscape:connector-curvature="0" />
      <path
         d="m 33.92868,259.73224 v 0.41703 h 0.262 v 0.2248 h -0.262 v 0.99838 q 0,0.13023 0.03876,0.18604 0.03876,0.0543 0.100769,0.0543 0.03721,0 0.06821,-0.005 0.03256,-0.005 0.07597,-0.0139 l 0.03256,0.21704 q -0.05271,0.0217 -0.119373,0.0341 -0.06511,0.014 -0.134875,0.014 -0.178284,0 -0.277503,-0.11628 -0.09767,-0.11782 -0.09767,-0.37052 v -0.99838 H 33.39693 v -0.2248 h 0.218591 v -0.41703 z"
         style="font-style:normal;font-variant:normal;font-weight:normal;font-stretch:normal;font-size:3.17499995px;line-height:0.69999999;font-family:'Roboto Condensed';-inkscape-font-specification:'Roboto Condensed, ';text-align:center;letter-spacing:0px;word-spacing:0px;text-anchor:middle;fill:#ffffff;fill-opacity:1;stroke-width:0.26458332"
         id="path844"
         inkscape:connector-curvature="0" />
      <path
         d="m 34.407721,260.88256 q 0,-0.33331 0.173633,-0.5488 0.175183,-0.21549 0.47904,-0.21549 0.302307,0 0.47749,0.21549 0.175183,0.21394 0.175183,0.5488 v 0.21394 q 0,0.33642 -0.175183,0.55036 -0.173633,0.21239 -0.47594,0.21239 -0.305407,0 -0.48059,-0.21239 -0.173633,-0.21394 -0.173633,-0.55036 z m 0.314709,0.21394 q 0,0.22945 0.08372,0.37672 0.08372,0.14728 0.255798,0.14728 0.167432,0 0.251148,-0.14728 0.08527,-0.14727 0.08527,-0.37672 v -0.21394 q 0,-0.22634 -0.08527,-0.37362 -0.08372,-0.14883 -0.252698,-0.14883 -0.170532,0 -0.254248,0.14728 -0.08372,0.14728 -0.08372,0.37517 z"
         style="font-style:normal;font-variant:normal;font-weight:normal;font-stretch:normal;font-size:3.17499995px;line-height:0.69999999;font-family:'Roboto Condensed';-inkscape-font-specification:'Roboto Condensed, ';text-align:center;letter-spacing:0px;word-spacing:0px;text-anchor:middle;fill:#ffffff;fill-opacity:1;stroke-width:0.26458332"
         id="path846"
         inkscape:connector-curvature="0" />
      <path
         d="m 37.179644,261.24843 0.02325,0.11007 h 0.0093 l 0.322461,-1.20923 h 0.342615 l -0.587561,1.93787 q -0.05891,0.17363 -0.15968,0.29456 -0.100769,0.12247 -0.289905,0.12247 -0.03876,0 -0.08372,-0.009 -0.04341,-0.008 -0.08682,-0.0186 l 0.03411,-0.23254 q 0.01705,0.003 0.04651,0.006 0.02946,0.003 0.04651,0.003 0.09147,0 0.144177,-0.0791 0.05426,-0.0775 0.08372,-0.18449 l 0.05581,-0.17053 -0.517797,-1.66967 h 0.341064 z"
         style="font-style:normal;font-variant:normal;font-weight:normal;font-stretch:normal;font-size:3.17499995px;line-height:0.69999999;font-family:'Roboto Condensed';-inkscape-font-specification:'Roboto Condensed, ';text-align:center;letter-spacing:0px;word-spacing:0px;text-anchor:middle;fill:#ffffff;fill-opacity:1;stroke-width:0.26458332"
         id="path848"
         inkscape:connector-curvature="0" />
      <path
         d="m 38.0044,260.88256 q 0,-0.33331 0.173633,-0.5488 0.175183,-0.21549 0.479041,-0.21549 0.302307,0 0.47749,0.21549 0.175183,0.21394 0.175183,0.5488 v 0.21394 q 0,0.33642 -0.175183,0.55036 -0.173633,0.21239 -0.47594,0.21239 -0.305408,0 -0.480591,-0.21239 Q 38.0044,261.43292 38.0044,261.0965 Z m 0.31471,0.21394 q 0,0.22945 0.08372,0.37672 0.08372,0.14728 0.255798,0.14728 0.167432,0 0.251147,-0.14728 0.08527,-0.14727 0.08527,-0.37672 v -0.21394 q 0,-0.22634 -0.08527,-0.37362 -0.08371,-0.14883 -0.252697,-0.14883 -0.170532,0 -0.254248,0.14728 -0.08372,0.14728 -0.08372,0.37517 z"
         style="font-style:normal;font-variant:normal;font-weight:normal;font-stretch:normal;font-size:3.17499995px;line-height:0.69999999;font-family:'Roboto Condensed';-inkscape-font-specification:'Roboto Condensed, ';text-align:center;letter-spacing:0px;word-spacing:0px;text-anchor:middle;fill:#ffffff;fill-opacity:1;stroke-width:0.26458332"
         id="path850"
         inkscape:connector-curvature="0" />
      <path
         d="m 40.495722,261.6019 q -0.06666,0.12402 -0.170533,0.19068 -0.103869,0.0667 -0.238745,0.0667 -0.227893,0 -0.355017,-0.17519 -0.127124,-0.17518 -0.127124,-0.54415 v -0.99064 h 0.313159 v 0.99374 q 0,0.25735 0.06046,0.36587 0.06201,0.10697 0.184485,0.10697 0.116272,0 0.193786,-0.0543 0.07906,-0.0543 0.125574,-0.15503 v -1.25729 h 0.314709 v 1.67742 h -0.280603 z"
         style="font-style:normal;font-variant:normal;font-weight:normal;font-stretch:normal;font-size:3.17499995px;line-height:0.69999999;font-family:'Roboto Condensed';-inkscape-font-specification:'Roboto Condensed, ';text-align:center;letter-spacing:0px;word-spacing:0px;text-anchor:middle;fill:#ffffff;fill-opacity:1;stroke-width:0.26458332"
         id="path852"
         inkscape:connector-curvature="0" />
      <path
         d="m 43.090912,261.12751 q 0,0.33331 -0.144178,0.5333 -0.144177,0.19844 -0.406176,0.19844 -0.131775,0 -0.230994,-0.0574 -0.09767,-0.0589 -0.164331,-0.17209 l -0.02325,0.19689 h -0.272852 v -2.41846 h 0.314709 v 0.91778 q 0.06511,-0.10077 0.15813,-0.15348 0.09302,-0.0543 0.215491,-0.0543 0.2651,0 0.409277,0.21394 0.144178,0.21239 0.144178,0.56741 z m -0.31316,-0.22789 q 0,-0.24185 -0.07751,-0.38913 -0.07596,-0.14728 -0.241846,-0.14728 -0.10542,0 -0.179834,0.0636 -0.07286,0.062 -0.114722,0.16743 v 0.80615 q 0.04186,0.10232 0.116272,0.15968 0.07441,0.0558 0.181385,0.0558 0.165881,0 0.240295,-0.13177 0.07596,-0.13178 0.07596,-0.35657 z"
         style="font-style:normal;font-variant:normal;font-weight:normal;font-stretch:normal;font-size:3.17499995px;line-height:0.69999999;font-family:'Roboto Condensed';-inkscape-font-specification:'Roboto Condensed, ';text-align:center;letter-spacing:0px;word-spacing:0px;text-anchor:middle;fill:#ffffff;fill-opacity:1;stroke-width:0.26458332"
         id="path854"
         inkscape:connector-curvature="0" />
      <path
         d="m 43.845904,261.24843 0.02325,0.11007 h 0.0093 l 0.322461,-1.20923 h 0.342615 l -0.587561,1.93787 q -0.05891,0.17363 -0.15968,0.29456 -0.100769,0.12247 -0.289905,0.12247 -0.03876,0 -0.08372,-0.009 -0.04341,-0.008 -0.08682,-0.0186 l 0.03411,-0.23254 q 0.01705,0.003 0.04651,0.006 0.02945,0.003 0.04651,0.003 0.09147,0 0.144177,-0.0791 0.05426,-0.0775 0.08372,-0.18449 l 0.05581,-0.17053 -0.517798,-1.66967 h 0.341065 z"
         style="font-style:normal;font-variant:normal;font-weight:normal;font-stretch:normal;font-size:3.17499995px;line-height:0.69999999;font-family:'Roboto Condensed';-inkscape-font-specification:'Roboto Condensed, ';text-align:center;letter-spacing:0px;word-spacing:0px;text-anchor:middle;fill:#ffffff;fill-opacity:1;stroke-width:0.26458332"
         id="path856"
         inkscape:connector-curvature="0" />
    </g>
    <g
       transform="matrix(0,0.26458333,-0.26458333,0,311.51043,243.8188)"
       id="layer1-6"
       inkscape:label="Capa 1">
      <path
         id="rect1507"
         transform="translate(-25,997.36218)"
         d="M 40,1 A 7,17 0 0 0 33.042969,16.296875 7.0000076,7 0 0 0 28,23 v 2 h 5.628906 a 7,17 0 0 0 1.419922,5 H 33.914062 A 12,12 0 0 1 29,32.609375 v 2.054687 0.701172 A 13,13 0 0 1 38.632812,45 h 2.0625 0.667969 a 13,13 0 0 1 9.632813,-9.634766 V 34.664062 32.609375 A 12,12 0 0 1 46.082031,30 h -1.128906 a 7,17 0 0 0 1.416016,-5 H 52 V 23 A 7.0000076,7 0 0 0 46.964844,16.298828 7,17 0 0 0 40,1 Z m 0,2 a 5,15 0 0 1 4.818359,11 H 42 a 1.0002038,1.0002038 0 0 0 0,-0.002 1.0002038,1.0002038 0 0 0 -0.201172,-0.597656 l -3,-4.0000004 A 1.0001,1.0001 0 0 0 37.931641,8.9902344 1.0001,1.0001 0 0 0 37.199219,10.601562 L 39.748047,14 h -4.5625 A 5,15 0 0 1 40,3 Z m -0.966797,1.9882812 a 1.0001,1.0001 0 0 0 -0.09961,0.00195 1.0001,1.0001 0 0 0 -0.734375,1.6113281 l 3,3.9999997 A 1.0009848,1.0009848 0 1 0 42.80078,9.4003874 l -3,-4 A 1.0001,1.0001 0 0 0 39.033203,4.9882812 Z M 35.050781,16 h 9.898438 A 5,15 0 0 1 45,18 5,15 0 0 1 41,32.679688 V 30 h -2 v 2.697266 A 5,15 0 0 1 35,18 5,15 0 0 1 35.050781,16 Z M 40,17 a 3,3 0 0 0 -3,3 3,3 0 0 0 3,3 3,3 0 0 0 3,-3 3,3 0 0 0 -3,-3 z m -6.992188,1.423828 A 7,17 0 0 0 33.310547,23 H 30 a 5.0000076,5.0000019 0 0 1 3.007812,-4.576172 z m 13.986329,0.002 A 5.0000076,5.0000019 0 0 1 50,23 h -3.318359 a 7,17 0 0 0 0.3125,-4.574219 z M 40,19 a 1,1 0 0 1 1,1 1,1 0 0 1 -1,1 1,1 0 0 1 -1,-1 1,1 0 0 1 1,-1 z M 35.578125,31.167969 A 7,17 0 0 0 39,34.808594 V 36 h 2 v -1.195312 a 7,17 0 0 0 3.417969,-3.632813 14,14 0 0 0 4.361328,2.791016 15,15 0 0 0 -8.78125,8.708984 15,15 0 0 0 -8.78125,-8.708984 14,14 0 0 0 4.361328,-2.794922 z M 47,44 c -0.554,0 -1,0.446 -1,1 v 10 c 0,0.554 0.446,1 1,1 0.554,0 1,-0.446 1,-1 V 45 c 0,-0.554 -0.446,-1 -1,-1 z m -16,7 c -0.554,0 -1,0.446 -1,1 v 6 c 0,0.554 0.446,1 1,1 0.554,0 1,-0.446 1,-1 v -6 c 0,-0.554 -0.446,-1 -1,-1 z m 8,5 c -0.554,0 -1,0.446 -1,1 v 21 c 0,0.554 0.446,1 1,1 0.554,0 1,-0.446 1,-1 V 57 c 0,-0.554 -0.446,-1 -1,-1 z"
         style="opacity:1;vector-effect:none;fill:#fafafa;fill-opacity:1;stroke:none;stroke-width:1;stroke-linecap:butt;stroke-linejoin:miter;stroke-miterlimit:4;stroke-dasharray:none;stroke-dashoffset:0;stroke-opacity:1"
         inkscape:connector-curvature="0" />
    </g>
    <text
       xml:space="preserve"
       style="font-style:normal;font-weight:normal;font-size:10.5833px;line-height:1.25;font-family:sans-serif;letter-spacing:0px;word-spacing:0px;fill:#000000;fill-opacity:1;stroke:none;stroke-width:0.264583"
       x="6.614583"
       y="294.35413"
       id="text885" />
  </g>
</svg>
