<?xml version="1.0" encoding="UTF-8" standalone="no"?>
<svg
   width="256"
   height="256"
   viewBox="0 0 67.733332 67.733335"
   version="1.1"
   id="svg8"
   sodipodi:docname="calamares_install_image.svg"
   inkscape:version="1.4.2 (ebf0e940d0, 2025-05-08)"
   inkscape:export-filename="/home/uri/bitmap.png"
   inkscape:export-xdpi="96"
   inkscape:export-ydpi="96"
   xmlns:inkscape="http://www.inkscape.org/namespaces/inkscape"
   xmlns:sodipodi="http://sodipodi.sourceforge.net/DTD/sodipodi-0.dtd"
   xmlns="http://www.w3.org/2000/svg"
   xmlns:svg="http://www.w3.org/2000/svg"
   xmlns:rdf="http://www.w3.org/1999/02/22-rdf-syntax-ns#"
   xmlns:cc="http://creativecommons.org/ns#"
   xmlns:dc="http://purl.org/dc/elements/1.1/">
  <defs
     id="defs2" />
  <sodipodi:namedview
     id="base"
     pagecolor="#ffffff"
     bordercolor="#666666"
     borderopacity="1.0"
     inkscape:pageopacity="0.0"
     inkscape:pageshadow="2"
     inkscape:zoom="1"
     inkscape:cx="92.5"
     inkscape:cy="101"
     inkscape:document-units="px"
     inkscape:current-layer="layer1"
     showgrid="true"
     units="px"
     inkscape:showpageshadow="false"
     borderlayer="true"
     showguides="true"
     inkscape:guide-bbox="true"
     inkscape:window-width="2558"
     inkscape:window-height="1410"
     inkscape:window-x="0"
     inkscape:window-y="0"
     inkscape:window-maximized="1"
     inkscape:pagecheckerboard="true"
     inkscape:document-rotation="0"
     inkscape:deskcolor="#d1d1d1">
    <inkscape:grid
       type="xygrid"
       id="grid4485"
       empspacing="5"
       originx="0"
       originy="0"
       spacingy="1"
       spacingx="1"
       units="px"
       visible="true" />
    <sodipodi:guide
       position="67.733334,67.733334"
       orientation="1,0"
       id="guide4487"
       inkscape:locked="false"
       inkscape:label="2560"
       inkscape:color="rgb(0,0,255)" />
    <sodipodi:guide
       position="0,0"
       orientation="1,0"
       id="guide4489"
       inkscape:locked="false"
       inkscape:label="1000"
       inkscape:color="rgb(0,0,255)" />
    <sodipodi:guide
       position="67.733333,33.866667"
       orientation="0,1"
       id="guide851"
       inkscape:locked="false" />
    <sodipodi:guide
       position="33.866666,67.733335"
       orientation="1,0"
       id="guide853"
       inkscape:locked="false" />
  </sodipodi:namedview>
  <metadata
     id="metadata5">
    <rdf:RDF>
      <cc:Work
         rdf:about="">
        <dc:format>image/svg+xml</dc:format>
        <dc:type
           rdf:resource="http://purl.org/dc/dcmitype/StillImage" />
      </cc:Work>
    </rdf:RDF>
  </metadata>
  <g
     inkscape:label="Capa 1"
     inkscape:groupmode="layer"
     id="layer1"
     transform="translate(0,-229.26664)">
    <rect
       style="opacity:1;fill:#11111b;fill-opacity:1;stroke:none;stroke-width:0.0611029;stroke-linecap:round;stroke-linejoin:round;stroke-miterlimit:4;stroke-dasharray:none;stroke-opacity:1"
       id="rect912"
       width="67.73333"
       height="67.73333"
       x="0"
       y="229.26665" />
    <g
       style="display:inline"
       id="g1165"
       transform="matrix(0.26458333,0,0,0.26458333,144.99169,70.51665)">
      <rect
         style="display:inline;opacity:1;fill:none;fill-opacity:1;stroke:none;stroke-width:1.46059;stroke-linecap:round;stroke-linejoin:round;stroke-miterlimit:4;stroke-dasharray:none;stroke-dashoffset:0;stroke-opacity:1"
         id="rect2129"
         width="80"
         height="46.000004"
         x="-448"
         y="645"
         inkscape:export-filename="/home/uri/nitrux_logo@2x.png"
         inkscape:export-xdpi="192"
         inkscape:export-ydpi="192" />
      <path
         id="path2131"
         d="m -397,651 v 2 26.93555 0.0644 4 l 2,1 26,-16 v -1 l -4.2832,-2.59961 L -389,655.85742 v 1.94336 l 14.20898,8.52344 L -396,679.32227 V 653.59961 653 651.60742 Z m -29,11 -5,6 6,7 v -12 z"
         style="display:inline;opacity:1;fill:#fafafa;fill-opacity:1;fill-rule:evenodd;stroke:none;stroke-width:1px;stroke-linecap:butt;stroke-linejoin:miter;stroke-opacity:1"
         inkscape:connector-curvature="0" />
      <path
         inkscape:export-ydpi="192"
         inkscape:export-xdpi="192"
         inkscape:export-filename="/home/uri/nitrux_logo@2x.png"
         inkscape:connector-curvature="0"
         style="display:inline;opacity:1;fill:#fafafa;fill-opacity:1;stroke:none"
         d="m -447.00002,658.00001 v 1 2 18 h 1 v -13 c 0,-0.71378 0.66889,-0.96495 1.17188,-0.40234 l 9.82812,13.40234 h 1 v -4 -2.5625 l 5,6.5625 h 4 l -8.20117,-10.76562 c -0.16533,-0.20907 -0.16538,-0.54257 0.0801,-0.88672 L -426,658.00001 h -1 l -7,9.1875 -2,2.625 -0.98242,1.28906 z m 2,0 8,10.5 2,-2.625 -6,-7.875 z m 23,0 a 10.5,10.5 0 0 0 -0.69727,0.0352 l -0.96289,1.1582 a 8.499979,9.5 0 0 1 1.66016,-0.19336 8.499979,9.5 0 0 1 2.7168,0.50781 c -1.05624,1.00103 -1.7168,2.41535 -1.7168,3.99219 0,3.047 2.453,5.5 5.5,5.5 h 0.39844 1.57812 a 8.499979,9.5 0 0 1 -4.78125,8.04688 c -0.91918,-0.72808 -1.55229,-1.8059 -1.69531,-3.04688 h -1 c 0.12964,1.37699 0.74891,2.60511 1.68164,3.50195 a 8.499979,9.5 0 0 1 -2.68164,0.49805 8.499979,9.5 0 0 1 -0.45117,-0.0254 l 0.86133,1.00391 a 10.5,10.5 0 0 0 3.33593,-0.69336 c 0.78076,0.44552 1.6773,0.71484 2.65235,0.71484 h 5 c 3.047,0 5.5,-2.453 5.5,-5.5 0,-3.047 -2.453,-5.5 -5.5,-5.5 h -0.39844 -0.52539 a 10.5,10.5 0 0 0 -5.47852,-8.72461 c 0.47225,-0.16744 0.97286,-0.27539 1.50391,-0.27539 h 5 c 2.31527,0 4.13986,1.75626 4.39844,4 h 1 c -0.26343,-2.79815 -2.52911,-5 -5.39844,-5 h -5 c -0.98577,0 -1.9066,0.2604 -2.70508,0.71094 a 10.5,10.5 0 0 0 -3.79492,-0.71094 z m 3.72656,1.97461 a 8.499979,9.5 0 0 1 4.75782,8.02539 h -1.58594 -0.39844 c -2.493,0 -4.5,-2.007 -4.5,-4.5 0,-1.43938 0.68122,-2.70278 1.72656,-3.52539 z m -12.15039,7.33398 -0.57617,0.69141 0.50195,0.58594 a 8.499979,9.5 0 0 1 -0.002,-0.0859 8.499979,9.5 0 0 1 0.0762,-1.19141 z m 18.90235,1.69141 h 0.52148 0.39844 c 2.493,0 4.5,2.007 4.5,4.5 0,2.493 -2.007,4.5 -4.5,4.5 h -5 c -0.5181,0 -1.00599,-0.0981 -1.46289,-0.25977 a 10.5,10.5 0 0 0 5.54297,-8.74023 z m -24.10547,1.78516 c 0.33968,-0.025 0.62695,0.24749 0.62695,0.71484 v 2.19141 l -1.48047,-1.93555 0.71289,-0.9375 c 0.047,-0.0144 0.095,-0.0299 0.14063,-0.0332 z"
         id="path2133" />
    </g>
    <path
       id="path1159"
       d="m 41.539586,263.92715 v 8.99584 h 8.995833 v -8.99584 z m -17.991667,1.85209 v 0.26458 0.52917 4.7625 h 0.264583 v -3.96875 l 2.910417,3.96875 h 0.264584 v -1.05833 -4.23334 l 0.529166,0.52917 v 4.7625 h 0.79375 v -4.7625 h 0.529167 c 0.146576,0 0.264583,0.118 0.264583,0.26458 v 4.49792 h 0.79375 v -4.49792 c 0,-0.14658 0.118004,-0.26458 0.264584,-0.26458 h 0.529166 v 1.5875 0.52916 2.64584 h 0.264584 v -2.64584 c 0,-0.14658 0.118004,-0.26458 0.264583,-0.26458 h 0.692981 l 0.100769,0.13229 v 0.92605 c 0,1.02605 0.826026,1.85208 1.852083,1.85208 0.08519,0 0.168556,-0.008 0.250632,-0.0185 l 0.01402,0.0185 h 1.058333 l -0.256831,-0.33695 c 0.475639,-0.33456 0.785998,-0.88693 0.785998,-1.51513 v -2.31511 l 1.058333,1.38906 0.529167,-0.69453 -1.5875,-2.08359 h -1.058333 l 0.79375,1.04179 v 0.0164 2.64584 c 0,0.54194 -0.269426,1.01811 -0.681593,1.30431 l -1.800419,-2.36265 h 0.629936 c 0.732885,0 1.322909,-0.59002 1.322909,-1.32292 0,-0.7329 -0.590024,-1.32292 -1.322909,-1.32292 h -0.79375 -1.852083 -0.264583 -0.79375 -0.79375 -0.79375 -0.79375 -0.79375 v 4.1517 z m 11.641656,5.55625 h 0.264584 l 1.719791,-2.25725 1.719803,2.25725 h 1.058333 l -2.248958,-2.95178 1.984375,-2.60448 h -0.264584 l -1.852083,2.43086 -0.529177,0.69453 z m 7.93751,-5.55625 2.65049,3.46643 0.259927,-0.34104 0.529167,-0.69454 1.852083,-2.43085 h 0.264583 l -1.884124,2.47321 c -0.06493,0.0911 -0.0649,0.17931 -0.02117,0.23464 l 2.169901,2.8484 h -1.058333 l -1.322917,-1.73633 v 0.678 1.05833 h -0.264583 l -2.600352,-3.54606 c -0.133085,-0.14885 -0.310065,-0.0824 -0.310065,0.10647 v 3.43959 h -0.264583 v -4.7625 -0.52917 z m 0.529167,0 h 1.058333 l 1.5875,2.08359 -0.529166,0.69453 z m 2.479966,3.38272 c -0.01217,0 -0.02487,0.005 -0.0372,0.009 l -0.188622,0.24806 0.391689,0.51212 v -0.57981 c 0,-0.12367 -0.07599,-0.19574 -0.165867,-0.18915 z m -13.327885,0.4372 1.118796,1.46865 c -0.02024,0 -0.04005,0.003 -0.06046,0.003 -0.408022,0 -0.777698,-0.15393 -1.058334,-0.40515 z"
       style="display:inline;opacity:1;fill:#ffffff;fill-opacity:1;stroke:none;stroke-width:0.264583"
       inkscape:connector-curvature="0"
       inkscape:export-filename="/home/uri/patreon_banner.png"
       inkscape:export-xdpi="96"
       inkscape:export-ydpi="96" />
    <text
       xml:space="preserve"
       style="font-style:normal;font-weight:normal;font-size:10.5833px;line-height:1.25;font-family:sans-serif;letter-spacing:0px;word-spacing:0px;fill:#000000;fill-opacity:1;stroke:none;stroke-width:0.264583"
       x="6.614583"
       y="294.35413"
       id="text885" />
    <path
       d="m 26.462629,259.48195 v -0.1778 c 0.09878,0.13828 0.242711,0.21166 0.42051,0.21166 0.392289,0 0.637822,-0.2794 0.637822,-0.7874 0,-0.48824 -0.239888,-0.78175 -0.637822,-0.78175 -0.177799,0 -0.321733,0.0818 -0.42051,0.22295 v -0.71966 h -0.248356 v 2.032 z m 0.403577,-1.3208 c 0.254,0 0.400755,0.20602 0.400755,0.56726 0,0.36971 -0.141111,0.57291 -0.400755,0.57291 -0.256822,0 -0.403577,-0.20884 -0.403577,-0.57291 0,-0.36689 0.141111,-0.56726 0.403577,-0.56726 z m 0.973661,1.3208 h 0.248356 v -0.8382 c 0,-0.27094 0.129822,-0.4572 0.428977,-0.4572 0.05927,0 0.112889,0.006 0.155222,0.0198 v -0.22295 c -0.02822,-0.0226 -0.08184,-0.0367 -0.141111,-0.0367 -0.180622,0 -0.341488,0.0847 -0.443088,0.26811 v -0.23142 h -0.248356 z m 1.634063,0.0339 c 0.42051,0 0.685799,-0.27658 0.685799,-0.78175 0,-0.48825 -0.256822,-0.7874 -0.685799,-0.7874 -0.420511,0 -0.6858,0.2794 -0.6858,0.7874 0,0.48824 0.256822,0.78175 0.6858,0.78175 z m 0,-0.21449 c -0.276578,0 -0.4318,-0.20602 -0.4318,-0.56726 0,-0.36971 0.1524,-0.57291 0.4318,-0.57291 0.276577,0 0.431799,0.20884 0.431799,0.57291 0,0.36689 -0.1524,0.56726 -0.431799,0.56726 z m 1.958617,-0.4318 c 0,0.21449 -0.143934,0.43463 -0.386645,0.43463 -0.220133,0 -0.318911,-0.14394 -0.318911,-0.36972 v -0.95108 h -0.248355 v 1.00188 c 0,0.34714 0.186267,0.53058 0.499533,0.53058 0.194733,0 0.352778,-0.079 0.454378,-0.23706 v 0.2032 h 0.248355 v -1.4986 h -0.248355 z m 1.176866,0.62371 c 0.191911,0 0.34431,-0.0734 0.448733,-0.21448 v 0.25682 c 0,0.2794 -0.146756,0.39793 -0.366889,0.39793 -0.217311,0 -0.372533,-0.10724 -0.403578,-0.3048 h -0.248355 c 0.05362,0.34149 0.301978,0.51082 0.654755,0.51082 0.344311,0 0.612422,-0.19473 0.612422,-0.61242 v -1.54375 h -0.248355 v 0.16368 c -0.09878,-0.12982 -0.248356,-0.20037 -0.448733,-0.20037 -0.375356,0 -0.6096,0.27375 -0.6096,0.77611 0,0.47978 0.2286,0.77046 0.6096,0.77046 z m 0.04515,-0.21448 c -0.256822,0 -0.400755,-0.2032 -0.400755,-0.55598 0,-0.36407 0.141111,-0.56162 0.400755,-0.56162 0.256822,0 0.403578,0.20602 0.403578,0.5588 0,0.36124 -0.141111,0.5588 -0.403578,0.5588 z m 1.049865,0.2032 h 0.248355 v -0.88618 c 0,-0.21449 0.146756,-0.43745 0.395111,-0.43745 0.225778,0 0.327378,0.14676 0.327378,0.37254 v 0.95109 h 0.248355 v -1.00189 c 0,-0.34714 -0.189089,-0.5334 -0.508,-0.5334 -0.197555,0 -0.361244,0.0818 -0.462844,0.23989 v -0.7366 h -0.248355 z m 1.648172,-0.4318 c 0,0.31608 0.132645,0.46566 0.412045,0.46566 0.07055,0 0.132644,-0.008 0.160866,-0.0226 v -0.1778 h -0.0508 c -0.220133,0 -0.273755,-0.0847 -0.273755,-0.26528 v -0.86925 h 0.3302 v -0.19755 h -0.3302 v -0.34431 H 35.3526 v 0.34431 h -0.208844 v 0.19755 H 35.3526 Z m 1.413926,0 c 0,0.31608 0.132644,0.46566 0.412044,0.46566 0.07055,0 0.132644,-0.008 0.160866,-0.0226 v -0.1778 h -0.0508 c -0.220133,0 -0.273755,-0.0847 -0.273755,-0.26528 v -0.86925 h 0.3302 v -0.19755 h -0.3302 v -0.34431 h -0.248355 v 0.34431 h -0.208845 v 0.19755 h 0.208845 z m 1.425217,0.46566 c 0.420511,0 0.685799,-0.27658 0.685799,-0.78175 0,-0.48825 -0.256822,-0.7874 -0.685799,-0.7874 -0.420511,0 -0.6858,0.2794 -0.6858,0.7874 0,0.48824 0.256823,0.78175 0.6858,0.78175 z m 0,-0.21449 c -0.276578,0 -0.4318,-0.20602 -0.4318,-0.56726 0,-0.36971 0.1524,-0.57291 0.4318,-0.57291 0.276578,0 0.4318,0.20884 0.4318,0.57291 0,0.36689 -0.1524,0.56726 -0.4318,0.56726 z m 1.636881,0.83538 c 0.259644,0 0.358422,-0.096 0.507999,-0.4572 l 0.699911,-1.69615 h -0.254 l -0.395111,0.9906 -0.06773,0.20037 -0.06773,-0.20037 -0.4064,-0.9906 h -0.268111 l 0.612422,1.45062 -0.0508,0.11571 c -0.146755,0.33584 -0.197555,0.37253 -0.381,0.37253 h -0.0762 v 0.19191 c 0.03104,0.008 0.09031,0.0226 0.146756,0.0226 z m 2.015057,-0.62089 c 0.420511,0 0.6858,-0.27658 0.6858,-0.78175 0,-0.48825 -0.256822,-0.7874 -0.6858,-0.7874 -0.42051,0 -0.685799,0.2794 -0.685799,0.7874 0,0.48824 0.256822,0.78175 0.685799,0.78175 z m 0,-0.21449 c -0.276577,0 -0.431799,-0.20602 -0.431799,-0.56726 0,-0.36971 0.1524,-0.57291 0.431799,-0.57291 0.276578,0 0.4318,0.20884 0.4318,0.57291 0,0.36689 -0.1524,0.56726 -0.4318,0.56726 z m 1.958617,-0.4318 c 0,0.21449 -0.143933,0.43463 -0.386644,0.43463 -0.220134,0 -0.318911,-0.14394 -0.318911,-0.36972 v -0.95108 h -0.248356 v 1.00188 c 0,0.34714 0.186267,0.53058 0.499533,0.53058 0.194733,0 0.352778,-0.079 0.454378,-0.23706 v 0.2032 h 0.248355 v -1.4986 h -0.248355 z m 1.456262,0.61243 v -0.1778 c 0.09878,0.13828 0.242711,0.21166 0.420511,0.21166 0.392289,0 0.637822,-0.2794 0.637822,-0.7874 0,-0.48824 -0.239889,-0.78175 -0.637822,-0.78175 -0.1778,0 -0.321733,0.0818 -0.420511,0.22295 v -0.71966 h -0.24835 v 2.032 z m 0.403578,-1.3208 c 0.254,0 0.400755,0.20602 0.400755,0.56726 0,0.36971 -0.141111,0.57291 -0.400755,0.57291 -0.256822,0 -0.403578,-0.20884 -0.403578,-0.57291 0,-0.36689 0.141111,-0.56726 0.403578,-0.56726 z m 0.999058,1.97555 c 0.259644,0 0.358422,-0.096 0.507999,-0.4572 l 0.699911,-1.69615 h -0.254 l -0.395111,0.9906 -0.06773,0.20037 -0.06773,-0.20037 -0.4064,-0.9906 h -0.268111 l 0.612422,1.45062 -0.0508,0.11571 c -0.146755,0.33584 -0.197555,0.37253 -0.381,0.37253 h -0.0762 v 0.19191 c 0.03104,0.008 0.09031,0.0226 0.146756,0.0226 z"
       id="text1"
       style="font-size:2.82222px;line-height:1.25;font-family:Switzer;-inkscape-font-specification:Switzer;fill:#ffffff;stroke-width:0.264583"
       aria-label="brought to you by" />
    <path
       d="m 9.6576097,279.68693 c 0.6095993,0 1.0498663,-0.44026 1.0498663,-1.03575 0,-0.59831 -0.440267,-1.03575 -1.0498663,-1.03575 -0.6095996,0 -1.0498659,0.43462 -1.0498659,1.03575 0,0.59831 0.4402663,1.03575 1.0498659,1.03575 z m 0,-0.11006 c -0.5333996,0 -0.922866,-0.38947 -0.922866,-0.92569 0,-0.52776 0.3894664,-0.92569 0.922866,-0.92569 0.5333993,0 0.9228663,0.39793 0.9228663,0.92569 0,0.53622 -0.389467,0.92569 -0.9228663,0.92569 z M 10.199476,278.4 c -0.05927,-0.26529 -0.2765777,-0.4064 -0.5305775,-0.4064 -0.3640664,0 -0.5870217,0.254 -0.5870217,0.6604 0,0.4064 0.2257776,0.65193 0.589844,0.65193 0.2511775,0 0.4571992,-0.127 0.5249332,-0.39511 H 9.9708761 c -0.0508,0.13829 -0.1636888,0.22014 -0.307622,0.22014 -0.2257776,0 -0.3555997,-0.1778 -0.3555997,-0.47696 0,-0.29915 0.1298221,-0.47978 0.3555997,-0.47978 0.1495777,0 0.2652887,0.0818 0.3104442,0.22578 z m 3.025422,-0.19755 c -0.09313,-0.38383 -0.409222,-0.58702 -0.778933,-0.58702 -0.541866,0 -0.872066,0.38382 -0.872066,0.99624 0,0.61524 0.324555,0.9906 0.860777,0.9906 0.366889,0 0.680155,-0.21167 0.787399,-0.57573 H 12.94832 c -0.08184,0.23142 -0.273755,0.35277 -0.510822,0.35277 -0.378177,0 -0.59831,-0.28786 -0.59831,-0.76764 0,-0.47978 0.222955,-0.77329 0.59831,-0.77329 0.245533,0 0.445911,0.12982 0.516466,0.36407 z m 0.928509,1.39982 c 0.420511,0 0.6858,-0.27658 0.6858,-0.78176 0,-0.48824 -0.256822,-0.7874 -0.6858,-0.7874 -0.42051,0 -0.685799,0.2794 -0.685799,0.7874 0,0.48825 0.256822,0.78176 0.685799,0.78176 z m 0,-0.21449 c -0.276577,0 -0.431799,-0.20602 -0.431799,-0.56727 0,-0.36971 0.1524,-0.57291 0.431799,-0.57291 0.276578,0 0.4318,0.20885 0.4318,0.57291 0,0.36689 -0.1524,0.56727 -0.4318,0.56727 z m 1.25589,0.80151 v -0.79869 c 0.09878,0.13829 0.242711,0.21167 0.42051,0.21167 0.392289,0 0.637822,-0.2794 0.637822,-0.7874 0,-0.48825 -0.239889,-0.78176 -0.637822,-0.78176 -0.177799,0 -0.321733,0.0819 -0.42051,0.22296 v -0.18627 h -0.248356 v 2.11949 z m 0.403577,-1.94169 c 0.254,0 0.400755,0.20602 0.400755,0.56727 0,0.36971 -0.141111,0.57291 -0.400755,0.57291 -0.256822,0 -0.403577,-0.20885 -0.403577,-0.57291 0,-0.36689 0.141111,-0.56727 0.403577,-0.56727 z m 0.999067,1.97556 c 0.259644,0 0.358421,-0.096 0.507999,-0.4572 l 0.699911,-1.69616 h -0.254 l -0.395111,0.9906 -0.06773,0.20038 -0.06773,-0.20038 -0.4064,-0.9906 h -0.268111 l 0.612422,1.45062 -0.0508,0.11571 c -0.146756,0.33585 -0.197556,0.37254 -0.381,0.37254 h -0.0762 v 0.19191 c 0.03104,0.008 0.09031,0.0226 0.146756,0.0226 z m 1.419578,-0.65476 h 0.248355 v -0.8382 c 0,-0.27093 0.129822,-0.4572 0.428977,-0.4572 0.05927,0 0.112889,0.006 0.155223,0.0198 v -0.22296 c -0.02822,-0.0226 -0.08185,-0.0367 -0.141111,-0.0367 -0.180623,0 -0.341489,0.0847 -0.443089,0.26811 v -0.23142 h -0.248355 z m 1.052685,-1.69898 h 0.248356 v -0.33302 h -0.248356 z m 0,1.69898 h 0.248356 v -1.4986 h -0.248356 z m 1.176868,0.0113 c 0.191911,0 0.344311,-0.0734 0.448733,-0.21449 v 0.25682 c 0,0.2794 -0.146756,0.39794 -0.366889,0.39794 -0.217311,0 -0.372533,-0.10725 -0.403577,-0.3048 h -0.248356 c 0.05362,0.34149 0.301978,0.51082 0.654755,0.51082 0.344311,0 0.612422,-0.19473 0.612422,-0.61242 v -1.54376 h -0.248355 v 0.16369 c -0.09878,-0.12982 -0.248356,-0.20038 -0.448733,-0.20038 -0.375355,0 -0.6096,0.27376 -0.6096,0.77611 0,0.47978 0.2286,0.77047 0.6096,0.77047 z m 0.04515,-0.21449 c -0.256822,0 -0.400755,-0.2032 -0.400755,-0.55598 0,-0.36406 0.141111,-0.56162 0.400755,-0.56162 0.256822,0 0.403578,0.20602 0.403578,0.5588 0,0.36125 -0.141111,0.5588 -0.403578,0.5588 z m 1.049865,0.2032 h 0.248355 v -0.88618 c 0,-0.21448 0.146756,-0.43744 0.395111,-0.43744 0.225778,0 0.327378,0.14676 0.327378,0.37253 v 0.95109 h 0.248355 v -1.00189 c 0,-0.34713 -0.189089,-0.5334 -0.507999,-0.5334 -0.197556,0 -0.361245,0.0819 -0.462845,0.23989 v -0.7366 h -0.248355 z m 1.648179,-0.4318 c 0,0.31609 0.132644,0.46567 0.412044,0.46567 0.07056,0 0.132644,-0.008 0.160867,-0.0226 v -0.1778 h -0.0508 c -0.220134,0 -0.273756,-0.0847 -0.273756,-0.26529 v -0.86924 h 0.3302 v -0.19756 h -0.3302 v -0.34431 h -0.248355 v 0.34431 h -0.208844 v 0.19756 h 0.208844 z m 1.357491,0.4318 h 1.278466 v -0.19755 h -1.021644 c 0.104422,-0.52776 1.001888,-0.52211 1.001888,-1.10914 0,-0.30762 -0.203199,-0.54186 -0.59831,-0.54186 -0.386644,0 -0.615244,0.20884 -0.663222,0.55033 h 0.256822 c 0.03387,-0.20884 0.155222,-0.33584 0.403577,-0.33584 0.225778,0 0.347134,0.12417 0.347134,0.3302 0,0.48824 -1.004711,0.42051 -1.004711,1.23613 z m 2.263422,0.0339 c 0.440266,0 0.705555,-0.33302 0.705555,-0.9398 0,-0.59267 -0.259644,-0.94262 -0.705555,-0.94262 -0.443089,0 -0.708377,0.33584 -0.708377,0.94262 0,0.58984 0.259644,0.9398 0.708377,0.9398 z m 0,-0.21449 c -0.290689,0 -0.454378,-0.26811 -0.454378,-0.72531 0,-0.47131 0.160867,-0.72813 0.454378,-0.72813 0.287866,0 0.451555,0.26528 0.451555,0.72813 0,0.46566 -0.160867,0.72531 -0.451555,0.72531 z m 0.987777,0.18062 h 1.278466 v -0.19755 h -1.021644 c 0.104422,-0.52776 1.001888,-0.52211 1.001888,-1.10914 0,-0.30762 -0.2032,-0.54186 -0.598311,-0.54186 -0.386644,0 -0.615244,0.20884 -0.663221,0.55033 h 0.256822 c 0.03387,-0.20884 0.155222,-0.33584 0.403577,-0.33584 0.225778,0 0.347133,0.12417 0.347133,0.3302 0,0.48824 -1.00471,0.42051 -1.00471,1.23613 z m 2.963331,-0.60395 c 0,-0.33867 -0.1778,-0.64347 -0.657577,-0.64347 -0.186267,0 -0.316089,0.0593 -0.420511,0.14393 l 0.03104,-0.51364 h 0.962377 v -0.19756 h -1.159933 l -0.05644,0.95109 0.222955,0.0226 c 0.06773,-0.1016 0.186267,-0.19191 0.400755,-0.19191 0.327378,0 0.428978,0.22013 0.428978,0.4318 0,0.26246 -0.143933,0.42051 -0.428978,0.42051 -0.268111,0 -0.414866,-0.127 -0.44591,-0.3302 h -0.248356 c 0.04798,0.34149 0.290689,0.54469 0.697089,0.54469 0.443088,0 0.67451,-0.26529 0.67451,-0.63782 z m 0.89747,0.60395 h 0.259644 v -1.54375 l 0.112889,0.19755 0.880532,1.3462 h 0.270934 v -1.91911 h -0.259645 v 1.54376 L 32.828045,279.004 31.94469,277.64933 h -0.270933 z m 1.941684,-1.69898 h 0.248355 v -0.33302 h -0.248355 z m 0,1.69898 h 0.248355 v -1.4986 h -0.248355 z m 0.677335,-0.4318 c 0,0.31609 0.132645,0.46567 0.412045,0.46567 0.07056,0 0.132644,-0.008 0.160866,-0.0226 v -0.1778 h -0.0508 c -0.220133,0 -0.273755,-0.0847 -0.273755,-0.26529 v -0.86924 h 0.3302 v -0.19756 h -0.3302 v -0.34431 h -0.248356 v 0.34431 h -0.208844 v 0.19756 h 0.208844 z m 0.815623,0.4318 h 0.248355 v -0.8382 c 0,-0.27093 0.129823,-0.4572 0.428978,-0.4572 0.05927,0 0.112889,0.006 0.155222,0.0198 v -0.22296 c -0.02822,-0.0226 -0.08184,-0.0367 -0.141111,-0.0367 -0.180622,0 -0.341489,0.0847 -0.443089,0.26811 v -0.23142 h -0.248355 z m 2.006597,-0.61242 c 0,0.21449 -0.143933,0.43462 -0.386644,0.43462 -0.220133,0 -0.318911,-0.14393 -0.318911,-0.36971 v -0.95109 h -0.248355 v 1.00189 c 0,0.34713 0.186266,0.53058 0.499533,0.53058 0.194733,0 0.352777,-0.079 0.454377,-0.23707 v 0.2032 h 0.248355 v -1.4986 h -0.248355 z m 1.597376,0.61242 h 0.310444 l -0.570088,-0.77893 0.524933,-0.71967 h -0.282222 l -0.3048,0.44027 -0.07338,0.12135 -0.0762,-0.12135 -0.310444,-0.44027 h -0.310444 l 0.524933,0.71967 -0.570089,0.77893 h 0.282222 l 0.349956,-0.49953 0.07338,-0.11571 0.07338,0.11571 z m 1.109137,0 h 1.224844 v -0.21167 h -0.965199 v -1.70744 h -0.259645 z m 1.741312,-1.01035 c 0.03104,-0.19191 0.146756,-0.31045 0.361244,-0.31045 0.256822,0 0.369711,0.13265 0.369711,0.37536 v 0.0339 c -0.287866,0.003 -0.493888,0.0198 -0.697088,0.0875 -0.220133,0.0734 -0.333022,0.22296 -0.333022,0.42898 0,0.28504 0.208844,0.42898 0.519288,0.42898 0.180623,0 0.383822,-0.0818 0.510822,-0.27094 0.0028,0.0903 0.01129,0.1778 0.03951,0.23707 h 0.262467 c -0.03951,-0.0818 -0.05362,-0.18909 -0.05362,-0.36124 v -0.58985 c 0,-0.34995 -0.194734,-0.5842 -0.595489,-0.5842 -0.366888,0 -0.584199,0.19474 -0.632177,0.52494 z m -0.04516,0.6096 c 0,-0.18345 0.138289,-0.31891 0.77611,-0.32456 v 0.0706 c 0,0.25682 -0.208844,0.47413 -0.485422,0.47413 -0.174977,0 -0.290688,-0.0818 -0.290688,-0.22013 z m 1.464733,-0.031 c 0,0.31609 0.132645,0.46567 0.412044,0.46567 0.07056,0 0.132645,-0.008 0.160867,-0.0226 v -0.1778 h -0.0508 c -0.220133,0 -0.273755,-0.0847 -0.273755,-0.26529 v -0.86924 h 0.330199 V 278.0698 H 43.23076 v -0.34431 h -0.248356 v 0.34431 H 42.77356 v 0.19756 h 0.208844 z m 0.815621,-1.26718 h 0.248355 v -0.33302 h -0.248355 z m 0,1.69898 h 0.248355 v -1.4986 h -0.248355 z m 0.643471,0 h 0.248355 v -0.88618 c 0,-0.21448 0.146756,-0.43744 0.395111,-0.43744 0.225778,0 0.327377,0.14676 0.327377,0.37253 v 0.95109 h 0.248356 v -1.00189 c 0,-0.34713 -0.189089,-0.5334 -0.508,-0.5334 -0.197555,0 -0.361244,0.0819 -0.462844,0.23989 v -0.2032 h -0.248355 z m 2.223911,0.0339 c 0.42051,0 0.685799,-0.27658 0.685799,-0.78176 0,-0.48824 -0.256822,-0.7874 -0.685799,-0.7874 -0.420511,0 -0.6858,0.2794 -0.6858,0.7874 0,0.48825 0.256822,0.78176 0.6858,0.78176 z m 0,-0.21449 c -0.276578,0 -0.4318,-0.20602 -0.4318,-0.56727 0,-0.36971 0.1524,-0.57291 0.4318,-0.57291 0.276577,0 0.431799,0.20885 0.431799,0.57291 0,0.36689 -0.1524,0.56727 -0.431799,0.56727 z m 1.233311,-0.82973 c 0.03104,-0.19191 0.146755,-0.31045 0.361244,-0.31045 0.256822,0 0.369711,0.13265 0.369711,0.37536 v 0.0339 c -0.287866,0.003 -0.493888,0.0198 -0.697088,0.0875 -0.220134,0.0734 -0.333022,0.22296 -0.333022,0.42898 0,0.28504 0.208844,0.42898 0.519288,0.42898 0.180622,0 0.383822,-0.0818 0.510822,-0.27094 0.0028,0.0903 0.01129,0.1778 0.03951,0.23707 h 0.262467 c -0.03951,-0.0818 -0.05362,-0.18909 -0.05362,-0.36124 v -0.58985 c 0,-0.34995 -0.194733,-0.5842 -0.595488,-0.5842 -0.366889,0 -0.5842,0.19474 -0.632177,0.52494 z m -0.04516,0.6096 c 0,-0.18345 0.138288,-0.31891 0.77611,-0.32456 v 0.0706 c 0,0.25682 -0.208844,0.47413 -0.485422,0.47413 -0.174977,0 -0.290688,-0.0818 -0.290688,-0.22013 z m 1.430866,0.40075 h 0.248356 v -0.88618 c 0,-0.21448 0.135466,-0.43744 0.361244,-0.43744 0.2032,0 0.293511,0.14676 0.293511,0.37253 v 0.95109 h 0.248355 v -0.88618 c 0,-0.21448 0.135467,-0.43744 0.361244,-0.43744 0.2032,0 0.293511,0.14676 0.293511,0.37253 v 0.95109 h 0.248356 v -1.00189 c 0,-0.34713 -0.183445,-0.5334 -0.488244,-0.5334 -0.200378,0 -0.364067,0.0903 -0.462845,0.26529 -0.07055,-0.17498 -0.220133,-0.26529 -0.426155,-0.26529 -0.183444,0 -0.333022,0.0762 -0.428977,0.2286 v -0.19191 h -0.248356 z m 3.745087,-0.48824 h -0.259644 c -0.05362,0.20602 -0.2032,0.30762 -0.414866,0.30762 -0.270933,0 -0.428978,-0.18909 -0.443089,-0.52493 h 1.106311 v -0.0621 c 0,-0.47696 -0.254,-0.76765 -0.677333,-0.76765 -0.420511,0 -0.682978,0.2794 -0.682978,0.7874 0,0.48825 0.262467,0.78176 0.697089,0.78176 0.341488,0 0.592666,-0.17216 0.67451,-0.52211 z m -0.688621,-0.83256 c 0.234244,0 0.383822,0.1524 0.417688,0.42898 h -0.838199 c 0.03669,-0.2794 0.180622,-0.42898 0.420511,-0.42898 z m 1.007534,1.3208 h 0.248355 v -0.8382 c 0,-0.27093 0.129822,-0.4572 0.428977,-0.4572 0.05927,0 0.112889,0.006 0.155223,0.0198 v -0.22296 c -0.02822,-0.0226 -0.08185,-0.0367 -0.141111,-0.0367 -0.180623,0 -0.341489,0.0847 -0.443089,0.26811 v -0.23142 h -0.248355 z m 1.052684,-1.69898 h 0.248356 v -0.33302 h -0.248356 z m 0,1.69898 h 0.248356 v -1.4986 h -0.248356 z m 1.882422,-0.98213 c -0.04798,-0.36689 -0.307622,-0.55316 -0.637822,-0.55316 -0.417688,0 -0.677333,0.2794 -0.677333,0.7874 0,0.48542 0.254,0.78176 0.680155,0.78176 0.327378,0 0.578556,-0.16087 0.646289,-0.5334 h -0.248356 c -0.04798,0.21449 -0.191911,0.32173 -0.392288,0.32173 -0.276578,0 -0.4318,-0.20602 -0.4318,-0.57009 0,-0.36971 0.146756,-0.57291 0.423333,-0.57291 0.197556,0 0.349955,0.11007 0.389467,0.33867 z m 0.54751,-0.0282 c 0.03104,-0.19191 0.146756,-0.31045 0.361244,-0.31045 0.256822,0 0.369711,0.13265 0.369711,0.37536 v 0.0339 c -0.287866,0.003 -0.493888,0.0198 -0.697088,0.0875 -0.220133,0.0734 -0.333022,0.22296 -0.333022,0.42898 0,0.28504 0.208844,0.42898 0.519288,0.42898 0.180623,0 0.383822,-0.0818 0.510822,-0.27094 0.0028,0.0903 0.01129,0.1778 0.03951,0.23707 h 0.262467 c -0.03951,-0.0818 -0.05362,-0.18909 -0.05362,-0.36124 v -0.58985 c 0,-0.34995 -0.194734,-0.5842 -0.595489,-0.5842 -0.366888,0 -0.584199,0.19474 -0.632177,0.52494 z m -0.04516,0.6096 c 0,-0.18345 0.138289,-0.31891 0.77611,-0.32456 v 0.0706 c 0,0.25682 -0.208844,0.47413 -0.485422,0.47413 -0.174977,0 -0.290688,-0.0818 -0.290688,-0.22013 z m 1.430867,0.40075 h 0.248355 v -0.88618 c 0,-0.21448 0.146755,-0.43744 0.395111,-0.43744 0.225777,0 0.327377,0.14676 0.327377,0.37253 v 0.95109 h 0.248356 v -1.00189 c 0,-0.34713 -0.189089,-0.5334 -0.508,-0.5334 -0.197555,0 -0.361244,0.0819 -0.462844,0.23989 v -0.2032 h -0.248355 z m 1.842911,-1.01035 c 0.03104,-0.19191 0.146755,-0.31045 0.361244,-0.31045 0.256822,0 0.369711,0.13265 0.369711,0.37536 v 0.0339 c -0.287867,0.003 -0.493889,0.0198 -0.697089,0.0875 -0.220133,0.0734 -0.333022,0.22296 -0.333022,0.42898 0,0.28504 0.208845,0.42898 0.519289,0.42898 0.180622,0 0.383822,-0.0818 0.510822,-0.27094 0.0028,0.0903 0.01129,0.1778 0.03951,0.23707 H 61.0926 c -0.03951,-0.0818 -0.05362,-0.18909 -0.05362,-0.36124 v -0.58985 c 0,-0.34995 -0.194733,-0.5842 -0.595488,-0.5842 -0.366889,0 -0.5842,0.19474 -0.632178,0.52494 z m -0.04516,0.6096 c 0,-0.18345 0.138289,-0.31891 0.776111,-0.32456 v 0.0706 c 0,0.25682 -0.208845,0.47413 -0.485422,0.47413 -0.174978,0 -0.290689,-0.0818 -0.290689,-0.22013 z m 2.21545,-1.04987 c 0,-0.16933 0.141111,-0.2794 0.383822,-0.2794 0.245533,0 0.409221,0.11007 0.468488,0.36407 h 0.273755 c -0.07055,-0.40923 -0.366888,-0.58702 -0.736599,-0.58702 -0.423333,0 -0.654755,0.24271 -0.654755,0.51928 0,0.77611 1.176866,0.33867 1.176866,0.92569 0,0.19191 -0.1524,0.31891 -0.440267,0.31891 -0.276577,0 -0.448733,-0.12418 -0.510821,-0.35277 h -0.270934 c 0.08467,0.38664 0.366889,0.57573 0.778933,0.57573 0.409222,0 0.708377,-0.20602 0.708377,-0.57573 0,-0.7874 -1.176865,-0.36689 -1.176865,-0.90876 z m 1.453442,1.45062 h 0.304799 v -0.3048 H 63.68338 Z m 2.190043,-1.36595 c -0.09313,-0.38383 -0.409222,-0.58702 -0.778933,-0.58702 -0.541866,0 -0.872066,0.38382 -0.872066,0.99624 0,0.61524 0.324555,0.9906 0.860777,0.9906 0.366889,0 0.680155,-0.21167 0.787399,-0.57573 h -0.273755 c -0.08184,0.23142 -0.273755,0.35277 -0.510822,0.35277 -0.378177,0 -0.59831,-0.28786 -0.59831,-0.76764 0,-0.47978 0.222955,-0.77329 0.59831,-0.77329 0.245533,0 0.445911,0.12982 0.516467,0.36407 z m 0.234243,1.36595 h 0.304799 v -0.3048 H 66.10769 Z"
       id="text3"
       style="font-size:2.82222px;line-height:0;font-family:Switzer;-inkscape-font-specification:Switzer;letter-spacing:0px;fill:#ffffff;stroke-width:0"
       aria-label="© Copyright 2025 Nitrux Latinoamericana S.C." />
  </g>
</svg>
