<?xml version="1.0" encoding="UTF-8" standalone="no"?>
<!-- Created with Inkscape (http://www.inkscape.org/) -->

<svg
   xmlns:dc="http://purl.org/dc/elements/1.1/"
   xmlns:cc="http://creativecommons.org/ns#"
   xmlns:rdf="http://www.w3.org/1999/02/22-rdf-syntax-ns#"
   xmlns:svg="http://www.w3.org/2000/svg"
   xmlns="http://www.w3.org/2000/svg"
   xmlns:sodipodi="http://sodipodi.sourceforge.net/DTD/sodipodi-0.dtd"
   xmlns:inkscape="http://www.inkscape.org/namespaces/inkscape"
   width="150.00002"
   height="46.000004"
   viewBox="0 0 39.687503 12.170835"
   version="1.1"
   id="svg1089"
   sodipodi:docname="nxos_logo_large.svg"
   inkscape:version="0.92.2 (5c3e80d, 2017-08-06)">
  <defs
     id="defs1083" />
  <sodipodi:namedview
     id="base"
     pagecolor="#ffffff"
     bordercolor="#666666"
     borderopacity="1.0"
     inkscape:pageopacity="0.0"
     inkscape:pageshadow="2"
     inkscape:zoom="1"
     inkscape:cx="95.999998"
     inkscape:cy="96.000007"
     inkscape:document-units="px"
     inkscape:current-layer="layer1"
     showgrid="false"
     units="px"
     fit-margin-top="0"
     fit-margin-left="0"
     fit-margin-right="0"
     fit-margin-bottom="0"
     inkscape:window-width="2560"
     inkscape:window-height="1373"
     inkscape:window-x="0"
     inkscape:window-y="30"
     inkscape:window-maximized="1" />
  <metadata
     id="metadata1086">
    <rdf:RDF>
      <cc:Work
         rdf:about="">
        <dc:format>image/svg+xml</dc:format>
        <dc:type
           rdf:resource="http://purl.org/dc/dcmitype/StillImage" />
        <dc:title></dc:title>
      </cc:Work>
    </rdf:RDF>
  </metadata>
  <g
     inkscape:label="Capa 1"
     inkscape:groupmode="layer"
     id="layer1"
     transform="translate(-61.406185,-114.51669)">
    <rect
       style="display:inline;opacity:1;fill:none;fill-opacity:1;stroke:none;stroke-width:0.52916664;stroke-linecap:round;stroke-linejoin:round;stroke-miterlimit:4;stroke-dasharray:none;stroke-dashoffset:0;stroke-opacity:1"
       id="rect4817"
       width="39.687504"
       height="12.170835"
       x="61.406185"
       y="114.51669"
       inkscape:export-filename="/home/uri/nxos_logo_dark@2_2.png"
       inkscape:export-xdpi="204.8"
       inkscape:export-ydpi="204.8" />
    <g
       style="display:inline;opacity:1"
       inkscape:export-ydpi="204.8"
       inkscape:export-xdpi="204.8"
       inkscape:export-filename="/home/uri/nxos_logo_dark@2_2.png"
       transform="matrix(0.26458333,0,0,0.26458333,203.22285,112.40005)"
       id="g4846">
      <path
         style="opacity:1;fill:#231f20;fill-opacity:1;fill-rule:evenodd;stroke:none;stroke-width:1px;stroke-linecap:butt;stroke-linejoin:miter;stroke-opacity:1"
         d="m -450.00002,13.99992 v 2 26.93555 0.06445 4 l 2,1 26,-16 v -1 l -4.2832,-2.59961 -15.7168,-9.54297 v 1.94336 l 14.20898,8.52344 -21.20898,12.99805 V 16.59953 15.99992 14.60734 Z"
         id="path4820"
         inkscape:connector-curvature="0" />
      <path
         style="display:inline;opacity:1;fill:#231f20;fill-opacity:1;stroke:none"
         d="m -498.99994,26.99997 v 2 c 0,-0.74777 0.73594,-0.99863 1.24414,-0.32617 l 0.24414,0.32617 h 0.51172 v -2 z"
         id="path4822"
         inkscape:export-filename="C:\Users\DeViL\Desktop\nitrux_logo_156x42.png"
         inkscape:export-xdpi="90"
         inkscape:export-ydpi="90"
         inkscape:connector-curvature="0" />
      <rect
         style="opacity:1;fill:#231f20;fill-opacity:1;stroke:none;stroke-width:2;stroke-linecap:round;stroke-linejoin:round;stroke-miterlimit:4;stroke-dasharray:none;stroke-dashoffset:0;stroke-opacity:1"
         id="rect4824"
         width="1.0000513"
         height="18.00001"
         x="-500"
         y="23.999971"
         inkscape:export-filename="C:\Users\DeViL\Desktop\nitrux_logo_156x42.png"
         inkscape:export-xdpi="90"
         inkscape:export-ydpi="90" />
      <rect
         style="opacity:1;fill:#231f20;fill-opacity:1;stroke:none;stroke-width:2;stroke-linecap:round;stroke-linejoin:round;stroke-miterlimit:4;stroke-dasharray:none;stroke-dashoffset:0;stroke-opacity:1"
         id="rect4826"
         width="0.99995029"
         height="4.9999981"
         x="-487.99994"
         y="32.999973"
         inkscape:export-filename="C:\Users\DeViL\Desktop\nitrux_logo_156x42.png"
         inkscape:export-xdpi="90"
         inkscape:export-ydpi="90" />
      <path
         style="fill:#231f20;fill-opacity:1;fill-rule:evenodd;stroke:none;stroke-width:1px;stroke-linecap:butt;stroke-linejoin:miter;stroke-opacity:1"
         d="m -487.99994,41.999971 -11,-15.000001 -1,-5 v -1 l 13,17.000001 v 4 z"
         id="path4828"
         inkscape:connector-curvature="0"
         inkscape:export-filename="C:\Users\DeViL\Desktop\nitrux_logo_156x42.png"
         inkscape:export-xdpi="90"
         inkscape:export-ydpi="90" />
      <path
         style="fill:#231f20;fill-opacity:1;fill-rule:evenodd;stroke:none;stroke-width:1px;stroke-linecap:butt;stroke-linejoin:miter;stroke-opacity:1"
         d="m -499.99994,21.99997 v 2 h 1 v -1 z"
         id="path4830"
         inkscape:connector-curvature="0"
         inkscape:export-filename="C:\Users\DeViL\Desktop\nitrux_logo_156x42.png"
         inkscape:export-xdpi="90"
         inkscape:export-ydpi="90" />
      <path
         style="fill:#231f20;fill-opacity:1;fill-rule:evenodd;stroke:none;stroke-width:1px;stroke-linecap:butt;stroke-linejoin:miter;stroke-opacity:1"
         d="m -497.99994,20.99997 8,10.5 2,-2.625 -6,-7.875 z m 11,9.1875 -2,2.625001 7,9.1875 h 4 z"
         id="path4832"
         inkscape:export-filename="C:\Users\DeViL\Desktop\nitrux_logo_156x42.png"
         inkscape:export-xdpi="90"
         inkscape:export-ydpi="90"
         inkscape:connector-curvature="0" />
      <path
         style="fill:#231f20;fill-opacity:1;fill-rule:evenodd;stroke:none;stroke-width:1px;stroke-linecap:butt;stroke-linejoin:miter;stroke-opacity:1"
         d="m -479.99994,20.99997 -9.98242,13.101563 0.50195,0.654297 10.48047,-13.75586 z"
         id="path4834"
         inkscape:connector-curvature="0"
         sodipodi:nodetypes="ccccc"
         inkscape:export-filename="C:\Users\DeViL\Desktop\nitrux_logo_156x42.png"
         inkscape:export-xdpi="90"
         inkscape:export-ydpi="90" />
      <path
         style="display:inline;opacity:1;fill:#231f20;fill-opacity:1;stroke:none"
         d="m -488.14252,32.499971 -1.52344,2 h 0.17774 l 0.24414,-0.326172 c 0.5082,-0.672455 1.24414,-0.421594 1.24414,0.326172 v -2 z"
         id="path4836"
         inkscape:connector-curvature="0"
         sodipodi:nodetypes="ccccccc"
         inkscape:export-filename="C:\Users\DeViL\Desktop\nitrux_logo_156x42.png"
         inkscape:export-xdpi="90"
         inkscape:export-ydpi="90" />
      <path
         style="display:inline;opacity:1;fill:#231f20;fill-opacity:1;stroke:none"
         d="m -485.88666,29.80856 -1.53711,1.98829 0.0352,0.13867 0.21874,-0.0566 0.96875,-0.64453 c -0.17285,-0.21857 -0.17348,-0.57301 0.10743,-0.9336 l 0.25195,-0.32031 z"
         id="path4838"
         inkscape:connector-curvature="0"
         sodipodi:nodetypes="cccccccc"
         inkscape:export-filename="C:\Users\DeViL\Desktop\nitrux_logo_156x42.png"
         inkscape:export-xdpi="90"
         inkscape:export-ydpi="90" />
      <path
         inkscape:connector-curvature="0"
         style="opacity:1;fill:#231f20;fill-opacity:1;stroke:none;stroke-width:2;stroke-linecap:round;stroke-linejoin:round;stroke-miterlimit:4;stroke-dasharray:none;stroke-dashoffset:0;stroke-opacity:1"
         d="m -275,221 a 10.5,10.5 0 0 0 -0.69727,0.0352 l -0.96289,1.1582 A 8.499979,9.5 0 0 1 -275,222 a 8.499979,9.5 0 0 1 8.5,9.5 8.499979,9.5 0 0 1 -8.5,9.5 8.499979,9.5 0 0 1 -0.45117,-0.0254 l 0.86133,1.00391 A 10.5,10.5 0 0 0 -264.5,231.5 10.5,10.5 0 0 0 -275,221 Z m -8.42383,9.30859 L -284,231 l 0.50195,0.58594 a 8.499979,9.5 0 0 1 -0.002,-0.0859 8.499979,9.5 0 0 1 0.0762,-1.19141 z"
         transform="translate(-200.00002,-200.00008)"
         id="path4840" />
      <path
         inkscape:connector-curvature="0"
         style="opacity:1;fill:#231f20;fill-opacity:1;stroke:none;stroke-width:2;stroke-linecap:round;stroke-linejoin:round;stroke-miterlimit:4;stroke-dasharray:none;stroke-dashoffset:0;stroke-opacity:1"
         d="m -268.5,221 c -3.047,0 -5.5,2.453 -5.5,5.5 0,3.047 2.453,5.5 5.5,5.5 h 0.39844 4.10156 0.39844 c 2.493,0 4.5,2.007 4.5,4.5 0,2.493 -2.007,4.5 -4.5,4.5 h -5 c -2.31527,0 -4.13986,-1.75626 -4.39844,-4 h -1 c 0.26343,2.79815 2.52911,5 5.39844,5 h 5 c 3.047,0 5.5,-2.453 5.5,-5.5 0,-3.047 -2.453,-5.5 -5.5,-5.5 H -264 -268.10156 -268.5 c -2.493,0 -4.5,-2.007 -4.5,-4.5 0,-2.493 2.007,-4.5 4.5,-4.5 h 5 c 2.31527,0 4.13986,1.75626 4.39844,4 h 1 c -0.26343,-2.79815 -2.52911,-5 -5.39844,-5 z"
         id="path4842"
         transform="translate(-200.00002,-200.00008)" />
      <path
         style="fill:#4dd0e1;fill-opacity:1;fill-rule:evenodd;stroke:none;stroke-width:1px;stroke-linecap:butt;stroke-linejoin:miter;stroke-opacity:1"
         d="m -478.00001,38 -6,-7 5,-6 1,1 z"
         id="path4844"
         inkscape:connector-curvature="0" />
    </g>
  </g>
</svg>
